{
.appVersion = "3418";
DisplayStrings = (
"/tcaron"
);
classes = (
{
code = "maiHanaKat-thai maitaikhu-thai saraI-thai saraIi-thai saraUe-thai saraUee-thai nikhahit-thai yamakkan-thai nikhahit_maiEk-thai nikhahit_maiTho-thai nikhahit_maiTri-thai nikhahit_maiChattawa-thai\012";
name = thai_marks;
},
{
code = "maiHanaKat-thai.narrow maitaikhu-thai.narrow saraI-thai.narrow saraIi-thai.narrow saraUe-thai.narrow saraUee-thai.narrow nikhahit-thai.narrow yamakkan-thai nikhahit_maiEk-thai.narrow nikhahit_maiTho-thai.narrow nikhahit_maiTri-thai.narrow nikhahit_maiChattawa-thai.narrow\012";
name = thai_narrowmarks;
},
{
code = "maiEk-thai maiTho-thai maiTri-thai maiChattawa-thai thanthakhat-thai \012";
name = thai_vowels;
},
{
code = "maiEk-thai.narrow maiTho-thai.narrow maiTri-thai.narrow maiChattawa-thai.narrow thanthakhat-thai.narrow \012";
name = thai_narrowvowels;
},
{
code = "maiEk-thai.small maiTho-thai.small maiTri-thai.small maiChattawa-thai.small thanthakhat-thai.small\012";
name = thai_smallvowels;
},
{
code = "phinthu-thai saraU-thai saraUu-thai";
name = thai_bottommarks;
},
{
code = "phinthu-thai.small saraU-thai.small saraUu-thai.small";
name = thai_smallbottommarks;
}
);
copyright = "Copyright 2025 The Plaimanas07 Project Authors (https://github.com/cadsondemak/Plaimanas07)";
customParameters = (
{
name = glyphOrder;
value = (
A,
B,
C,
D,
E,
F,
G,
H,
I,
J,
K,
L,
M,
N,
O,
P,
Q,
R,
S,
T,
U,
V,
W,
X,
Y,
Z,
a,
b,
c,
d,
e,
f,
g,
h,
i,
j,
k,
l,
m,
n,
o,
p,
q,
r,
s,
t,
u,
v,
w,
x,
y,
z
);
},
{
name = fsType;
value = (
);
},
{
name = unicodeRanges;
value = (
0,
1,
24
);
},
{
name = "Family Alignment Zones";
value = (
"{800, 8}",
"{700, 8}",
"{560, 8}",
"{500, 8}",
"{0, -8}",
"{-200, -8}"
);
},
{
name = "Enforce Compatibility Check";
value = 1;
},
{
name = "MakeOTF Compatibility Mode";
value = 1;
},
{
name = "Use Typo Metrics";
value = 1;
},
{
name = blueScale;
value = 0.12496;
},
{
name = description;

glyphs = (
{
glyphname = A;
lastChange = "2025-04-05 11:24:18 +0000";
layers = (
{
anchors = (
{
name = bottom;
position = "{235, 0}";
},
{
name = ogonek;
position = "{425, 0}";
},
{
name = top;
position = "{229, 700}";
}
);
background = {
anchors = (
{
name = bottom;
position = "{235, 0}";
},
{
name = ogonek;
position = "{425, 0}";
},
{
name = top;
position = "{229, 700}";
}
);
hints = (
{
scale = "{1, -1}";
type = Corner;
name = _corner.leftSerif;
options = 1;
},
{
type = Corner;
name = _corner.leftSerif;
},
{
scale = "{1, -1}";
type = Corner;
name = _corner.rightSerif;
options = 1;
},
{
type = Corner;
name = _corner.rightSerif;
},
{
type = Corner;
name = _corner.leftSerif;
},
{
scale = "{1, -1}";
type = Corner;
name = _corner.rightSerif;
options = 1;
},
{
type = Corner;
name = _corner.rightSerif;
},
{
type = Corner;
name = _corner.leftSerif;
},
{
scale = "{1, -1}";
type = Corner;
name = _corner.rightSerif;
options = 1;
},
{
type = Corner;
name = _corner.leftSerif;
},
{
scale = "{1, -1}";
type = Corner;
name = _corner.rightSerif;
options = 1;
}
);
paths = (
{
closed = 1;
nodes = (
"500 0 LINE",
"500 3 LINE",
"451 7 OFFCURVE",
"424 17 OFFCURVE",
"405 95 CURVE SMOOTH",
"254 700 LINE",
"142 700 LINE",
"142 697 LINE",
"193 689 OFFCURVE",
"208 673 OFFCURVE",
"220 624 CURVE SMOOTH",
"349 95 LINE SMOOTH",
"368 19 OFFCURVE",
"348 6 OFFCURVE",
"281 3 CURVE",
"281 0 LINE"
);
},
{
closed = 1;
nodes = (
"161 0 LINE",
"161 3 LINE",
"85 7 OFFCURVE",
"72 18 OFFCURVE",
"90 87 CURVE SMOOTH",
"238 659 LINE",
"222 652 LINE",
"74 85 LINE SMOOTH",
"58 22 OFFCURVE",
"28 8 OFFCURVE",
"-32 3 CURVE",
"-32 0 LINE"
);
},
{
closed = 1;
nodes = (
"333 246 LINE",
"333 258 LINE",
"121 258 LINE",
"121 246 LINE"
);
}
);
};
layerId = "11FB3604-FD70-4670-A6A6-DB9438128FDF";
paths = (
{
closed = 1;
nodes = (
"500 0 LINE",
"500 3 LINE",
"451 7 OFFCURVE",
"424 17 OFFCURVE",
"405 95 CURVE SMOOTH",
"254 700 LINE",
"142 700 LINE",
"142 697 LINE",
"193 689 OFFCURVE",
"208 673 OFFCURVE",
"220 624 CURVE SMOOTH",
"349 95 LINE SMOOTH",
"368 19 OFFCURVE",
"348 6 OFFCURVE",
"281 3 CURVE",
"281 0 LINE"
);
},
{
closed = 1;
nodes = (
"161 0 LINE",
"161 3 LINE",
"85 7 OFFCURVE",
"72 18 OFFCURVE",
"90 87 CURVE SMOOTH",
"238 659 LINE",
"222 652 LINE",
"74 85 LINE SMOOTH",
"58 22 OFFCURVE",
"28 8 OFFCURVE",
"-32 3 CURVE",
"-32 0 LINE"
);
},
{
closed = 1;
nodes = (
"333 246 LINE",
"333 258 LINE",
"121 258 LINE",
"121 246 LINE"
);
}
);
width = 478;
}
);
leftKerningGroup = A;
rightKerningGroup = A;
unicode = 0041;
},
{
glyphname = B;
lastChange = "2025-04-05 11:24:18 +0000";
layers = (
{
background = {
hints = (
{
scale = "{1, -1}";
type = Corner;
name = _corner.rightSerif;
options = 1;
},
{
type = Corner;
name = _corner.leftSerif;
},
{
scale = "{1, -1}";
type = Corner;
name = _corner.rightSerif;
options = 1;
},
{
type = Corner;
name = _corner.leftSerif;
},
{
scale = "{1, -1}";
type = Corner;
name = _corner.rightSerif;
options = 1;
},
{
type = Corner;
name = _corner.leftSerif;
},
{
scale = "{1, -1}";
type = Corner;
name = _corner.rightSerif;
options = 1;
},
{
type = Corner;
name = _corner.leftSerif;
},
{
scale = "{1, -1}";
type = Corner;
name = _corner.rightSerif;
options = 1;
},
{
type = Corner;
name = _corner.leftSerif;
},
{
scale = "{1, -1}";
type = Corner;
name = _corner.rightSerif;
options = 1;
},
{
type = Corner;
name = _corner.leftSerif;
},
{
scale = "{1, -1}";
type = Corner;
name = _corner.rightSerif;
options = 1;
},
{
type = Corner;
name = _corner.leftSerif;
},
{
scale = "{1, -1}";
type = Corner;
name = _corner.rightSerif;
options = 1;
},
{
type = Corner;
name = _corner.leftSerif;
},
{
scale = "{1, -1}";
type = Corner;
name = _corner.rightSerif;
options = 1;
},
{
type = Corner;
name = _corner.leftSerif;
},
{
scale = "{1, -1}";
type = Corner;
name = _corner.rightSerif;
options = 1;
},
{
type = Corner;
name = _corner.leftSerif;
},
{
scale = "{1, -1}";
type = Corner;
name = _corner.rightSerif;
options = 1;
},
{
type = Corner;
name = _corner.leftSerif;
},
{
scale = "{1, -1}";
type = Corner;
name = _corner.rightSerif;
options = 1;
},
{
type = Corner;
name = _corner.leftSerif;
},
{
scale = "{1, -1}";
type = Corner;
name = _corner.rightSerif;
options = 1;
},
{
type = Corner;
name = _corner.leftSerif;
},
{
scale = "{1, -1}";
type = Corner;
name = _corner.rightSerif;
options = 1;
},
{
type = Corner;
name = _corner.leftSerif;
},
{
scale = "{1, -1}";
type = Corner;
name = _corner.rightSerif;
options = 1;
},
{
type = Corner;
name = _corner.leftSerif;
},
{
scale = "{1, -1}";
type = Corner;
name = _corner.rightSerif;
options = 1;
},
{
type = Corner;
name = _corner.leftSerif;
},
{
scale = "{1, -1}";
type = Corner;
name = _corner.rightSerif;
options = 1;
},
{
type = Corner;
name = _corner.leftSerif;
},
{
scale = "{1, -1}";
type = Corner;
name = _corner.rightSerif;
options = 1;
},
{
type = Corner;
name = _corner.leftSerif;
},
{
scale = "{1, -1}";
type = Corner;
name = _corner.rightSerif;
options = 1;
},
{
type = Corner;
name = _corner.leftSerif;
},
{
scale = "{1, -1}";
type = Corner;
name = _corner.rightSerif;
options = 1;
},
{
type = Corner;
name = _corner.leftSerif;
},
{
scale = "{1, -1}";
type = Corner;
name = _corner.rightSerif;
options = 1;
},
{
type = Corner;
name = _corner.leftSerif;
},
{
scale = "{1, -1}";
type = Corner;
name = _corner.rightSerif;
options = 1;
},
{
type = Corner;
name = _corner.leftSerif;
},
{
scale = "{1, -1}";
type = Corner;
name = _corner.rightSerif;
options = 1;
},
{
type = Corner;
name = _corner.leftSerif;
},
{
scale = "{1, -1}";
type = Corner;
name = _corner.rightSerif;
options = 1;
},
{
type = Corner;
name = _corner.leftSerif;
},
{
scale = "{1, -1}";
type = Corner;
name = _corner.leftSerif;
options = 1;
},
{
type = Corner;
name = _corner.leftSerif;
},
{
scale = "{1, -1}";
type = Corner;
name = _corner.leftSerif;
options = 1;
},
{
type = Corner;
name = _corner.leftSerif;
},
{
scale = "{1, -1}";
type = Corner;
name = _corner.leftSerif;
options = 1;
},
{
type = Corner;
name = _corner.leftSerif;
},
{
scale = "{1, -1}";
type = Corner;
name = _corner.leftSerif;
options = 1;
},
{
type = Corner;
name = _corner.leftSerif;
},
{
scale = "{1, -1}";
type = Corner;
name = _corner.leftSerif;
options = 1;
},
{
type = Corner;
name = _corner.leftSerif;
},
{
scale = "{1, -1}";
type = Corner;
name = _corner.leftSerif;
options = 1;
},
{
type = Corner;
name = _corner.leftSerif;
},
{
scale = "{1, -1}";
type = Corner;
name = _corner.leftSerif;
options = 1;
},
{
type = Corner;
name = _corner.leftSerif;
},
{
scale = "{1, -1}";
type = Corner;
name = _corner.leftSerif;
options = 1;
},
{
type = Corner;
name = _corner.leftSerif;
},
{
scale = "{1, -1}";
type = Corner;
name = _corner.leftSerif;
options = 1;
},
{
type = Corner;
name = _corner.leftSerif;
},
{
scale = "{1, -1}";
type = Corner;
name = _corner.leftSerif;
options = 1;
},
{
type = Corner;
name = _corner.leftSerif;
},
{
scale = "{1, -1}";
type = Corner;
name = _corner.leftSerif;
options = 1;
},
{
type = Corner;
name = _corner.leftSerif;
},
{
scale = "{1, -1}";
type = Corner;
name = _corner.leftSerif;
options = 1;
},
{
type = Corner;
name = _corner.leftSerif;
},
{
scale = "{1, -1}";
type = Corner;
name = _corner.leftSerif;
options = 1;
},
{
type = Corner;
name = _corner.leftSerif;
},
{
scale = "{1, -1}";
type = Corner;
name = _corner.leftSerif;
options = 1;
},
{
type = Corner;
name = _corner.leftSerif;
},
{
scale = "{1, -1}";
type = Corner;
name = _corner.leftSerif;
options = 1;
},
{
type = Corner;
name = _corner.leftSerif;
},
{
scale = "{1, -1}";
type = Corner;
name = _corner.leftSerif;
options = 1;
},
{
type = Corner;
name = _corner.leftSerif;
},
{
scale = "{1, -1}";
type = Corner;
name = _corner.leftSerif;
options = 1;
},
{
type = Corner;
name = _corner.leftSerif;
},
{
scale = "{1, -1}";
type = Corner;
name = _corner.leftSerif;
options = 1;
},
{
type = Corner;
name = _corner.leftSerif;
},
{
scale = "{1, -1}";
type = Corner;
name = _corner.leftSerif;
options = 1;
},
{
type = Corner;
name = _corner.leftSerif;
},
{
origin = "{0, 14}";
scale = "{1, -1}";
type = Corner;
name = _corner.leftSerif;
options = 1;
},
{
origin = "{0, 15}";
type = Corner;
name = _corner.leftSerif;
}
);
paths = (
{
closed = 1;
nodes = (
"229 0 LINE SMOOTH",
"348 0 OFFCURVE",
"421 72 OFFCURVE",
"421 189 CURVE SMOOTH",
"421 299 OFFCURVE",
"357 364 OFFCURVE",
"243 371 CURVE",
"243 370 LINE",
"337 380 OFFCURVE",
"399 449 OFFCURVE",
"399 540 CURVE SMOOTH",
"399 640 OFFCURVE",
"327 700 OFFCURVE",
"206 700 CURVE SMOOTH",
"95 700 LINE",
"95 0 LINE"
);
},
{
closed = 1;
nodes = (
"171 12 OFFCURVE",
"149 33 OFFCURVE",
"149 81 CURVE SMOOTH",
"149 339 LINE SMOOTH",
"149 357 OFFCURVE",
"156 363 OFFCURVE",
"173 363 CURVE SMOOTH",
"221 363 LINE SMOOTH",
"313 363 OFFCURVE",
"365 299 OFFCURVE",
"365 189 CURVE SMOOTH",
"365 79 OFFCURVE",
"314 12 OFFCURVE",
"228 12 CURVE SMOOTH",
"219 12 LINE SMOOTH"
);
},
{
closed = 1;
nodes = (
"154 375 OFFCURVE",
"149 380 OFFCURVE",
"149 393 CURVE SMOOTH",
"149 632 LINE SMOOTH",
"149 674 OFFCURVE",
"162 688 OFFCURVE",
"202 688 CURVE SMOOTH",
"206 688 LINE SMOOTH",
"295 688 OFFCURVE",
"345 633 OFFCURVE",
"345 536 CURVE SMOOTH",
"345 438 OFFCURVE",
"293 375 OFFCURVE",
"211 375 CURVE SMOOTH",
"169 375 LINE SMOOTH"
);
}
);
};
hints = (
{
origin = "{0, 15}";
type = Corner;
name = _corner.leftSerif;
},
{
origin = "{0, 14}";
scale = "{1, -1}";
type = Corner;
name = _corner.leftSerif;
options = 1;
}
);
layerId = "11FB3604-FD70-4670-A6A6-DB9438128FDF";
paths = (
{
closed = 1;
nodes = (
"229 0 LINE SMOOTH",
"348 0 OFFCURVE",
"421 72 OFFCURVE",
"421 189 CURVE SMOOTH",
"421 299 OFFCURVE",
"357 364 OFFCURVE",
"243 371 CURVE",
"243 370 LINE",
"337 380 OFFCURVE",
"399 449 OFFCURVE",
"399 540 CURVE SMOOTH",
"399 640 OFFCURVE",
"327 700 OFFCURVE",
"206 700 CURVE SMOOTH",
"95 700 LINE",
"95 0 LINE"
);
},
{
closed = 1;
nodes = (
"171 12 OFFCURVE",
"149 33 OFFCURVE",
"149 81 CURVE SMOOTH",
"149 339 LINE SMOOTH",
"149 357 OFFCURVE",
"156 363 OFFCURVE",
"173 363 CURVE SMOOTH",
"221 363 LINE SMOOTH",
"313 363 OFFCURVE",
"365 299 OFFCURVE",
"365 189 CURVE SMOOTH",
"365 79 OFFCURVE",
"314 12 OFFCURVE",
"228 12 CURVE SMOOTH",
"219 12 LINE SMOOTH"
);
},
{
closed = 1;
nodes = (
"154 375 OFFCURVE",
"149 380 OFFCURVE",
"149 393 CURVE SMOOTH",
"149 632 LINE SMOOTH",
"149 674 OFFCURVE",
"162 688 OFFCURVE",
"202 688 CURVE SMOOTH",
"206 688 LINE SMOOTH",
"295 688 OFFCURVE",
"345 633 OFFCURVE",
"345 536 CURVE SMOOTH",
"345 438 OFFCURVE",
"293 375 OFFCURVE",
"211 375 CURVE SMOOTH",
"169 375 LINE SMOOTH"
);
}
);
width = 456;
}
);
leftKerningGroup = H;
rightKerningGroup = B;
unicode = 0042;
},
{
glyphname = C;
lastChange = "2025-04-05 11:24:18 +0000";
layers = (
{
anchors = (
{
name = bottom;
position = "{228, 0}";
},
{
name = top;
position = "{242, 700}";
}
);
background = {
anchors = (
{
name = bottom;
position = "{228, 0}";
},
{
name = top;
position = "{242, 700}";
}
);
hints = (
{
type = Corner;
name = _corner.leftSerif;
},
{
scale = "{1, -1}";
type = Corner;
name = _corner.rightSerif;
options = 1;
}
);
paths = (
{
closed = 1;
nodes = (
"359 -13 LINE",
"392 249 LINE",
"389 249 LINE",
"341 65 OFFCURVE",
"304 4 OFFCURVE",
"245 4 CURVE SMOOTH",
"161 4 OFFCURVE",
"106 143 OFFCURVE",
"106 350 CURVE SMOOTH",
"106 557 OFFCURVE",
"162 696 OFFCURVE",
"251 696 CURVE SMOOTH",
"308 696 OFFCURVE",
"342 635 OFFCURVE",
"389 457 CURVE",
"392 457 LINE",
"359 715 LINE",
"356 715 LINE",
"351 696 OFFCURVE",
"343 688 OFFCURVE",
"328 688 CURVE SMOOTH",
"307 688 OFFCURVE",
"285 708 OFFCURVE",
"246 708 CURVE SMOOTH",
"131 708 OFFCURVE",
"46 566 OFFCURVE",
"46 350 CURVE SMOOTH",
"46 134 OFFCURVE",
"130 -8 OFFCURVE",
"240 -8 CURVE SMOOTH",
"281 -8 OFFCURVE",
"306 15 OFFCURVE",
"328 15 CURVE SMOOTH",
"343 15 OFFCURVE",
"351 7 OFFCURVE",
"356 -13 CURVE"
);
}
);
};
layerId = "11FB3604-FD70-4670-A6A6-DB9438128FDF";
paths = (
{
closed = 1;
nodes = (
"359 -13 LINE",
"392 249 LINE",
"389 249 LINE",
"341 65 OFFCURVE",
"304 4 OFFCURVE",
"245 4 CURVE SMOOTH",
"161 4 OFFCURVE",
"106 143 OFFCURVE",
"106 350 CURVE SMOOTH",
"106 557 OFFCURVE",
"162 696 OFFCURVE",
"251 696 CURVE SMOOTH",
"308 696 OFFCURVE",
"342 635 OFFCURVE",
"389 457 CURVE",
"392 457 LINE",
"359 715 LINE",
"356 715 LINE",
"351 696 OFFCURVE",
"343 688 OFFCURVE",
"328 688 CURVE SMOOTH",
"307 688 OFFCURVE",
"285 708 OFFCURVE",
"246 708 CURVE SMOOTH",
"131 708 OFFCURVE",
"46 566 OFFCURVE",
"46 350 CURVE SMOOTH",
"46 134 OFFCURVE",
"130 -8 OFFCURVE",
"240 -8 CURVE SMOOTH",
"281 -8 OFFCURVE",
"306 15 OFFCURVE",
"328 15 CURVE SMOOTH",
"343 15 OFFCURVE",
"351 7 OFFCURVE",
"356 -13 CURVE"
);
}
);
width = 426;
}
);
leftKerningGroup = O;
rightKerningGroup = C;
unicode = 0043;
},
{
glyphname = D;
lastChange = "2025-04-05 11:24:18 +0000";
layers = (
{
anchors = (
{
name = bottom;
position = "{248, 0}";
},
{
name = center;
position = "{124, 350}";
},
{
name = top;
position = "{248, 700}";
}
);
background = {
anchors = (
{
name = bottom;
position = "{248, 0}";
},
{
name = center;
position = "{124, 350}";
},
{
name = top;
position = "{248, 700}";
}
);
hints = (
{
scale = "{1, -1}";
type = Corner;
name = _corner.rightSerif;
options = 1;
},
{
type = Corner;
name = _corner.leftSerif;
},
{
scale = "{1, -1}";
type = Corner;
name = _corner.rightSerif;
options = 1;
},
{
type = Corner;
name = _corner.leftSerif;
},
{
scale = "{1, -1}";
type = Corner;
name = _corner.rightSerif;
options = 1;
},
{
type = Corner;
name = _corner.leftSerif;
},
{
scale = "{1, -1}";
type = Corner;
name = _corner.rightSerif;
options = 1;
},
{
type = Corner;
name = _corner.leftSerif;
},
{
scale = "{1, -1}";
type = Corner;
name = _corner.rightSerif;
options = 1;
},
{
type = Corner;
name = _corner.leftSerif;
},
{
scale = "{1, -1}";
type = Corner;
name = _corner.rightSerif;
options = 1;
},
{
type = Corner;
name = _corner.leftSerif;
},
{
scale = "{1, -1}";
type = Corner;
name = _corner.rightSerif;
options = 1;
},
{
type = Corner;
name = _corner.leftSerif;
},
{
scale = "{1, -1}";
type = Corner;
name = _corner.rightSerif;
options = 1;
},
{
type = Corner;
name = _corner.leftSerif;
},
{
scale = "{1, -1}";
type = Corner;
name = _corner.rightSerif;
options = 1;
},
{
type = Corner;
name = _corner.leftSerif;
},
{
scale = "{1, -1}";
type = Corner;
name = _corner.rightSerif;
options = 1;
},
{
type = Corner;
name = _corner.leftSerif;
},
{
scale = "{1, -1}";
type = Corner;
name = _corner.rightSerif;
options = 1;
},
{
type = Corner;
name = _corner.leftSerif;
},
{
scale = "{1, -1}";
type = Corner;
name = _corner.leftSerif;
options = 1;
},
{
type = Corner;
name = _corner.leftSerif;
},
{
scale = "{1, -1}";
type = Corner;
name = _corner.leftSerif;
options = 1;
},
{
type = Corner;
name = _corner.leftSerif;
},
{
scale = "{1, -1}";
type = Corner;
name = _corner.leftSerif;
options = 1;
},
{
type = Corner;
name = _corner.leftSerif;
},
{
scale = "{1, -1}";
type = Corner;
name = _corner.leftSerif;
options = 1;
},
{
type = Corner;
name = _corner.leftSerif;
},
{
scale = "{1, -1}";
type = Corner;
name = _corner.leftSerif;
options = 1;
},
{
type = Corner;
name = _corner.leftSerif;
},
{
scale = "{1, -1}";
type = Corner;
name = _corner.leftSerif;
options = 1;
},
{
type = Corner;
name = _corner.leftSerif;
},
{
scale = "{1, -1}";
type = Corner;
name = _corner.leftSerif;
options = 1;
},
{
type = Corner;
name = _corner.leftSerif;
},
{
scale = "{1, -1}";
type = Corner;
name = _corner.leftSerif;
options = 1;
},
{
type = Corner;
name = _corner.leftSerif;
},
{
scale = "{1, -1}";
type = Corner;
name = _corner.leftSerif;
options = 1;
},
{
type = Corner;
name = _corner.leftSerif;
},
{
scale = "{1, -1}";
type = Corner;
name = _corner.leftSerif;
options = 1;
},
{
type = Corner;
name = _corner.leftSerif;
},
{
scale = "{1, -1}";
type = Corner;
name = _corner.leftSerif;
options = 1;
},
{
type = Corner;
name = _corner.leftSerif;
},
{
scale = "{1, -1}";
type = Corner;
name = _corner.leftSerif;
options = 1;
},
{
type = Corner;
name = _corner.leftSerif;
},
{
scale = "{1, -1}";
type = Corner;
name = _corner.leftSerif;
options = 1;
},
{
type = Corner;
name = _corner.leftSerif;
},
{
scale = "{1, -1}";
type = Corner;
name = _corner.leftSerif;
options = 1;
},
{
type = Corner;
name = _corner.leftSerif;
},
{
scale = "{1, -1}";
type = Corner;
name = _corner.leftSerif;
options = 1;
},
{
type = Corner;
name = _corner.leftSerif;
},
{
origin = "{0, 7}";
scale = "{1, -1}";
type = Corner;
name = _corner.leftSerif;
options = 1;
},
{
origin = "{0, 8}";
type = Corner;
name = _corner.leftSerif;
}
);
paths = (
{
closed = 1;
nodes = (
"220 0 LINE SMOOTH",
"356 0 OFFCURVE",
"449 163 OFFCURVE",
"449 363 CURVE SMOOTH",
"449 569 OFFCURVE",
"351 700 OFFCURVE",
"200 700 CURVE SMOOTH",
"95 700 LINE",
"95 0 LINE"
);
},
{
closed = 1;
nodes = (
"166 11 OFFCURVE",
"149 32 OFFCURVE",
"149 82 CURVE SMOOTH",
"149 630 LINE SMOOTH",
"149 674 OFFCURVE",
"160 689 OFFCURVE",
"189 689 CURVE SMOOTH",
"194 689 LINE SMOOTH",
"312 689 OFFCURVE",
"389 564 OFFCURVE",
"389 363 CURVE SMOOTH",
"389 172 OFFCURVE",
"319 11 OFFCURVE",
"216 11 CURVE SMOOTH",
"206 11 LINE SMOOTH"
);
}
);
};
hints = (
{
origin = "{0, 8}";
type = Corner;
name = _corner.leftSerif;
},
{
origin = "{0, 7}";
scale = "{1, -1}";
type = Corner;
name = _corner.leftSerif;
options = 1;
}
);
layerId = "11FB3604-FD70-4670-A6A6-DB9438128FDF";
paths = (
{
closed = 1;
nodes = (
"220 0 LINE SMOOTH",
"356 0 OFFCURVE",
"449 163 OFFCURVE",
"449 363 CURVE SMOOTH",
"449 569 OFFCURVE",
"351 700 OFFCURVE",
"200 700 CURVE SMOOTH",
"95 700 LINE",
"95 0 LINE"
);
},
{
closed = 1;
nodes = (
"166 11 OFFCURVE",
"149 32 OFFCURVE",
"149 82 CURVE SMOOTH",
"149 630 LINE SMOOTH",
"149 674 OFFCURVE",
"160 689 OFFCURVE",
"189 689 CURVE SMOOTH",
"194 689 LINE SMOOTH",
"312 689 OFFCURVE",
"389 564 OFFCURVE",
"389 363 CURVE SMOOTH",
"389 172 OFFCURVE",
"319 11 OFFCURVE",
"216 11 CURVE SMOOTH",
"206 11 LINE SMOOTH"
);
}
);
width = 495;
}
);
leftKerningGroup = H;
rightKerningGroup = O;
unicode = 0044;
},
{
glyphname = E;
lastChange = "2025-04-05 11:24:18 +0000";
layers = (
{
anchors = (
{
name = bottom;
position = "{233, 0}";
},
{
name = ogonek;
position = "{339, 0}";
},
{
name = top;
position = "{228, 700}";
},
{
name = topleft;
position = "{19, 700}";
}
);
background = {
anchors = (
{
name = bottom;
position = "{233, 0}";
},
{
name = ogonek;
position = "{339, 0}";
},
{
name = top;
position = "{228, 700}";
},
{
name = topleft;
position = "{19, 700}";
}
);
hints = (
{
scale = "{1, -1}";
type = Corner;
name = _corner.rightSerif;
options = 1;
},
{
type = Corner;
name = _corner.leftSerif;
},
{
scale = "{1, -1}";
type = Corner;
name = _corner.rightSerif;
options = 1;
},
{
type = Corner;
name = _corner.rightSerif;
},
{
scale = "{1, -1}";
type = Corner;
name = _corner.leftSerif;
options = 1;
},
{
scale = "{1, -1}";
type = Corner;
name = _corner.rightSerif;
options = 1;
},
{
type = Corner;
name = _corner.leftSerif;
},
{
scale = "{1, -1}";
type = Corner;
name = _corner.rightSerif;
options = 1;
},
{
type = Corner;
name = _corner.leftSerif;
},
{
scale = "{1, -1}";
type = Corner;
name = _corner.rightSerif;
options = 1;
},
{
type = Corner;
name = _corner.leftSerif;
},
{
scale = "{1, -1}";
type = Corner;
name = _corner.rightSerif;
options = 1;
},
{
type = Corner;
name = _corner.leftSerif;
},
{
scale = "{1, -1}";
type = Corner;
name = _corner.rightSerif;
options = 1;
},
{
type = Corner;
name = _corner.leftSerif;
},
{
scale = "{1, -1}";
type = Corner;
name = _corner.rightSerif;
options = 1;
},
{
type = Corner;
name = _corner.leftSerif;
},
{
scale = "{1, -1}";
type = Corner;
name = _corner.rightSerif;
options = 1;
},
{
type = Corner;
name = _corner.leftSerif;
},
{
scale = "{1, -1}";
type = Corner;
name = _corner.rightSerif;
options = 1;
},
{
type = Corner;
name = _corner.leftSerif;
},
{
scale = "{1, -1}";
type = Corner;
name = _corner.rightSerif;
options = 1;
},
{
type = Corner;
name = _corner.leftSerif;
},
{
scale = "{1, -1}";
type = Corner;
name = _corner.rightSerif;
options = 1;
},
{
type = Corner;
name = _corner.leftSerif;
},
{
scale = "{1, -1}";
type = Corner;
name = _corner.rightSerif;
options = 1;
},
{
type = Corner;
name = _corner.leftSerif;
},
{
scale = "{1, -1}";
type = Corner;
name = _corner.rightSerif;
options = 1;
},
{
type = Corner;
name = _corner.leftSerif;
},
{
scale = "{1, -1}";
type = Corner;
name = _corner.rightSerif;
options = 1;
},
{
type = Corner;
name = _corner.leftSerif;
},
{
scale = "{1, -1}";
type = Corner;
name = _corner.rightSerif;
options = 1;
},
{
type = Corner;
name = _corner.leftSerif;
},
{
scale = "{1, -1}";
type = Corner;
name = _corner.rightSerif;
options = 1;
},
{
type = Corner;
name = _corner.leftSerif;
},
{
scale = "{1, -1}";
type = Corner;
name = _corner.rightSerif;
options = 1;
},
{
type = Corner;
name = _corner.leftSerif;
},
{
scale = "{1, -1}";
type = Corner;
name = _corner.rightSerif;
options = 1;
},
{
type = Corner;
name = _corner.leftSerif;
},
{
scale = "{1, -1}";
type = Corner;
name = _corner.rightSerif;
options = 1;
},
{
type = Corner;
name = _corner.leftSerif;
},
{
scale = "{1, -1}";
type = Corner;
name = _corner.rightSerif;
options = 1;
},
{
type = Corner;
name = _corner.leftSerif;
},
{
scale = "{1, -1}";
type = Corner;
name = _corner.rightSerif;
options = 1;
},
{
type = Corner;
name = _corner.leftSerif;
},
{
scale = "{1, -1}";
type = Corner;
name = _corner.rightSerif;
options = 1;
},
{
type = Corner;
name = _corner.leftSerif;
},
{
scale = "{1, -1}";
type = Corner;
name = _corner.leftSerif;
options = 1;
},
{
type = Corner;
name = _corner.leftSerif;
},
{
scale = "{1, -1}";
type = Corner;
name = _corner.leftSerif;
options = 1;
},
{
type = Corner;
name = _corner.leftSerif;
},
{
scale = "{1, -1}";
type = Corner;
name = _corner.leftSerif;
options = 1;
},
{
type = Corner;
name = _corner.leftSerif;
},
{
scale = "{1, -1}";
type = Corner;
name = _corner.leftSerif;
options = 1;
},
{
type = Corner;
name = _corner.leftSerif;
},
{
scale = "{1, -1}";
type = Corner;
name = _corner.leftSerif;
options = 1;
},
{
type = Corner;
name = _corner.leftSerif;
},
{
scale = "{1, -1}";
type = Corner;
name = _corner.leftSerif;
options = 1;
},
{
type = Corner;
name = _corner.leftSerif;
},
{
scale = "{1, -1}";
type = Corner;
name = _corner.leftSerif;
options = 1;
},
{
type = Corner;
name = _corner.leftSerif;
},
{
scale = "{1, -1}";
type = Corner;
name = _corner.leftSerif;
options = 1;
},
{
type = Corner;
name = _corner.leftSerif;
},
{
scale = "{1, -1}";
type = Corner;
name = _corner.leftSerif;
options = 1;
},
{
type = Corner;
name = _corner.leftSerif;
},
{
scale = "{1, -1}";
type = Corner;
name = _corner.leftSerif;
options = 1;
},
{
type = Corner;
name = _corner.leftSerif;
},
{
scale = "{1, -1}";
type = Corner;
name = _corner.leftSerif;
options = 1;
},
{
type = Corner;
name = _corner.leftSerif;
},
{
scale = "{1, -1}";
type = Corner;
name = _corner.leftSerif;
options = 1;
},
{
type = Corner;
name = _corner.leftSerif;
},
{
scale = "{1, -1}";
type = Corner;
name = _corner.leftSerif;
options = 1;
},
{
type = Corner;
name = _corner.leftSerif;
},
{
scale = "{1, -1}";
type = Corner;
name = _corner.leftSerif;
options = 1;
},
{
type = Corner;
name = _corner.leftSerif;
},
{
scale = "{1, -1}";
type = Corner;
name = _corner.leftSerif;
options = 1;
},
{
type = Corner;
name = _corner.leftSerif;
},
{
scale = "{1, -1}";
type = Corner;
name = _corner.leftSerif;
options = 1;
},
{
type = Corner;
name = _corner.leftSerif;
},
{
scale = "{1, -1}";
type = Corner;
name = _corner.leftSerif;
options = 1;
},
{
type = Corner;
name = _corner.leftSerif;
},
{
scale = "{1, -1}";
type = Corner;
name = _corner.leftSerif;
options = 1;
},
{
type = Corner;
name = _corner.leftSerif;
},
{
scale = "{1, -1}";
type = Corner;
name = _corner.leftSerif;
options = 1;
},
{
type = Corner;
name = _corner.leftSerif;
},
{
scale = "{1, -1}";
type = Corner;
name = _corner.leftSerif;
options = 1;
},
{
type = Corner;
name = _corner.leftSerif;
},
{
scale = "{1, -1}";
type = Corner;
name = _corner.leftSerif;
options = 1;
},
{
type = Corner;
name = _corner.leftSerif;
},
{
scale = "{1, -1}";
type = Corner;
name = _corner.leftSerif;
options = 1;
},
{
type = Corner;
name = _corner.leftSerif;
},
{
scale = "{1, -1}";
type = Corner;
name = _corner.leftSerif;
options = 1;
},
{
type = Corner;
name = _corner.leftSerif;
},
{
scale = "{1, -1}";
type = Corner;
name = _corner.leftSerif;
options = 1;
},
{
type = Corner;
name = _corner.leftSerif;
},
{
scale = "{1, -1}";
type = Corner;
name = _corner.leftSerif;
options = 1;
},
{
type = Corner;
name = _corner.leftSerif;
},
{
scale = "{1, -1}";
type = Corner;
name = _corner.leftSerif;
options = 1;
},
{
type = Corner;
name = _corner.leftSerif;
},
{
scale = "{1, -1}";
type = Corner;
name = _corner.leftSerif;
options = 1;
},
{
type = Corner;
name = _corner.leftSerif;
},
{
scale = "{1, -1}";
type = Corner;
name = _corner.leftSerif;
options = 1;
},
{
type = Corner;
name = _corner.leftSerif;
},
{
scale = "{1, -1}";
type = Corner;
name = _corner.leftSerif;
options = 1;
},
{
type = Corner;
name = _corner.leftSerif;
},
{
scale = "{1, -1}";
type = Corner;
name = _corner.leftSerif;
options = 1;
},
{
type = Corner;
name = _corner.leftSerif;
},
{
scale = "{1, -1}";
type = Corner;
name = _corner.leftSerif;
options = 1;
},
{
type = Corner;
name = _corner.leftSerif;
},
{
scale = "{1, -1}";
type = Corner;
name = _corner.leftSerif;
options = 1;
},
{
type = Corner;
name = _corner.leftSerif;
},
{
scale = "{1, -1}";
type = Corner;
name = _corner.leftSerif;
options = 1;
},
{
type = Corner;
name = _corner.leftSerif;
},
{
scale = "{1, -1}";
type = Corner;
name = _corner.leftSerif;
options = 1;
},
{
type = Corner;
name = _corner.leftSerif;
},
{
scale = "{1, -1}";
type = Corner;
name = _corner.leftSerif;
options = 1;
},
{
type = Corner;
name = _corner.leftSerif;
},
{
scale = "{1, -1}";
type = Corner;
name = _corner.leftSerif;
options = 1;
},
{
type = Corner;
name = _corner.leftSerif;
},
{
scale = "{1, -1}";
type = Corner;
name = _corner.leftSerif;
options = 1;
},
{
type = Corner;
name = _corner.leftSerif;
},
{
scale = "{1, -1}";
type = Corner;
name = _corner.leftSerif;
options = 1;
},
{
type = Corner;
name = _corner.leftSerif;
},
{
origin = "{0, 36}";
scale = "{1, -1}";
type = Corner;
name = _corner.leftSerif;
options = 1;
},
{
origin = "{0, 37}";
type = Corner;
name = _corner.leftSerif;
}
);
paths = (
{
closed = 1;
nodes = (
"385 -29 LINE",
"411 203 LINE",
"408 203 LINE",
"358 34 OFFCURVE",
"345 11 OFFCURVE",
"260 11 CURVE SMOOTH",
"223 11 LINE SMOOTH",
"165 11 OFFCURVE",
"149 26 OFFCURVE",
"149 86 CURVE SMOOTH",
"149 368 LINE",
"238 368 LINE SMOOTH",
"300 368 OFFCURVE",
"318 338 OFFCURVE",
"328 218 CURVE",
"333 218 LINE",
"333 525 LINE",
"328 525 LINE",
"319 408 OFFCURVE",
"301 379 OFFCURVE",
"238 379 CURVE SMOOTH",
"149 379 LINE",
"149 626 LINE SMOOTH",
"149 675 OFFCURVE",
"164 689 OFFCURVE",
"204 689 CURVE SMOOTH",
"260 689 LINE SMOOTH",
"336 689 OFFCURVE",
"349 669 OFFCURVE",
"400 519 CURVE",
"403 519 LINE",
"377 729 LINE",
"374 729 LINE",
"366 708 OFFCURVE",
"351 700 OFFCURVE",
"319 700 CURVE SMOOTH",
"95 700 LINE",
"95 0 LINE",
"327 0 LINE SMOOTH",
"359 0 OFFCURVE",
"374 -8 OFFCURVE",
"382 -29 CURVE"
);
}
);
};
hints = (
{
origin = "{0, 37}";
type = Corner;
name = _corner.leftSerif;
},
{
origin = "{0, 36}";
scale = "{1, -1}";
type = Corner;
name = _corner.leftSerif;
options = 1;
}
);
layerId = "11FB3604-FD70-4670-A6A6-DB9438128FDF";
paths = (
{
closed = 1;
nodes = (
"385 -29 LINE",
"411 203 LINE",
"408 203 LINE",
"358 34 OFFCURVE",
"345 11 OFFCURVE",
"260 11 CURVE SMOOTH",
"223 11 LINE SMOOTH",
"165 11 OFFCURVE",
"149 26 OFFCURVE",
"149 86 CURVE SMOOTH",
"149 368 LINE",
"238 368 LINE SMOOTH",
"300 368 OFFCURVE",
"318 338 OFFCURVE",
"328 218 CURVE",
"333 218 LINE",
"333 525 LINE",
"328 525 LINE",
"319 408 OFFCURVE",
"301 379 OFFCURVE",
"238 379 CURVE SMOOTH",
"149 379 LINE",
"149 626 LINE SMOOTH",
"149 675 OFFCURVE",
"164 689 OFFCURVE",
"204 689 CURVE SMOOTH",
"260 689 LINE SMOOTH",
"336 689 OFFCURVE",
"349 669 OFFCURVE",
"400 519 CURVE",
"403 519 LINE",
"377 729 LINE",
"374 729 LINE",
"366 708 OFFCURVE",
"351 700 OFFCURVE",
"319 700 CURVE SMOOTH",
"95 700 LINE",
"95 0 LINE",
"327 0 LINE SMOOTH",
"359 0 OFFCURVE",
"374 -8 OFFCURVE",
"382 -29 CURVE"
);
}
);
width = 444;
}
);
leftKerningGroup = H;
rightKerningGroup = E;
unicode = 0045;
},
{
glyphname = F;
lastChange = "2025-04-05 11:24:18 +0000";
layers = (
{
background = {
hints = (
{
scale = "{1, -1}";
type = Corner;
name = _corner.leftSerif;
options = 1;
},
{
scale = "{1, -1}";
type = Corner;
name = _corner.rightSerif;
options = 1;
},
{
type = Corner;
name = _corner.leftSerif;
},
{
scale = "{1, -1}";
type = Corner;
name = _corner.leftSerif;
options = 1;
},
{
scale = "{1, -1}";
type = Corner;
name = _corner.rightSerif;
options = 1;
},
{
type = Corner;
name = _corner.leftSerif;
},
{
scale = "{1, -1}";
type = Corner;
name = _corner.leftSerif;
options = 1;
},
{
scale = "{1, -1}";
type = Corner;
name = _corner.rightSerif;
options = 1;
},
{
type = Corner;
name = _corner.leftSerif;
},
{
scale = "{1, -1}";
type = Corner;
name = _corner.leftSerif;
options = 1;
},
{
scale = "{1, -1}";
type = Corner;
name = _corner.rightSerif;
options = 1;
},
{
type = Corner;
name = _corner.leftSerif;
},
{
scale = "{1, -1}";
type = Corner;
name = _corner.rightSerif;
options = 1;
},
{
type = Corner;
name = _corner.leftSerif;
},
{
scale = "{1, -1}";
type = Corner;
name = _corner.leftSerif;
options = 1;
},
{
scale = "{1, -1}";
type = Corner;
name = _corner.rightSerif;
options = 1;
},
{
type = Corner;
name = _corner.leftSerif;
},
{
scale = "{1, -1}";
type = Corner;
name = _corner.leftSerif;
options = 1;
},
{
scale = "{1, -1}";
type = Corner;
name = _corner.rightSerif;
options = 1;
},
{
type = Corner;
name = _corner.leftSerif;
},
{
scale = "{1, -1}";
type = Corner;
name = _corner.leftSerif;
options = 1;
},
{
scale = "{1, -1}";
type = Corner;
name = _corner.rightSerif;
options = 1;
},
{
type = Corner;
name = _corner.leftSerif;
},
{
scale = "{1, -1}";
type = Corner;
name = _corner.leftSerif;
options = 1;
},
{
scale = "{1, -1}";
type = Corner;
name = _corner.leftSerif;
options = 1;
},
{
type = Corner;
name = _corner.leftSerif;
},
{
scale = "{1, -1}";
type = Corner;
name = _corner.leftSerif;
options = 1;
},
{
type = Corner;
name = _corner.leftSerif;
},
{
scale = "{1, -1}";
type = Corner;
name = _corner.leftSerif;
options = 1;
},
{
scale = "{1, -1}";
type = Corner;
name = _corner.leftSerif;
options = 1;
},
{
scale = "{1, -1}";
type = Corner;
name = _corner.leftSerif;
options = 1;
},
{
type = Corner;
name = _corner.leftSerif;
},
{
scale = "{1, -1}";
type = Corner;
name = _corner.leftSerif;
options = 1;
},
{
scale = "{1, -1}";
type = Corner;
name = _corner.leftSerif;
options = 1;
},
{
type = Corner;
name = _corner.leftSerif;
},
{
scale = "{1, -1}";
type = Corner;
name = _corner.leftSerif;
options = 1;
},
{
scale = "{1, -1}";
type = Corner;
name = _corner.leftSerif;
options = 1;
},
{
type = Corner;
name = _corner.leftSerif;
},
{
scale = "{1, -1}";
type = Corner;
name = _corner.leftSerif;
options = 1;
},
{
scale = "{1, -1}";
type = Corner;
name = _corner.leftSerif;
options = 1;
},
{
type = Corner;
name = _corner.leftSerif;
},
{
scale = "{1, -1}";
type = Corner;
name = _corner.leftSerif;
options = 1;
},
{
scale = "{1, -1}";
type = Corner;
name = _corner.leftSerif;
options = 1;
},
{
type = Corner;
name = _corner.leftSerif;
},
{
scale = "{1, -1}";
type = Corner;
name = _corner.leftSerif;
options = 1;
},
{
type = Corner;
name = _corner.leftSerif;
},
{
scale = "{1, -1}";
type = Corner;
name = _corner.leftSerif;
options = 1;
},
{
scale = "{1, -1}";
type = Corner;
name = _corner.leftSerif;
options = 1;
},
{
type = Corner;
name = _corner.leftSerif;
},
{
scale = "{1, -1}";
type = Corner;
name = _corner.leftSerif;
options = 1;
},
{
type = Corner;
name = _corner.leftSerif;
},
{
scale = "{1, -1}";
type = Corner;
name = _corner.leftSerif;
options = 1;
},
{
scale = "{1, -1}";
type = Corner;
name = _corner.leftSerif;
options = 1;
},
{
type = Corner;
name = _corner.leftSerif;
},
{
scale = "{1, -1}";
type = Corner;
name = _corner.leftSerif;
options = 1;
},
{
type = Corner;
name = _corner.leftSerif;
},
{
scale = "{1, -1}";
type = Corner;
name = _corner.leftSerif;
options = 1;
},
{
scale = "{1, -1}";
type = Corner;
name = _corner.leftSerif;
options = 1;
},
{
type = Corner;
name = _corner.leftSerif;
},
{
scale = "{1, -1}";
type = Corner;
name = _corner.leftSerif;
options = 1;
},
{
type = Corner;
name = _corner.leftSerif;
},
{
scale = "{1, -1}";
type = Corner;
name = _corner.leftSerif;
options = 1;
},
{
type = Corner;
name = _corner.leftSerif;
},
{
scale = "{1, -1}";
type = Corner;
name = _corner.leftSerif;
options = 1;
},
{
type = Corner;
name = _corner.leftSerif;
},
{
scale = "{1, -1}";
type = Corner;
name = _corner.leftSerif;
options = 1;
},
{
type = Corner;
name = _corner.leftSerif;
},
{
scale = "{1, -1}";
type = Corner;
name = _corner.leftSerif;
options = 1;
},
{
type = Corner;
name = _corner.leftSerif;
},
{
scale = "{1, -1}";
type = Corner;
name = _corner.leftSerif;
options = 1;
},
{
type = Corner;
name = _corner.leftSerif;
},
{
scale = "{1, -1}";
type = Corner;
name = _corner.leftSerif;
options = 1;
},
{
type = Corner;
name = _corner.leftSerif;
},
{
scale = "{1, -1}";
type = Corner;
name = _corner.leftSerif;
options = 1;
},
{
type = Corner;
name = _corner.leftSerif;
},
{
origin = "{0, 31}";
scale = "{1, -1}";
type = Corner;
name = _corner.leftSerif;
options = 1;
},
{
origin = "{0, 32}";
type = Corner;
name = _corner.leftSerif;
}
);
paths = (
{
closed = 1;
nodes = (
"258 0 LINE",
"258 3 LINE",
"170 9 OFFCURVE",
"149 31 OFFCURVE",
"149 91 CURVE SMOOTH",
"149 367 LINE",
"236 367 LINE SMOOTH",
"298 367 OFFCURVE",
"316 337 OFFCURVE",
"326 217 CURVE",
"331 217 LINE",
"331 524 LINE",
"326 524 LINE",
"317 407 OFFCURVE",
"299 378 OFFCURVE",
"236 378 CURVE SMOOTH",
"149 378 LINE",
"149 620 LINE SMOOTH",
"149 671 OFFCURVE",
"163 689 OFFCURVE",
"203 689 CURVE SMOOTH",
"254 689 LINE SMOOTH",
"326 689 OFFCURVE",
"351 654 OFFCURVE",
"393 509 CURVE",
"396 509 LINE",
"368 729 LINE",
"365 729 LINE",
"357 708 OFFCURVE",
"342 700 OFFCURVE",
"310 700 CURVE SMOOTH",
"95 700 LINE",
"95 0 LINE"
);
}
);
};
hints = (
{
origin = "{0, 32}";
type = Corner;
name = _corner.leftSerif;
},
{
origin = "{0, 31}";
scale = "{1, -1}";
type = Corner;
name = _corner.leftSerif;
options = 1;
}
);
layerId = "11FB3604-FD70-4670-A6A6-DB9438128FDF";
paths = (
{
closed = 1;
nodes = (
"258 0 LINE",
"258 3 LINE",
"170 9 OFFCURVE",
"149 31 OFFCURVE",
"149 91 CURVE SMOOTH",
"149 367 LINE",
"236 367 LINE SMOOTH",
"298 367 OFFCURVE",
"316 337 OFFCURVE",
"326 217 CURVE",
"331 217 LINE",
"331 524 LINE",
"326 524 LINE",
"317 407 OFFCURVE",
"299 378 OFFCURVE",
"236 378 CURVE SMOOTH",
"149 378 LINE",
"149 620 LINE SMOOTH",
"149 671 OFFCURVE",
"163 689 OFFCURVE",
"203 689 CURVE SMOOTH",
"254 689 LINE SMOOTH",
"326 689 OFFCURVE",
"351 654 OFFCURVE",
"393 509 CURVE",
"396 509 LINE",
"368 729 LINE",
"365 729 LINE",
"357 708 OFFCURVE",
"342 700 OFFCURVE",
"310 700 CURVE SMOOTH",
"95 700 LINE",
"95 0 LINE"
);
}
);
width = 414;
}
);
leftKerningGroup = H;
unicode = 0046;
},
{
glyphname = G;
lastChange = "2025-04-05 11:24:18 +0000";
layers = (
{
anchors = (
{
name = bottom;
position = "{234, 0}";
},
{
name = top;
position = "{251, 700}";
}
);
background = {
anchors = (
{
name = bottom;
position = "{234, 0}";
},
{
name = top;
position = "{251, 700}";
}
);
hints = (
{
type = Corner;
name = _corner.leftSerif;
},
{
scale = "{1, -1}";
type = Corner;
name = _corner.rightSerif;
options = 1;
},
{
type = Corner;
name = _corner.leftSerif;
},
{
scale = "{1, -1}";
type = Corner;
name = _corner.rightSerif;
options = 1;
},
{
type = Corner;
name = _corner.leftSerif;
},
{
scale = "{1, -1}";
type = Corner;
name = _corner.rightSerif;
options = 1;
},
{
type = Corner;
name = _corner.leftSerif;
},
{
scale = "{1, -1}";
type = Corner;
name = _corner.rightSerif;
options = 1;
},
{
type = Corner;
name = _corner.leftSerif;
},
{
scale = "{1, -1}";
type = Corner;
name = _corner.rightSerif;
options = 1;
},
{
type = Corner;
name = _corner.leftSerif;
},
{
scale = "{1, -1}";
type = Corner;
name = _corner.rightSerif;
options = 1;
},
{
type = Corner;
name = _corner.leftSerif;
},
{
scale = "{1, -1}";
type = Corner;
name = _corner.rightSerif;
options = 1;
},
{
type = Corner;
name = _corner.leftSerif;
},
{
scale = "{1, -1}";
type = Corner;
name = _corner.rightSerif;
options = 1;
},
{
type = Corner;
name = _corner.leftSerif;
},
{
scale = "{1, -1}";
type = Corner;
name = _corner.rightSerif;
options = 1;
},
{
type = Corner;
name = _corner.leftSerif;
},
{
scale = "{1, -1}";
type = Corner;
name = _corner.rightSerif;
options = 1;
},
{
type = Corner;
name = _corner.leftSerif;
},
{
scale = "{1, -1}";
type = Corner;
name = _corner.rightSerif;
options = 1;
},
{
type = Corner;
name = _corner.leftSerif;
},
{
scale = "{1, -1}";
type = Corner;
name = _corner.rightSerif;
options = 1;
},
{
type = Corner;
name = _corner.leftSerif;
},
{
scale = "{1, -1}";
type = Corner;
name = _corner.rightSerif;
options = 1;
},
{
type = Corner;
name = _corner.leftSerif;
},
{
scale = "{1, -1}";
type = Corner;
name = _corner.rightSerif;
options = 1;
},
{
type = Corner;
name = _corner.leftSerif;
},
{
scale = "{1, -1}";
type = Corner;
name = _corner.rightSerif;
options = 1;
},
{
type = Corner;
name = _corner.leftSerif;
},
{
scale = "{1, -1}";
type = Corner;
name = _corner.rightSerif;
options = 1;
},
{
type = Corner;
name = _corner.leftSerif;
},
{
scale = "{1, -1}";
type = Corner;
name = _corner.rightSerif;
options = 1;
},
{
type = Corner;
name = _corner.leftSerif;
},
{
scale = "{1, -1}";
type = Corner;
name = _corner.rightSerif;
options = 1;
},
{
type = Corner;
name = _corner.leftSerif;
},
{
scale = "{1, -1}";
type = Corner;
name = _corner.rightSerif;
options = 1;
},
{
type = Corner;
name = _corner.leftSerif;
},
{
scale = "{1, -1}";
type = Corner;
name = _corner.rightSerif;
options = 1;
},
{
type = Corner;
name = _corner.leftSerif;
},
{
scale = "{1, -1}";
type = Corner;
name = _corner.rightSerif;
options = 1;
},
{
type = Corner;
name = _corner.leftSerif;
},
{
scale = "{1, -1}";
type = Corner;
name = _corner.rightSerif;
options = 1;
},
{
type = Corner;
name = _corner.leftSerif;
},
{
scale = "{1, -1}";
type = Corner;
name = _corner.rightSerif;
options = 1;
},
{
type = Corner;
name = _corner.leftSerif;
},
{
scale = "{1, -1}";
type = Corner;
name = _corner.rightSerif;
options = 1;
},
{
type = Corner;
name = _corner.leftSerif;
},
{
scale = "{1, -1}";
type = Corner;
name = _corner.rightSerif;
options = 1;
},
{
type = Corner;
name = _corner.leftSerif;
},
{
scale = "{1, -1}";
type = Corner;
name = _corner.rightSerif;
options = 1;
},
{
type = Corner;
name = _corner.leftSerif;
},
{
scale = "{1, -1}";
type = Corner;
name = _corner.rightSerif;
options = 1;
},
{
type = Corner;
name = _corner.leftSerif;
},
{
scale = "{1, -1}";
type = Corner;
name = _corner.rightSerif;
options = 1;
},
{
scale = "{1, -1}";
type = Corner;
name = _corner.leftSerif;
options = 1;
},
{
scale = "{1, -1}";
type = Corner;
name = _corner.leftSerif;
options = 1;
},
{
type = Corner;
name = _corner.leftSerif;
},
{
type = Corner;
name = _corner.leftSerif;
},
{
scale = "{1, -1}";
type = Corner;
name = _corner.rightSerif;
options = 1;
},
{
type = Corner;
name = _corner.leftSerif;
},
{
scale = "{1, -1}";
type = Corner;
name = _corner.rightSerif;
options = 1;
},
{
type = Corner;
name = _corner.leftSerif;
},
{
scale = "{1, -1}";
type = Corner;
name = _corner.rightSerif;
options = 1;
},
{
type = Corner;
name = _corner.leftSerif;
},
{
scale = "{1, -1}";
type = Corner;
name = _corner.rightSerif;
options = 1;
},
{
type = Corner;
name = _corner.rightSerif;
},
{
scale = "{1, -1}";
type = Corner;
name = _corner.leftSerif;
options = 1;
},
{
type = Corner;
name = _corner.rightSerif;
},
{
scale = "{1, -1}";
type = Corner;
name = _corner.leftSerif;
options = 1;
},
{
type = Corner;
name = _corner.rightSerif;
},
{
scale = "{1, -1}";
type = Corner;
name = _corner.leftSerif;
options = 1;
},
{
type = Corner;
name = _corner.rightSerif;
},
{
scale = "{1, -1}";
type = Corner;
name = _corner.leftSerif;
options = 1;
},
{
type = Corner;
name = _corner.rightSerif;
},
{
scale = "{1, -1}";
type = Corner;
name = _corner.leftSerif;
options = 1;
},
{
type = Corner;
name = _corner.rightSerif;
},
{
scale = "{1, -1}";
type = Corner;
name = _corner.leftSerif;
options = 1;
},
{
type = Corner;
name = _corner.rightSerif;
},
{
scale = "{1, -1}";
type = Corner;
name = _corner.leftSerif;
options = 1;
},
{
type = Corner;
name = _corner.rightSerif;
},
{
scale = "{1, -1}";
type = Corner;
name = _corner.leftSerif;
options = 1;
},
{
type = Corner;
name = _corner.rightSerif;
},
{
scale = "{1, -1}";
type = Corner;
name = _corner.leftSerif;
options = 1;
},
{
scale = "{0.95, 1}";
type = Corner;
name = _corner.rightSerif;
},
{
scale = "{1, -1}";
type = Corner;
name = _corner.leftSerif;
options = 1;
},
{
origin = "{0, 6}";
scale = "{0.95, 1}";
type = Corner;
name = _corner.rightSerif;
},
{
origin = "{0, 7}";
scale = "{1, -1}";
type = Corner;
name = _corner.leftSerif;
options = 1;
}
);
paths = (
{
closed = 1;
nodes = (
"295 -8 OFFCURVE",
"347 27 OFFCURVE",
"371 145 CURVE",
"347 145 LINE",
"390 -7 LINE",
"394 -7 LINE",
"394 314 LINE",
"344 314 LINE",
"344 212 LINE SMOOTH",
"344 68 OFFCURVE",
"304 4 OFFCURVE",
"245 4 CURVE SMOOTH",
"158 4 OFFCURVE",
"106 142 OFFCURVE",
"106 352 CURVE SMOOTH",
"106 563 OFFCURVE",
"165 696 OFFCURVE",
"260 696 CURVE SMOOTH",
"324 696 OFFCURVE",
"359 635 OFFCURVE",
"410 457 CURVE",
"413 457 LINE",
"380 715 LINE",
"377 715 LINE",
"372 696 OFFCURVE",
"364 688 OFFCURVE",
"349 688 CURVE SMOOTH",
"326 688 OFFCURVE",
"300 708 OFFCURVE",
"254 708 CURVE SMOOTH",
"132 708 OFFCURVE",
"46 566 OFFCURVE",
"46 352 CURVE SMOOTH",
"46 140 OFFCURVE",
"125 -8 OFFCURVE",
"239 -8 CURVE SMOOTH"
);
}
);
};
hints = (
{
origin = "{0, 6}";
scale = "{0.95, 1}";
type = Corner;
name = _corner.rightSerif;
},
{
origin = "{0, 7}";
scale = "{1, -1}";
type = Corner;
name = _corner.leftSerif;
options = 1;
}
);
layerId = "11FB3604-FD70-4670-A6A6-DB9438128FDF";
paths = (
{
closed = 1;
nodes = (
"295 -8 OFFCURVE",
"347 27 OFFCURVE",
"371 145 CURVE",
"347 145 LINE",
"390 -7 LINE",
"394 -7 LINE",
"394 314 LINE",
"344 314 LINE",
"344 212 LINE SMOOTH",
"344 68 OFFCURVE",
"304 4 OFFCURVE",
"245 4 CURVE SMOOTH",
"158 4 OFFCURVE",
"106 142 OFFCURVE",
"106 352 CURVE SMOOTH",
"106 563 OFFCURVE",
"165 696 OFFCURVE",
"260 696 CURVE SMOOTH",
"324 696 OFFCURVE",
"359 635 OFFCURVE",
"410 457 CURVE",
"413 457 LINE",
"380 715 LINE",
"377 715 LINE",
"372 696 OFFCURVE",
"364 688 OFFCURVE",
"349 688 CURVE SMOOTH",
"326 688 OFFCURVE",
"300 708 OFFCURVE",
"254 708 CURVE SMOOTH",
"132 708 OFFCURVE",
"46 566 OFFCURVE",
"46 352 CURVE SMOOTH",
"46 140 OFFCURVE",
"125 -8 OFFCURVE",
"239 -8 CURVE SMOOTH"
);
}
);
width = 468;
}
);
leftKerningGroup = O;
leftMetricsKey = O;
unicode = 0047;
},
{
glyphname = H;
lastChange = "2025-04-05 11:24:18 +0000";
layers = (
{
anchors = (
{
name = bottom;
position = "{267, 0}";
},
{
name = center;
position = "{267, 525}";
},
{
name = top;
position = "{267, 700}";
},
{
name = topleft;
position = "{20, 700}";
}
);
background = {
anchors = (
{
name = bottom;
position = "{267, 0}";
},
{
name = center;
position = "{267, 525}";
},
{
name = top;
position = "{267, 700}";
},
{
name = topleft;
position = "{20, 700}";
}
);
hints = (
{
scale = "{1, -1}";
type = Corner;
name = _corner.rightSerif;
options = 1;
},
{
type = Corner;
name = _corner.leftSerif;
},
{
scale = "{1, -1}";
type = Corner;
name = _corner.rightSerif;
options = 1;
},
{
type = Corner;
name = _corner.leftSerif;
},
{
scale = "{1, -1}";
type = Corner;
name = _corner.rightSerif;
options = 1;
},
{
type = Corner;
name = _corner.leftSerif;
},
{
scale = "{1, -1}";
type = Corner;
name = _corner.rightSerif;
options = 1;
},
{
type = Corner;
name = _corner.leftSerif;
},
{
scale = "{1, -1}";
type = Corner;
name = _corner.rightSerif;
options = 1;
},
{
type = Corner;
name = _corner.leftSerif;
},
{
scale = "{1, -1}";
type = Corner;
name = _corner.rightSerif;
options = 1;
},
{
type = Corner;
name = _corner.leftSerif;
},
{
scale = "{1, -1}";
type = Corner;
name = _corner.rightSerif;
options = 1;
},
{
type = Corner;
name = _corner.leftSerif;
},
{
scale = "{1, -1}";
type = Corner;
name = _corner.rightSerif;
options = 1;
},
{
type = Corner;
name = _corner.leftSerif;
},
{
scale = "{1, -1}";
type = Corner;
name = _corner.rightSerif;
options = 1;
},
{
type = Corner;
name = _corner.leftSerif;
},
{
scale = "{1, -1}";
type = Corner;
name = _corner.rightSerif;
options = 1;
},
{
type = Corner;
name = _corner.leftSerif;
},
{
scale = "{1, -1}";
type = Corner;
name = _corner.rightSerif;
options = 1;
},
{
type = Corner;
name = _corner.leftSerif;
},
{
scale = "{1, -1}";
type = Corner;
name = _corner.rightSerif;
options = 1;
},
{
type = Corner;
name = _corner.leftSerif;
},
{
scale = "{1, -1}";
type = Corner;
name = _corner.rightSerif;
options = 1;
},
{
type = Corner;
name = _corner.leftSerif;
},
{
scale = "{1, -1}";
type = Corner;
name = _corner.rightSerif;
options = 1;
},
{
type = Corner;
name = _corner.leftSerif;
},
{
scale = "{1, -1}";
type = Corner;
name = _corner.rightSerif;
options = 1;
},
{
type = Corner;
name = _corner.leftSerif;
},
{
scale = "{1, -1}";
type = Corner;
name = _corner.rightSerif;
options = 1;
},
{
type = Corner;
name = _corner.leftSerif;
},
{
scale = "{1, -1}";
type = Corner;
name = _corner.rightSerif;
options = 1;
},
{
type = Corner;
name = _corner.leftSerif;
},
{
scale = "{1, -1}";
type = Corner;
name = _corner.rightSerif;
options = 1;
},
{
type = Corner;
name = _corner.leftSerif;
},
{
scale = "{1, -1}";
type = Corner;
name = _corner.rightSerif;
options = 1;
},
{
type = Corner;
name = _corner.leftSerif;
},
{
scale = "{1, -1}";
type = Corner;
name = _corner.rightSerif;
options = 1;
},
{
type = Corner;
name = _corner.leftSerif;
},
{
scale = "{1, -1}";
type = Corner;
name = _corner.rightSerif;
options = 1;
},
{
type = Corner;
name = _corner.leftSerif;
},
{
scale = "{1, -1}";
type = Corner;
name = _corner.rightSerif;
options = 1;
},
{
type = Corner;
name = _corner.leftSerif;
},
{
scale = "{1, -1}";
type = Corner;
name = _corner.rightSerif;
options = 1;
},
{
type = Corner;
name = _corner.leftSerif;
},
{
scale = "{1, -1}";
type = Corner;
name = _corner.rightSerif;
options = 1;
},
{
type = Corner;
name = _corner.leftSerif;
},
{
scale = "{1, -1}";
type = Corner;
name = _corner.rightSerif;
options = 1;
},
{
type = Corner;
name = _corner.leftSerif;
},
{
scale = "{1, -1}";
type = Corner;
name = _corner.rightSerif;
options = 1;
},
{
type = Corner;
name = _corner.leftSerif;
},
{
scale = "{1, -1}";
type = Corner;
name = _corner.rightSerif;
options = 1;
},
{
type = Corner;
name = _corner.leftSerif;
},
{
scale = "{1, -1}";
type = Corner;
name = _corner.rightSerif;
options = 1;
},
{
type = Corner;
name = _corner.leftSerif;
},
{
scale = "{1, -1}";
type = Corner;
name = _corner.rightSerif;
options = 1;
},
{
type = Corner;
name = _corner.leftSerif;
},
{
scale = "{1, -1}";
type = Corner;
name = _corner.rightSerif;
options = 1;
},
{
type = Corner;
name = _corner.leftSerif;
},
{
scale = "{1, -1}";
type = Corner;
name = _corner.rightSerif;
options = 1;
},
{
type = Corner;
name = _corner.leftSerif;
},
{
scale = "{1, -1}";
type = Corner;
name = _corner.rightSerif;
options = 1;
},
{
type = Corner;
name = _corner.leftSerif;
},
{
scale = "{1, -1}";
type = Corner;
name = _corner.leftSerif;
options = 1;
},
{
type = Corner;
name = _corner.leftSerif;
},
{
scale = "{1, -1}";
type = Corner;
name = _corner.rightSerif;
options = 1;
},
{
type = Corner;
name = _corner.rightSerif;
},
{
scale = "{1, -1}";
type = Corner;
name = _corner.rightSerif;
options = 1;
},
{
type = Corner;
name = _corner.rightSerif;
},
{
scale = "{1, -1}";
type = Corner;
name = _corner.leftSerif;
options = 1;
},
{
type = Corner;
name = _corner.leftSerif;
},
{
scale = "{1, -1}";
type = Corner;
name = _corner.leftSerif;
options = 1;
},
{
type = Corner;
name = _corner.leftSerif;
},
{
scale = "{1, -1}";
type = Corner;
name = _corner.rightSerif;
options = 1;
},
{
type = Corner;
name = _corner.rightSerif;
},
{
scale = "{1, -1}";
type = Corner;
name = _corner.rightSerif;
options = 1;
},
{
type = Corner;
name = _corner.rightSerif;
},
{
scale = "{1, -1}";
type = Corner;
name = _corner.leftSerif;
options = 1;
},
{
type = Corner;
name = _corner.leftSerif;
},
{
scale = "{1, -1}";
type = Corner;
name = _corner.leftSerif;
options = 1;
},
{
type = Corner;
name = _corner.leftSerif;
},
{
scale = "{1, -1}";
type = Corner;
name = _corner.rightSerif;
options = 1;
},
{
type = Corner;
name = _corner.rightSerif;
},
{
scale = "{1, -1}";
type = Corner;
name = _corner.rightSerif;
options = 1;
},
{
type = Corner;
name = _corner.rightSerif;
},
{
scale = "{1, -1}";
type = Corner;
name = _corner.leftSerif;
options = 1;
},
{
type = Corner;
name = _corner.leftSerif;
},
{
scale = "{1, -1}";
type = Corner;
name = _corner.leftSerif;
options = 1;
},
{
type = Corner;
name = _corner.leftSerif;
},
{
scale = "{1, -1}";
type = Corner;
name = _corner.rightSerif;
options = 1;
},
{
type = Corner;
name = _corner.rightSerif;
},
{
scale = "{1, -1}";
type = Corner;
name = _corner.rightSerif;
options = 1;
},
{
type = Corner;
name = _corner.rightSerif;
},
{
scale = "{1, -1}";
type = Corner;
name = _corner.leftSerif;
options = 1;
},
{
type = Corner;
name = _corner.leftSerif;
},
{
scale = "{1, -1}";
type = Corner;
name = _corner.leftSerif;
options = 1;
},
{
type = Corner;
name = _corner.leftSerif;
},
{
scale = "{1, -1}";
type = Corner;
name = _corner.rightSerif;
options = 1;
},
{
type = Corner;
name = _corner.rightSerif;
},
{
scale = "{1, -1}";
type = Corner;
name = _corner.rightSerif;
options = 1;
},
{
type = Corner;
name = _corner.rightSerif;
},
{
scale = "{1, -1}";
type = Corner;
name = _corner.leftSerif;
options = 1;
},
{
type = Corner;
name = _corner.leftSerif;
},
{
scale = "{1, -1}";
type = Corner;
name = _corner.leftSerif;
options = 1;
},
{
type = Corner;
name = _corner.leftSerif;
},
{
scale = "{1, -1}";
type = Corner;
name = _corner.rightSerif;
options = 1;
},
{
type = Corner;
name = _corner.rightSerif;
},
{
scale = "{1, -1}";
type = Corner;
name = _corner.rightSerif;
options = 1;
},
{
type = Corner;
name = _corner.rightSerif;
},
{
scale = "{1, -1}";
type = Corner;
name = _corner.leftSerif;
options = 1;
},
{
type = Corner;
name = _corner.leftSerif;
},
{
scale = "{1, -1}";
type = Corner;
name = _corner.leftSerif;
options = 1;
},
{
type = Corner;
name = _corner.leftSerif;
},
{
scale = "{1, -1}";
type = Corner;
name = _corner.rightSerif;
options = 1;
},
{
type = Corner;
name = _corner.rightSerif;
},
{
scale = "{1, -1}";
type = Corner;
name = _corner.rightSerif;
options = 1;
},
{
type = Corner;
name = _corner.rightSerif;
},
{
scale = "{1, -1}";
type = Corner;
name = _corner.leftSerif;
options = 1;
},
{
type = Corner;
name = _corner.leftSerif;
},
{
scale = "{1, -1}";
type = Corner;
name = _corner.leftSerif;
options = 1;
},
{
type = Corner;
name = _corner.leftSerif;
},
{
scale = "{1, -1}";
type = Corner;
name = _corner.rightSerif;
options = 1;
},
{
type = Corner;
name = _corner.rightSerif;
},
{
scale = "{1, -1}";
type = Corner;
name = _corner.rightSerif;
options = 1;
},
{
type = Corner;
name = _corner.rightSerif;
},
{
scale = "{1, -1}";
type = Corner;
name = _corner.leftSerif;
options = 1;
},
{
type = Corner;
name = _corner.leftSerif;
},
{
scale = "{1, -1}";
type = Corner;
name = _corner.leftSerif;
options = 1;
},
{
type = Corner;
name = _corner.leftSerif;
},
{
scale = "{1, -1}";
type = Corner;
name = _corner.rightSerif;
options = 1;
},
{
type = Corner;
name = _corner.rightSerif;
},
{
scale = "{1, -1}";
type = Corner;
name = _corner.rightSerif;
options = 1;
},
{
type = Corner;
name = _corner.rightSerif;
},
{
scale = "{1, -1}";
type = Corner;
name = _corner.leftSerif;
options = 1;
},
{
type = Corner;
name = _corner.leftSerif;
},
{
scale = "{1, -1}";
type = Corner;
name = _corner.leftSerif;
options = 1;
},
{
type = Corner;
name = _corner.leftSerif;
},
{
scale = "{1, -1}";
type = Corner;
name = _corner.rightSerif;
options = 1;
},
{
type = Corner;
name = _corner.rightSerif;
},
{
scale = "{1, -1}";
type = Corner;
name = _corner.rightSerif;
options = 1;
},
{
type = Corner;
name = _corner.rightSerif;
},
{
scale = "{1, -1}";
type = Corner;
name = _corner.leftSerif;
options = 1;
},
{
type = Corner;
name = _corner.leftSerif;
},
{
scale = "{1, -1}";
type = Corner;
name = _corner.leftSerif;
options = 1;
},
{
type = Corner;
name = _corner.leftSerif;
},
{
scale = "{1, -1}";
type = Corner;
name = _corner.rightSerif;
options = 1;
},
{
type = Corner;
name = _corner.rightSerif;
},
{
scale = "{1, -1}";
type = Corner;
name = _corner.rightSerif;
options = 1;
},
{
type = Corner;
name = _corner.rightSerif;
},
{
scale = "{1, -1}";
type = Corner;
name = _corner.leftSerif;
options = 1;
},
{
type = Corner;
name = _corner.leftSerif;
},
{
scale = "{1, -1}";
type = Corner;
name = _corner.leftSerif;
options = 1;
},
{
type = Corner;
name = _corner.leftSerif;
},
{
scale = "{1, -1}";
type = Corner;
name = _corner.rightSerif;
options = 1;
},
{
type = Corner;
name = _corner.rightSerif;
},
{
scale = "{1, -1}";
type = Corner;
name = _corner.rightSerif;
options = 1;
},
{
type = Corner;
name = _corner.rightSerif;
},
{
scale = "{1, -1}";
type = Corner;
name = _corner.leftSerif;
options = 1;
},
{
type = Corner;
name = _corner.leftSerif;
},
{
scale = "{1, -1}";
type = Corner;
name = _corner.leftSerif;
options = 1;
},
{
type = Corner;
name = _corner.leftSerif;
},
{
scale = "{1, -1}";
type = Corner;
name = _corner.rightSerif;
options = 1;
},
{
type = Corner;
name = _corner.rightSerif;
},
{
scale = "{1, -1}";
type = Corner;
name = _corner.rightSerif;
options = 1;
},
{
type = Corner;
name = _corner.rightSerif;
},
{
scale = "{1, -1}";
type = Corner;
name = _corner.leftSerif;
options = 1;
},
{
type = Corner;
name = _corner.leftSerif;
},
{
origin = "{0, 0}";
scale = "{1, -1}";
type = Corner;
name = _corner.leftSerif;
options = 1;
},
{
origin = "{0, 1}";
type = Corner;
name = _corner.leftSerif;
},
{
origin = "{0, 2}";
scale = "{1, -1}";
type = Corner;
name = _corner.rightSerif;
options = 1;
},
{
origin = "{0, 3}";
type = Corner;
name = _corner.rightSerif;
},
{
origin = "{1, 0}";
scale = "{1, -1}";
type = Corner;
name = _corner.rightSerif;
options = 1;
},
{
origin = "{1, 1}";
type = Corner;
name = _corner.rightSerif;
},
{
origin = "{1, 2}";
scale = "{1, -1}";
type = Corner;
name = _corner.leftSerif;
options = 1;
},
{
origin = "{1, 3}";
type = Corner;
name = _corner.leftSerif;
}
);
paths = (
{
closed = 1;
nodes = (
"439 0 LINE",
"439 700 LINE",
"385 700 LINE",
"385 0 LINE"
);
},
{
closed = 1;
nodes = (
"149 0 LINE",
"149 700 LINE",
"95 700 LINE",
"95 0 LINE"
);
},
{
closed = 1;
nodes = (
"407 366 LINE",
"407 378 LINE",
"129 378 LINE",
"129 366 LINE"
);
}
);
};
hints = (
{
origin = "{0, 0}";
scale = "{1, -1}";
type = Corner;
name = _corner.leftSerif;
options = 1;
},
{
origin = "{0, 1}";
type = Corner;
name = _corner.leftSerif;
},
{
origin = "{0, 2}";
scale = "{1, -1}";
type = Corner;
name = _corner.rightSerif;
options = 1;
},
{
origin = "{0, 3}";
type = Corner;
name = _corner.rightSerif;
},
{
origin = "{1, 0}";
scale = "{1, -1}";
type = Corner;
name = _corner.rightSerif;
options = 1;
},
{
origin = "{1, 1}";
type = Corner;
name = _corner.rightSerif;
},
{
origin = "{1, 2}";
scale = "{1, -1}";
type = Corner;
name = _corner.leftSerif;
options = 1;
},
{
origin = "{1, 3}";
type = Corner;
name = _corner.leftSerif;
}
);
layerId = "11FB3604-FD70-4670-A6A6-DB9438128FDF";
paths = (
{
closed = 1;
nodes = (
"439 0 LINE",
"439 700 LINE",
"385 700 LINE",
"385 0 LINE"
);
},
{
closed = 1;
nodes = (
"149 0 LINE",
"149 700 LINE",
"95 700 LINE",
"95 0 LINE"
);
},
{
closed = 1;
nodes = (
"407 366 LINE",
"407 378 LINE",
"129 378 LINE",
"129 366 LINE"
);
}
);
width = 534;
}
);
leftKerningGroup = H;
rightKerningGroup = H;
unicode = 0048;
},
{
glyphname = I;
lastChange = "2025-04-05 11:24:18 +0000";
layers = (
{
anchors = (
{
name = bottom;
position = "{122, 0}";
},
{
name = ogonek;
position = "{149, 0}";
},
{
name = top;
position = "{122, 700}";
},
{
name = topleft;
position = "{20, 700}";
}
);
background = {
anchors = (
{
name = bottom;
position = "{122, 0}";
},
{
name = ogonek;
position = "{149, 0}";
},
{
name = top;
position = "{122, 700}";
},
{
name = topleft;
position = "{20, 700}";
}
);
hints = (
{
scale = "{1, -1}";
type = Corner;
name = _corner.rightSerif;
options = 1;
},
{
type = Corner;
name = _corner.leftSerif;
},
{
scale = "{1, -1}";
type = Corner;
name = _corner.rightSerif;
options = 1;
},
{
type = Corner;
name = _corner.leftSerif;
},
{
scale = "{1, -1}";
type = Corner;
name = _corner.rightSerif;
options = 1;
},
{
type = Corner;
name = _corner.leftSerif;
},
{
scale = "{1, -1}";
type = Corner;
name = _corner.rightSerif;
options = 1;
},
{
type = Corner;
name = _corner.leftSerif;
},
{
scale = "{1, -1}";
type = Corner;
name = _corner.rightSerif;
options = 1;
},
{
type = Corner;
name = _corner.leftSerif;
},
{
scale = "{1, -1}";
type = Corner;
name = _corner.rightSerif;
options = 1;
},
{
type = Corner;
name = _corner.leftSerif;
},
{
scale = "{1, -1}";
type = Corner;
name = _corner.rightSerif;
options = 1;
},
{
type = Corner;
name = _corner.leftSerif;
},
{
scale = "{1, -1}";
type = Corner;
name = _corner.leftSerif;
options = 1;
},
{
type = Corner;
name = _corner.leftSerif;
},
{
scale = "{1, -1}";
type = Corner;
name = _corner.leftSerif;
options = 1;
},
{
type = Corner;
name = _corner.leftSerif;
},
{
scale = "{1, -1}";
type = Corner;
name = _corner.leftSerif;
options = 1;
},
{
type = Corner;
name = _corner.leftSerif;
},
{
scale = "{1, -1}";
type = Corner;
name = _corner.leftSerif;
options = 1;
},
{
type = Corner;
name = _corner.leftSerif;
},
{
scale = "{1, -1}";
type = Corner;
name = _corner.leftSerif;
options = 1;
},
{
type = Corner;
name = _corner.leftSerif;
},
{
origin = "{0, 0}";
scale = "{1, -1}";
type = Corner;
name = _corner.leftSerif;
options = 1;
},
{
origin = "{0, 1}";
type = Corner;
name = _corner.leftSerif;
},
{
origin = "{0, 2}";
scale = "{1, -1}";
type = Corner;
name = _corner.leftSerif;
options = 1;
},
{
origin = "{0, 3}";
type = Corner;
name = _corner.leftSerif;
}
);
paths = (
{
closed = 1;
nodes = (
"149 0 LINE",
"149 700 LINE",
"95 700 LINE",
"95 0 LINE"
);
}
);
};
hints = (
{
origin = "{0, 1}";
type = Corner;
name = _corner.leftSerif;
},
{
origin = "{0, 3}";
type = Corner;
name = _corner.leftSerif;
},
{
origin = "{0, 2}";
scale = "{1, -1}";
type = Corner;
name = _corner.leftSerif;
options = 1;
},
{
origin = "{0, 0}";
scale = "{1, -1}";
type = Corner;
name = _corner.leftSerif;
options = 1;
}
);
layerId = "11FB3604-FD70-4670-A6A6-DB9438128FDF";
paths = (
{
closed = 1;
nodes = (
"149 0 LINE",
"149 700 LINE",
"95 700 LINE",
"95 0 LINE"
);
}
);
width = 244;
}
);
leftKerningGroup = H;
rightKerningGroup = H;
unicode = 0049;
},
{
glyphname = J;
lastChange = "2025-04-05 11:24:18 +0000";
layers = (
{
anchors = (
{
name = bottom;
position = "{123, 0}";
},
{
name = top;
position = "{123, 700}";
}
);
background = {
anchors = (
{
name = bottom;
position = "{123, 0}";
},
{
name = top;
position = "{123, 700}";
}
);
hints = (
{
type = Corner;
name = _corner.leftSerif;
},
{
scale = "{1, -1}";
type = Corner;
name = _corner.rightSerif;
options = 1;
},
{
type = Corner;
name = _corner.leftSerif;
},
{
scale = "{1, -1}";
type = Corner;
name = _corner.rightSerif;
options = 1;
},
{
type = Corner;
name = _corner.leftSerif;
},
{
scale = "{1, -1}";
type = Corner;
name = _corner.rightSerif;
options = 1;
},
{
type = Corner;
name = _corner.leftSerif;
},
{
scale = "{1, -1}";
type = Corner;
name = _corner.rightSerif;
options = 1;
},
{
type = Corner;
name = _corner.leftSerif;
},
{
scale = "{1, -1}";
type = Corner;
name = _corner.rightSerif;
options = 1;
},
{
type = Corner;
name = _corner.leftSerif;
},
{
scale = "{1, -1}";
type = Corner;
name = _corner.rightSerif;
options = 1;
},
{
type = Corner;
name = _corner.leftSerif;
},
{
scale = "{1, -1}";
type = Corner;
name = _corner.rightSerif;
options = 1;
},
{
type = Corner;
name = _corner.leftSerif;
},
{
scale = "{1, -1}";
type = Corner;
name = _corner.rightSerif;
options = 1;
},
{
type = Corner;
name = _corner.leftSerif;
},
{
scale = "{1, -1}";
type = Corner;
name = _corner.leftSerif;
options = 1;
},
{
type = Corner;
name = _corner.leftSerif;
},
{
scale = "{1, -1}";
type = Corner;
name = _corner.leftSerif;
options = 1;
},
{
type = Corner;
name = _corner.leftSerif;
},
{
scale = "{1, -1}";
type = Corner;
name = _corner.leftSerif;
options = 1;
},
{
type = Corner;
name = _corner.leftSerif;
},
{
scale = "{1, -1}";
type = Corner;
name = _corner.leftSerif;
options = 1;
},
{
type = Corner;
name = _corner.leftSerif;
},
{
scale = "{1, -1}";
type = Corner;
name = _corner.leftSerif;
options = 1;
},
{
type = Corner;
name = _corner.leftSerif;
},
{
scale = "{1, -1}";
type = Corner;
name = _corner.leftSerif;
options = 1;
},
{
type = Corner;
name = _corner.leftSerif;
},
{
scale = "{1, -1}";
type = Corner;
name = _corner.leftSerif;
options = 1;
},
{
type = Corner;
name = _corner.leftSerif;
},
{
scale = "{1, -1}";
type = Corner;
name = _corner.leftSerif;
options = 1;
},
{
type = Corner;
name = _corner.leftSerif;
},
{
scale = "{1, -1}";
type = Corner;
name = _corner.leftSerif;
options = 1;
},
{
origin = "{0, 3}";
type = Corner;
name = _corner.leftSerif;
},
{
origin = "{0, 4}";
scale = "{1, -1}";
type = Corner;
name = _corner.leftSerif;
options = 1;
}
);
paths = (
{
closed = 1;
nodes = (
"113 -117 OFFCURVE",
"153 -47 OFFCURVE",
"153 50 CURVE SMOOTH",
"153 700 LINE",
"99 700 LINE",
"99 61 LINE SMOOTH",
"99 -60 OFFCURVE",
"79 -115 OFFCURVE",
"9 -184 CURVE",
"14 -190 LINE"
);
}
);
};
hints = (
{
origin = "{0, 3}";
type = Corner;
name = _corner.leftSerif;
},
{
origin = "{0, 4}";
scale = "{1, -1}";
type = Corner;
name = _corner.leftSerif;
options = 1;
}
);
layerId = "11FB3604-FD70-4670-A6A6-DB9438128FDF";
paths = (
{
closed = 1;
nodes = (
"113 -117 OFFCURVE",
"153 -47 OFFCURVE",
"153 50 CURVE SMOOTH",
"153 700 LINE",
"99 700 LINE",
"99 61 LINE SMOOTH",
"99 -60 OFFCURVE",
"79 -115 OFFCURVE",
"9 -184 CURVE",
"14 -190 LINE"
);
}
);
width = 246;
}
);
unicode = 004A;
},
{
glyphname = K;
lastChange = "2025-04-05 11:24:18 +0000";
layers = (
{
anchors = (
{
name = bottom;
position = "{251, 0}";
},
{
name = top;
position = "{236, 700}";
}
);
background = {
anchors = (
{
name = bottom;
position = "{251, 0}";
},
{
name = top;
position = "{236, 700}";
}
);
hints = (
{
scale = "{1, -1}";
type = Corner;
name = _corner.rightSerif;
options = 1;
},
{
type = Corner;
name = _corner.leftSerif;
},
{
scale = "{1, -1}";
type = Corner;
name = _corner.rightSerif;
options = 1;
},
{
type = Corner;
name = _corner.leftSerif;
},
{
scale = "{1, -1}";
type = Corner;
name = _corner.rightSerif;
options = 1;
},
{
type = Corner;
name = _corner.leftSerif;
},
{
scale = "{1, -1}";
type = Corner;
name = _corner.rightSerif;
options = 1;
},
{
type = Corner;
name = _corner.leftSerif;
},
{
scale = "{1, -1}";
type = Corner;
name = _corner.rightSerif;
options = 1;
},
{
type = Corner;
name = _corner.leftSerif;
},
{
scale = "{1, -1}";
type = Corner;
name = _corner.rightSerif;
options = 1;
},
{
type = Corner;
name = _corner.leftSerif;
},
{
scale = "{1, -1}";
type = Corner;
name = _corner.rightSerif;
options = 1;
},
{
type = Corner;
name = _corner.leftSerif;
},
{
scale = "{1, -1}";
type = Corner;
name = _corner.rightSerif;
options = 1;
},
{
type = Corner;
name = _corner.leftSerif;
},
{
scale = "{1, -1}";
type = Corner;
name = _corner.rightSerif;
options = 1;
},
{
type = Corner;
name = _corner.leftSerif;
},
{
scale = "{1, -1}";
type = Corner;
name = _corner.rightSerif;
options = 1;
},
{
type = Corner;
name = _corner.leftSerif;
},
{
scale = "{1, -1}";
type = Corner;
name = _corner.rightSerif;
options = 1;
},
{
type = Corner;
name = _corner.leftSerif;
},
{
scale = "{1, -1}";
type = Corner;
name = _corner.rightSerif;
options = 1;
},
{
type = Corner;
name = _corner.leftSerif;
},
{
scale = "{1, -1}";
type = Corner;
name = _corner.rightSerif;
options = 1;
},
{
type = Corner;
name = _corner.leftSerif;
},
{
scale = "{1, -1}";
type = Corner;
name = _corner.rightSerif;
options = 1;
},
{
type = Corner;
name = _corner.leftSerif;
},
{
scale = "{1, -1}";
type = Corner;
name = _corner.rightSerif;
options = 1;
},
{
type = Corner;
name = _corner.leftSerif;
},
{
scale = "{1, -1}";
type = Corner;
name = _corner.rightSerif;
options = 1;
},
{
type = Corner;
name = _corner.leftSerif;
},
{
scale = "{1, -1}";
type = Corner;
name = _corner.rightSerif;
options = 1;
},
{
type = Corner;
name = _corner.leftSerif;
},
{
scale = "{1, -1}";
type = Corner;
name = _corner.rightSerif;
options = 1;
},
{
type = Corner;
name = _corner.leftSerif;
},
{
scale = "{1, -1}";
type = Corner;
name = _corner.rightSerif;
options = 1;
},
{
type = Corner;
name = _corner.leftSerif;
},
{
scale = "{1, -1}";
type = Corner;
name = _corner.rightSerif;
options = 1;
},
{
type = Corner;
name = _corner.leftSerif;
},
{
scale = "{1, -1}";
type = Corner;
name = _corner.rightSerif;
options = 1;
},
{
type = Corner;
name = _corner.leftSerif;
},
{
scale = "{1, -1}";
type = Corner;
name = _corner.rightSerif;
options = 1;
},
{
type = Corner;
name = _corner.leftSerif;
},
{
scale = "{1, -1}";
type = Corner;
name = _corner.rightSerif;
options = 1;
},
{
type = Corner;
name = _corner.leftSerif;
},
{
scale = "{1, -1}";
type = Corner;
name = _corner.rightSerif;
options = 1;
},
{
type = Corner;
name = _corner.leftSerif;
},
{
scale = "{1, -1}";
type = Corner;
name = _corner.rightSerif;
options = 1;
},
{
type = Corner;
name = _corner.leftSerif;
},
{
scale = "{1, -1}";
type = Corner;
name = _corner.rightSerif;
options = 1;
},
{
type = Corner;
name = _corner.leftSerif;
},
{
scale = "{1, -1}";
type = Corner;
name = _corner.rightSerif;
options = 1;
},
{
type = Corner;
name = _corner.leftSerif;
},
{
scale = "{1, -1}";
type = Corner;
name = _corner.rightSerif;
options = 1;
},
{
type = Corner;
name = _corner.leftSerif;
},
{
scale = "{1, -1}";
type = Corner;
name = _corner.rightSerif;
options = 1;
},
{
type = Corner;
name = _corner.leftSerif;
},
{
scale = "{1, -1}";
type = Corner;
name = _corner.rightSerif;
options = 1;
},
{
type = Corner;
name = _corner.leftSerif;
},
{
scale = "{1, -1}";
type = Corner;
name = _corner.rightSerif;
options = 1;
},
{
type = Corner;
name = _corner.leftSerif;
},
{
scale = "{1, -1}";
type = Corner;
name = _corner.rightSerif;
options = 1;
},
{
type = Corner;
name = _corner.leftSerif;
},
{
scale = "{1, -1}";
type = Corner;
name = _corner.rightSerif;
options = 1;
},
{
type = Corner;
name = _corner.leftSerif;
},
{
scale = "{1, -1}";
type = Corner;
name = _corner.rightSerif;
options = 1;
},
{
type = Corner;
name = _corner.leftSerif;
},
{
scale = "{1, -1}";
type = Corner;
name = _corner.rightSerif;
options = 1;
},
{
type = Corner;
name = _corner.leftSerif;
},
{
scale = "{1, -1}";
type = Corner;
name = _corner.rightSerif;
options = 1;
},
{
type = Corner;
name = _corner.leftSerif;
},
{
scale = "{1, -1}";
type = Corner;
name = _corner.rightSerif;
options = 1;
},
{
type = Corner;
name = _corner.leftSerif;
},
{
scale = "{1, -1}";
type = Corner;
name = _corner.rightSerif;
options = 1;
},
{
type = Corner;
name = _corner.leftSerif;
},
{
scale = "{1, -1}";
type = Corner;
name = _corner.rightSerif;
options = 1;
},
{
type = Corner;
name = _corner.leftSerif;
},
{
scale = "{1, -1}";
type = Corner;
name = _corner.rightSerif;
options = 1;
},
{
type = Corner;
name = _corner.leftSerif;
},
{
scale = "{1, -1}";
type = Corner;
name = _corner.rightSerif;
options = 1;
},
{
type = Corner;
name = _corner.leftSerif;
},
{
scale = "{1, -1}";
type = Corner;
name = _corner.rightSerif;
options = 1;
},
{
type = Corner;
name = _corner.leftSerif;
},
{
scale = "{1, -1}";
type = Corner;
name = _corner.rightSerif;
options = 1;
},
{
type = Corner;
name = _corner.leftSerif;
},
{
scale = "{1, -1}";
type = Corner;
name = _corner.rightSerif;
options = 1;
},
{
type = Corner;
name = _corner.leftSerif;
},
{
scale = "{1, -1}";
type = Corner;
name = _corner.rightSerif;
options = 1;
},
{
type = Corner;
name = _corner.leftSerif;
},
{
scale = "{1, -1}";
type = Corner;
name = _corner.rightSerif;
options = 1;
},
{
type = Corner;
name = _corner.leftSerif;
},
{
scale = "{1, -1}";
type = Corner;
name = _corner.rightSerif;
options = 1;
},
{
type = Corner;
name = _corner.leftSerif;
},
{
scale = "{1, -1}";
type = Corner;
name = _corner.rightSerif;
options = 1;
},
{
type = Corner;
name = _corner.leftSerif;
},
{
scale = "{1, -1}";
type = Corner;
name = _corner.rightSerif;
options = 1;
},
{
type = Corner;
name = _corner.leftSerif;
},
{
scale = "{1, -1}";
type = Corner;
name = _corner.rightSerif;
options = 1;
},
{
type = Corner;
name = _corner.leftSerif;
},
{
scale = "{1, -1}";
type = Corner;
name = _corner.rightSerif;
options = 1;
},
{
type = Corner;
name = _corner.leftSerif;
},
{
scale = "{1, -1}";
type = Corner;
name = _corner.rightSerif;
options = 1;
},
{
type = Corner;
name = _corner.leftSerif;
},
{
scale = "{1, -1}";
type = Corner;
name = _corner.rightSerif;
options = 1;
},
{
type = Corner;
name = _corner.leftSerif;
},
{
scale = "{1, -1}";
type = Corner;
name = _corner.rightSerif;
options = 1;
},
{
type = Corner;
name = _corner.leftSerif;
},
{
scale = "{1, -1}";
type = Corner;
name = _corner.rightSerif;
options = 1;
},
{
type = Corner;
name = _corner.leftSerif;
},
{
scale = "{1, -1}";
type = Corner;
name = _corner.rightSerif;
options = 1;
},
{
type = Corner;
name = _corner.leftSerif;
},
{
scale = "{1, -1}";
type = Corner;
name = _corner.rightSerif;
options = 1;
},
{
type = Corner;
name = _corner.leftSerif;
},
{
scale = "{1, -1}";
type = Corner;
name = _corner.rightSerif;
options = 1;
},
{
type = Corner;
name = _corner.leftSerif;
},
{
scale = "{1, -1}";
type = Corner;
name = _corner.rightSerif;
options = 1;
},
{
type = Corner;
name = _corner.leftSerif;
},
{
scale = "{1, -1}";
type = Corner;
name = _corner.rightSerif;
options = 1;
},
{
type = Corner;
name = _corner.leftSerif;
},
{
scale = "{1, -1}";
type = Corner;
name = _corner.rightSerif;
options = 1;
},
{
type = Corner;
name = _corner.leftSerif;
},
{
scale = "{1, -1}";
type = Corner;
name = _corner.rightSerif;
options = 1;
},
{
type = Corner;
name = _corner.leftSerif;
},
{
scale = "{1, -1}";
type = Corner;
name = _corner.rightSerif;
options = 1;
},
{
type = Corner;
name = _corner.leftSerif;
},
{
scale = "{1, -1}";
type = Corner;
name = _corner.rightSerif;
options = 1;
},
{
type = Corner;
name = _corner.leftSerif;
},
{
scale = "{1, -1}";
type = Corner;
name = _corner.rightSerif;
options = 1;
},
{
type = Corner;
name = _corner.leftSerif;
},
{
scale = "{1, -1}";
type = Corner;
name = _corner.rightSerif;
options = 1;
},
{
type = Corner;
name = _corner.leftSerif;
},
{
scale = "{1, -1}";
type = Corner;
name = _corner.rightSerif;
options = 1;
},
{
type = Corner;
name = _corner.leftSerif;
},
{
scale = "{1, -1}";
type = Corner;
name = _corner.rightSerif;
options = 1;
},
{
type = Corner;
name = _corner.leftSerif;
},
{
scale = "{1, -1}";
type = Corner;
name = _corner.rightSerif;
options = 1;
},
{
type = Corner;
name = _corner.leftSerif;
},
{
scale = "{1, -1}";
type = Corner;
name = _corner.rightSerif;
options = 1;
},
{
type = Corner;
name = _corner.leftSerif;
},
{
scale = "{1, -1}";
type = Corner;
name = _corner.rightSerif;
options = 1;
},
{
type = Corner;
name = _corner.leftSerif;
},
{
scale = "{1, -1}";
type = Corner;
name = _corner.rightSerif;
options = 1;
},
{
type = Corner;
name = _corner.leftSerif;
},
{
scale = "{1, -1}";
type = Corner;
name = _corner.rightSerif;
options = 1;
},
{
type = Corner;
name = _corner.leftSerif;
},
{
scale = "{1, -1}";
type = Corner;
name = _corner.rightSerif;
options = 1;
},
{
type = Corner;
name = _corner.leftSerif;
},
{
scale = "{1, -1}";
type = Corner;
name = _corner.rightSerif;
options = 1;
},
{
type = Corner;
name = _corner.leftSerif;
},
{
scale = "{1, -1}";
type = Corner;
name = _corner.rightSerif;
options = 1;
},
{
type = Corner;
name = _corner.leftSerif;
},
{
scale = "{1, -1}";
type = Corner;
name = _corner.rightSerif;
options = 1;
},
{
type = Corner;
name = _corner.leftSerif;
},
{
scale = "{1, -1}";
type = Corner;
name = _corner.rightSerif;
options = 1;
},
{
type = Corner;
name = _corner.leftSerif;
},
{
scale = "{1, -1}";
type = Corner;
name = _corner.rightSerif;
options = 1;
},
{
type = Corner;
name = _corner.leftSerif;
},
{
scale = "{1, -1}";
type = Corner;
name = _corner.rightSerif;
options = 1;
},
{
type = Corner;
name = _corner.leftSerif;
},
{
scale = "{1, -1}";
type = Corner;
name = _corner.rightSerif;
options = 1;
},
{
type = Corner;
name = _corner.leftSerif;
},
{
scale = "{1, -1}";
type = Corner;
name = _corner.rightSerif;
options = 1;
},
{
type = Corner;
name = _corner.leftSerif;
},
{
scale = "{1, -1}";
type = Corner;
name = _corner.rightSerif;
options = 1;
},
{
type = Corner;
name = _corner.leftSerif;
},
{
scale = "{1, -1}";
type = Corner;
name = _corner.rightSerif;
options = 1;
},
{
type = Corner;
name = _corner.leftSerif;
},
{
scale = "{1, -1}";
type = Corner;
name = _corner.rightSerif;
options = 1;
},
{
type = Corner;
name = _corner.leftSerif;
},
{
scale = "{1, -1}";
type = Corner;
name = _corner.rightSerif;
options = 1;
},
{
type = Corner;
name = _corner.leftSerif;
},
{
scale = "{1, -1}";
type = Corner;
name = _corner.rightSerif;
options = 1;
},
{
type = Corner;
name = _corner.leftSerif;
},
{
scale = "{1, -1}";
type = Corner;
name = _corner.rightSerif;
options = 1;
},
{
type = Corner;
name = _corner.leftSerif;
},
{
scale = "{1, -1}";
type = Corner;
name = _corner.rightSerif;
options = 1;
},
{
type = Corner;
name = _corner.leftSerif;
},
{
scale = "{1, -1}";
type = Corner;
name = _corner.rightSerif;
options = 1;
},
{
type = Corner;
name = _corner.leftSerif;
},
{
scale = "{1, -1}";
type = Corner;
name = _corner.rightSerif;
options = 1;
},
{
type = Corner;
name = _corner.leftSerif;
},
{
scale = "{1, -1}";
type = Corner;
name = _corner.rightSerif;
options = 1;
},
{
type = Corner;
name = _corner.leftSerif;
},
{
scale = "{1, -1}";
type = Corner;
name = _corner.rightSerif;
options = 1;
},
{
type = Corner;
name = _corner.leftSerif;
},
{
scale = "{1, -1}";
type = Corner;
name = _corner.rightSerif;
options = 1;
},
{
type = Corner;
name = _corner.leftSerif;
},
{
scale = "{1, -1}";
type = Corner;
name = _corner.rightSerif;
options = 1;
},
{
type = Corner;
name = _corner.leftSerif;
},
{
scale = "{1, -1}";
type = Corner;
name = _corner.rightSerif;
options = 1;
},
{
type = Corner;
name = _corner.leftSerif;
},
{
scale = "{1, -1}";
type = Corner;
name = _corner.rightSerif;
options = 1;
},
{
type = Corner;
name = _corner.leftSerif;
},
{
scale = "{1, -1}";
type = Corner;
name = _corner.rightSerif;
options = 1;
},
{
type = Corner;
name = _corner.leftSerif;
},
{
scale = "{1, -1}";
type = Corner;
name = _corner.rightSerif;
options = 1;
},
{
type = Corner;
name = _corner.leftSerif;
},
{
scale = "{1, -1}";
type = Corner;
name = _corner.rightSerif;
options = 1;
},
{
type = Corner;
name = _corner.leftSerif;
},
{
scale = "{1, -1}";
type = Corner;
name = _corner.rightSerif;
options = 1;
},
{
type = Corner;
name = _corner.leftSerif;
},
{
scale = "{1, -1}";
type = Corner;
name = _corner.rightSerif;
options = 1;
},
{
type = Corner;
name = _corner.leftSerif;
},
{
scale = "{1, -1}";
type = Corner;
name = _corner.rightSerif;
options = 1;
},
{
type = Corner;
name = _corner.leftSerif;
},
{
scale = "{1, -1}";
type = Corner;
name = _corner.rightSerif;
options = 1;
},
{
type = Corner;
name = _corner.leftSerif;
},
{
scale = "{1, -1}";
type = Corner;
name = _corner.rightSerif;
options = 1;
},
{
type = Corner;
name = _corner.leftSerif;
},
{
scale = "{1, -1}";
type = Corner;
name = _corner.rightSerif;
options = 1;
},
{
type = Corner;
name = _corner.leftSerif;
},
{
scale = "{1, -1}";
type = Corner;
name = _corner.rightSerif;
options = 1;
},
{
type = Corner;
name = _corner.leftSerif;
},
{
scale = "{1, -1}";
type = Corner;
name = _corner.rightSerif;
options = 1;
},
{
type = Corner;
name = _corner.leftSerif;
},
{
scale = "{1, -1}";
type = Corner;
name = _corner.rightSerif;
options = 1;
},
{
type = Corner;
name = _corner.leftSerif;
},
{
scale = "{1, -1}";
type = Corner;
name = _corner.rightSerif;
options = 1;
},
{
type = Corner;
name = _corner.leftSerif;
},
{
scale = "{1, -1}";
type = Corner;
name = _corner.rightSerif;
options = 1;
},
{
type = Corner;
name = _corner.leftSerif;
},
{
scale = "{1, -1}";
type = Corner;
name = _corner.rightSerif;
options = 1;
},
{
type = Corner;
name = _corner.leftSerif;
},
{
scale = "{1, -1}";
type = Corner;
name = _corner.rightSerif;
options = 1;
},
{
type = Corner;
name = _corner.leftSerif;
},
{
scale = "{1, -1}";
type = Corner;
name = _corner.rightSerif;
options = 1;
},
{
type = Corner;
name = _corner.leftSerif;
},
{
scale = "{1, -1}";
type = Corner;
name = _corner.rightSerif;
options = 1;
},
{
type = Corner;
name = _corner.leftSerif;
},
{
scale = "{1, -1}";
type = Corner;
name = _corner.rightSerif;
options = 1;
},
{
type = Corner;
name = _corner.leftSerif;
},
{
scale = "{1, -1}";
type = Corner;
name = _corner.rightSerif;
options = 1;
},
{
type = Corner;
name = _corner.leftSerif;
},
{
scale = "{1, -1}";
type = Corner;
name = _corner.rightSerif;
options = 1;
},
{
type = Corner;
name = _corner.leftSerif;
},
{
scale = "{1, -1}";
type = Corner;
name = _corner.rightSerif;
options = 1;
},
{
type = Corner;
name = _corner.leftSerif;
},
{
scale = "{1, -1}";
type = Corner;
name = _corner.rightSerif;
options = 1;
},
{
type = Corner;
name = _corner.leftSerif;
},
{
scale = "{1, -1}";
type = Corner;
name = _corner.rightSerif;
options = 1;
},
{
type = Corner;
name = _corner.leftSerif;
},
{
scale = "{1, -1}";
type = Corner;
name = _corner.rightSerif;
options = 1;
},
{
type = Corner;
name = _corner.leftSerif;
},
{
scale = "{1, -1}";
type = Corner;
name = _corner.rightSerif;
options = 1;
},
{
type = Corner;
name = _corner.leftSerif;
},
{
scale = "{1, -1}";
type = Corner;
name = _corner.rightSerif;
options = 1;
},
{
type = Corner;
name = _corner.leftSerif;
},
{
scale = "{1, -1}";
type = Corner;
name = _corner.rightSerif;
options = 1;
},
{
type = Corner;
name = _corner.leftSerif;
},
{
scale = "{1, -1}";
type = Corner;
name = _corner.rightSerif;
options = 1;
},
{
type = Corner;
name = _corner.leftSerif;
},
{
scale = "{1, -1}";
type = Corner;
name = _corner.rightSerif;
options = 1;
},
{
type = Corner;
name = _corner.leftSerif;
},
{
scale = "{1, -1}";
type = Corner;
name = _corner.rightSerif;
options = 1;
},
{
type = Corner;
name = _corner.leftSerif;
},
{
scale = "{1, -1}";
type = Corner;
name = _corner.rightSerif;
options = 1;
},
{
type = Corner;
name = _corner.leftSerif;
},
{
scale = "{1, -1}";
type = Corner;
name = _corner.rightSerif;
options = 1;
},
{
type = Corner;
name = _corner.leftSerif;
},
{
scale = "{1, -1}";
type = Corner;
name = _corner.rightSerif;
options = 1;
},
{
type = Corner;
name = _corner.leftSerif;
},
{
scale = "{1, -1}";
type = Corner;
name = _corner.rightSerif;
options = 1;
},
{
type = Corner;
name = _corner.leftSerif;
},
{
scale = "{1, -1}";
type = Corner;
name = _corner.rightSerif;
options = 1;
},
{
type = Corner;
name = _corner.leftSerif;
},
{
scale = "{1, -1}";
type = Corner;
name = _corner.rightSerif;
options = 1;
},
{
type = Corner;
name = _corner.leftSerif;
},
{
scale = "{1, -1}";
type = Corner;
name = _corner.rightSerif;
options = 1;
},
{
type = Corner;
name = _corner.leftSerif;
},
{
scale = "{1, -1}";
type = Corner;
name = _corner.rightSerif;
options = 1;
},
{
type = Corner;
name = _corner.leftSerif;
},
{
scale = "{1, -1}";
type = Corner;
name = _corner.rightSerif;
options = 1;
},
{
type = Corner;
name = _corner.leftSerif;
},
{
scale = "{1, -1}";
type = Corner;
name = _corner.rightSerif;
options = 1;
},
{
type = Corner;
name = _corner.leftSerif;
},
{
scale = "{1, -1}";
type = Corner;
name = _corner.rightSerif;
options = 1;
},
{
type = Corner;
name = _corner.leftSerif;
},
{
scale = "{1, -1}";
type = Corner;
name = _corner.rightSerif;
options = 1;
},
{
type = Corner;
name = _corner.leftSerif;
},
{
scale = "{1, -1}";
type = Corner;
name = _corner.rightSerif;
options = 1;
},
{
type = Corner;
name = _corner.leftSerif;
},
{
scale = "{1, -1}";
type = Corner;
name = _corner.leftSerif;
options = 1;
},
{
type = Corner;
name = _corner.leftSerif;
},
{
origin = "{1, 0}";
scale = "{1, -1}";
type = Corner;
name = _corner.rightSerif;
options = 1;
},
{
origin = "{1, 1}";
type = Corner;
name = _corner.leftSerif;
},
{
origin = "{1, 2}";
scale = "{1, -1}";
type = Corner;
name = _corner.leftSerif;
options = 1;
},
{
origin = "{1, 3}";
type = Corner;
name = _corner.leftSerif;
}
);
paths = (
{
closed = 1;
nodes = (
"516 0 LINE",
"516 3 LINE",
"462 7 OFFCURVE",
"440 22 OFFCURVE",
"404 92 CURVE SMOOTH",
"226 440 LINE",
"193 392 LINE",
"390 0 LINE"
);
},
{
closed = 1;
nodes = (
"149 0 LINE",
"149 700 LINE",
"95 700 LINE",
"95 0 LINE"
);
},
{
closed = 1;
nodes = (
"299 512 LINE SMOOTH",
"336 561 OFFCURVE",
"386 620 OFFCURVE",
"430 674 CURVE",
"384 708 LINE",
"348 649 OFFCURVE",
"310 582 OFFCURVE",
"277 531 CURVE SMOOTH",
"145 328 LINE",
"145 310 LINE"
);
}
);
};
hints = (
{
origin = "{1, 0}";
scale = "{1, -1}";
type = Corner;
name = _corner.rightSerif;
options = 1;
},
{
origin = "{1, 1}";
type = Corner;
name = _corner.leftSerif;
},
{
origin = "{1, 3}";
type = Corner;
name = _corner.leftSerif;
},
{
origin = "{1, 2}";
scale = "{1, -1}";
type = Corner;
name = _corner.leftSerif;
options = 1;
}
);
layerId = "11FB3604-FD70-4670-A6A6-DB9438128FDF";
paths = (
{
closed = 1;
nodes = (
"516 0 LINE",
"516 3 LINE",
"462 7 OFFCURVE",
"440 22 OFFCURVE",
"404 92 CURVE SMOOTH",
"226 440 LINE",
"193 392 LINE",
"390 0 LINE"
);
},
{
closed = 1;
nodes = (
"149 0 LINE",
"149 700 LINE",
"95 700 LINE",
"95 0 LINE"
);
},
{
closed = 1;
nodes = (
"299 512 LINE SMOOTH",
"336 561 OFFCURVE",
"386 620 OFFCURVE",
"430 674 CURVE",
"384 708 LINE",
"348 649 OFFCURVE",
"310 582 OFFCURVE",
"277 531 CURVE SMOOTH",
"145 328 LINE",
"145 310 LINE"
);
}
);
width = 472;
}
);
leftKerningGroup = H;
leftMetricsKey = H;
unicode = 004B;
},
{
glyphname = L;
lastChange = "2025-04-05 11:24:18 +0000";
layers = (
{
anchors = (
{
name = bottom;
position = "{202, 0}";
},
{
name = center;
position = "{217, 350}";
},
{
name = top;
position = "{122, 700}";
},
{
name = topright;
position = "{384, 700}";
}
);
background = {
anchors = (
{
name = bottom;
position = "{202, 0}";
},
{
name = center;
position = "{217, 350}";
},
{
name = top;
position = "{122, 700}";
},
{
name = topright;
position = "{384, 700}";
}
);
hints = (
{
type = Corner;
name = _corner.leftSerif;
},
{
scale = "{1, -1}";
type = Corner;
name = _corner.leftSerif;
options = 1;
},
{
type = Corner;
name = _corner.leftSerif;
},
{
type = Corner;
name = _corner.leftSerif;
},
{
scale = "{1, -1}";
type = Corner;
name = _corner.leftSerif;
options = 1;
},
{
type = Corner;
name = _corner.leftSerif;
},
{
type = Corner;
name = _corner.leftSerif;
},
{
scale = "{1, -1}";
type = Corner;
name = _corner.leftSerif;
options = 1;
},
{
type = Corner;
name = _corner.leftSerif;
},
{
type = Corner;
name = _corner.leftSerif;
},
{
scale = "{1, -1}";
type = Corner;
name = _corner.leftSerif;
options = 1;
},
{
type = Corner;
name = _corner.leftSerif;
},
{
type = Corner;
name = _corner.leftSerif;
},
{
scale = "{1, -1}";
type = Corner;
name = _corner.leftSerif;
options = 1;
},
{
type = Corner;
name = _corner.leftSerif;
},
{
type = Corner;
name = _corner.leftSerif;
},
{
scale = "{1, -1}";
type = Corner;
name = _corner.leftSerif;
options = 1;
},
{
type = Corner;
name = _corner.leftSerif;
},
{
type = Corner;
name = _corner.leftSerif;
},
{
scale = "{1, -1}";
type = Corner;
name = _corner.leftSerif;
options = 1;
},
{
type = Corner;
name = _corner.leftSerif;
},
{
type = Corner;
name = _corner.leftSerif;
},
{
scale = "{1, -1}";
type = Corner;
name = _corner.leftSerif;
options = 1;
},
{
type = Corner;
name = _corner.leftSerif;
},
{
scale = "{1, -1}";
type = Corner;
name = _corner.rightSerif;
options = 1;
},
{
type = Corner;
name = _corner.leftSerif;
},
{
type = Corner;
name = _corner.leftSerif;
},
{
scale = "{1, -1}";
type = Corner;
name = _corner.leftSerif;
options = 1;
},
{
type = Corner;
name = _corner.leftSerif;
},
{
type = Corner;
name = _corner.leftSerif;
},
{
scale = "{1, -1}";
type = Corner;
name = _corner.leftSerif;
options = 1;
},
{
type = Corner;
name = _corner.leftSerif;
},
{
type = Corner;
name = _corner.leftSerif;
},
{
scale = "{1, -1}";
type = Corner;
name = _corner.leftSerif;
options = 1;
},
{
type = Corner;
name = _corner.leftSerif;
},
{
type = Corner;
name = _corner.leftSerif;
},
{
scale = "{1, -1}";
type = Corner;
name = _corner.leftSerif;
options = 1;
},
{
type = Corner;
name = _corner.leftSerif;
},
{
type = Corner;
name = _corner.leftSerif;
},
{
scale = "{1, -1}";
type = Corner;
name = _corner.leftSerif;
options = 1;
},
{
type = Corner;
name = _corner.leftSerif;
},
{
type = Corner;
name = _corner.leftSerif;
},
{
scale = "{1, -1}";
type = Corner;
name = _corner.leftSerif;
options = 1;
},
{
type = Corner;
name = _corner.leftSerif;
},
{
type = Corner;
name = _corner.leftSerif;
},
{
scale = "{1, -1}";
type = Corner;
name = _corner.leftSerif;
options = 1;
},
{
type = Corner;
name = _corner.leftSerif;
},
{
type = Corner;
name = _corner.leftSerif;
},
{
scale = "{1, -1}";
type = Corner;
name = _corner.leftSerif;
options = 1;
},
{
type = Corner;
name = _corner.leftSerif;
},
{
type = Corner;
name = _corner.leftSerif;
},
{
scale = "{1, -1}";
type = Corner;
name = _corner.leftSerif;
options = 1;
},
{
type = Corner;
name = _corner.leftSerif;
},
{
type = Corner;
name = _corner.leftSerif;
},
{
scale = "{1, -1}";
type = Corner;
name = _corner.leftSerif;
options = 1;
},
{
type = Corner;
name = _corner.leftSerif;
},
{
type = Corner;
name = _corner.leftSerif;
},
{
scale = "{1, -1}";
type = Corner;
name = _corner.leftSerif;
options = 1;
},
{
type = Corner;
name = _corner.leftSerif;
},
{
scale = "{1, -1}";
type = Corner;
name = _corner.leftSerif;
options = 1;
},
{
type = Corner;
name = _corner.leftSerif;
},
{
type = Corner;
name = _corner.leftSerif;
},
{
scale = "{1, -1}";
type = Corner;
name = _corner.leftSerif;
options = 1;
},
{
type = Corner;
name = _corner.leftSerif;
},
{
scale = "{1, -1}";
type = Corner;
name = _corner.leftSerif;
options = 1;
},
{
type = Corner;
name = _corner.leftSerif;
},
{
type = Corner;
name = _corner.leftSerif;
},
{
scale = "{1, -1}";
type = Corner;
name = _corner.leftSerif;
options = 1;
},
{
type = Corner;
name = _corner.leftSerif;
},
{
type = Corner;
name = _corner.leftSerif;
},
{
scale = "{1, -1}";
type = Corner;
name = _corner.leftSerif;
options = 1;
},
{
type = Corner;
name = _corner.leftSerif;
},
{
type = Corner;
name = _corner.leftSerif;
},
{
scale = "{1, -1}";
type = Corner;
name = _corner.leftSerif;
options = 1;
},
{
type = Corner;
name = _corner.leftSerif;
},
{
origin = "{0, 10}";
type = Corner;
name = _corner.leftSerif;
},
{
origin = "{0, 11}";
scale = "{1, -1}";
type = Corner;
name = _corner.leftSerif;
options = 1;
},
{
origin = "{0, 12}";
type = Corner;
name = _corner.leftSerif;
}
);
paths = (
{
closed = 1;
nodes = (
"360 -29 LINE",
"388 222 LINE",
"385 222 LINE",
"340 49 OFFCURVE",
"316 11 OFFCURVE",
"244 11 CURVE SMOOTH",
"211 11 LINE SMOOTH",
"165 11 OFFCURVE",
"149 29 OFFCURVE",
"149 89 CURVE SMOOTH",
"149 700 LINE",
"95 700 LINE",
"95 0 LINE",
"302 0 LINE SMOOTH",
"334 0 OFFCURVE",
"349 -8 OFFCURVE",
"357 -29 CURVE"
);
}
);
};
hints = (
{
origin = "{0, 10}";
type = Corner;
name = _corner.leftSerif;
},
{
origin = "{0, 11}";
scale = "{1, -1}";
type = Corner;
name = _corner.leftSerif;
options = 1;
},
{
origin = "{0, 12}";
type = Corner;
name = _corner.leftSerif;
}
);
layerId = "11FB3604-FD70-4670-A6A6-DB9438128FDF";
paths = (
{
closed = 1;
nodes = (
"360 -29 LINE",
"388 222 LINE",
"385 222 LINE",
"340 49 OFFCURVE",
"316 11 OFFCURVE",
"244 11 CURVE SMOOTH",
"211 11 LINE SMOOTH",
"165 11 OFFCURVE",
"149 29 OFFCURVE",
"149 89 CURVE SMOOTH",
"149 700 LINE",
"95 700 LINE",
"95 0 LINE",
"302 0 LINE SMOOTH",
"334 0 OFFCURVE",
"349 -8 OFFCURVE",
"357 -29 CURVE"
);
}
);
width = 404;
}
);
leftKerningGroup = H;
leftMetricsKey = H;
rightKerningGroup = L;
unicode = 004C;
},
{
glyphname = M;
lastChange = "2025-04-05 11:24:18 +0000";
layers = (
{
background = {
hints = (
{
scale = "{1, -1}";
type = Corner;
name = _corner.rightSerif;
options = 1;
},
{
scale = "{1, -1}";
type = Corner;
name = _corner.rightSerif;
options = 1;
},
{
type = Corner;
name = _corner.leftSerif;
},
{
scale = "{1, -1}";
type = Corner;
name = _corner.rightSerif;
options = 1;
},
{
type = Corner;
name = _corner.rightSerif;
},
{
type = Corner;
name = _corner.leftSerif;
},
{
scale = "{1, -1}";
type = Corner;
name = _corner.rightSerif;
options = 1;
},
{
scale = "{1, -1}";
type = Corner;
name = _corner.rightSerif;
options = 1;
},
{
type = Corner;
name = _corner.leftSerif;
},
{
scale = "{1, -1}";
type = Corner;
name = _corner.rightSerif;
options = 1;
},
{
type = Corner;
name = _corner.rightSerif;
},
{
type = Corner;
name = _corner.leftSerif;
},
{
scale = "{1, -1}";
type = Corner;
name = _corner.rightSerif;
options = 1;
},
{
scale = "{1, -1}";
type = Corner;
name = _corner.rightSerif;
options = 1;
},
{
type = Corner;
name = _corner.leftSerif;
},
{
scale = "{1, -1}";
type = Corner;
name = _corner.rightSerif;
options = 1;
},
{
type = Corner;
name = _corner.rightSerif;
},
{
type = Corner;
name = _corner.leftSerif;
},
{
scale = "{1, -1}";
type = Corner;
name = _corner.rightSerif;
options = 1;
},
{
scale = "{1, -1}";
type = Corner;
name = _corner.rightSerif;
options = 1;
},
{
type = Corner;
name = _corner.leftSerif;
},
{
scale = "{1, -1}";
type = Corner;
name = _corner.rightSerif;
options = 1;
},
{
type = Corner;
name = _corner.rightSerif;
},
{
type = Corner;
name = _corner.leftSerif;
},
{
scale = "{1, -1}";
type = Corner;
name = _corner.rightSerif;
options = 1;
},
{
scale = "{1, -1}";
type = Corner;
name = _corner.rightSerif;
options = 1;
},
{
type = Corner;
name = _corner.leftSerif;
},
{
scale = "{1, -1}";
type = Corner;
name = _corner.rightSerif;
options = 1;
},
{
type = Corner;
name = _corner.rightSerif;
},
{
type = Corner;
name = _corner.leftSerif;
},
{
scale = "{1, -1}";
type = Corner;
name = _corner.rightSerif;
options = 1;
},
{
scale = "{1, -1}";
type = Corner;
name = _corner.rightSerif;
options = 1;
},
{
type = Corner;
name = _corner.leftSerif;
},
{
scale = "{1, -1}";
type = Corner;
name = _corner.rightSerif;
options = 1;
},
{
type = Corner;
name = _corner.rightSerif;
},
{
type = Corner;
name = _corner.leftSerif;
},
{
scale = "{1, -1}";
type = Corner;
name = _corner.rightSerif;
options = 1;
},
{
scale = "{1, -1}";
type = Corner;
name = _corner.rightSerif;
options = 1;
},
{
type = Corner;
name = _corner.leftSerif;
},
{
scale = "{1, -1}";
type = Corner;
name = _corner.rightSerif;
options = 1;
},
{
type = Corner;
name = _corner.rightSerif;
},
{
type = Corner;
name = _corner.leftSerif;
},
{
scale = "{1, -1}";
type = Corner;
name = _corner.rightSerif;
options = 1;
},
{
scale = "{1, -1}";
type = Corner;
name = _corner.rightSerif;
options = 1;
},
{
type = Corner;
name = _corner.leftSerif;
},
{
scale = "{1, -1}";
type = Corner;
name = _corner.rightSerif;
options = 1;
},
{
type = Corner;
name = _corner.rightSerif;
},
{
type = Corner;
name = _corner.leftSerif;
},
{
scale = "{1, -1}";
type = Corner;
name = _corner.rightSerif;
options = 1;
},
{
scale = "{1, -1}";
type = Corner;
name = _corner.rightSerif;
options = 1;
},
{
type = Corner;
name = _corner.leftSerif;
},
{
scale = "{1, -1}";
type = Corner;
name = _corner.rightSerif;
options = 1;
},
{
type = Corner;
name = _corner.rightSerif;
},
{
type = Corner;
name = _corner.leftSerif;
},
{
scale = "{1, -1}";
type = Corner;
name = _corner.rightSerif;
options = 1;
},
{
scale = "{1, -1}";
type = Corner;
name = _corner.rightSerif;
options = 1;
},
{
type = Corner;
name = _corner.leftSerif;
},
{
scale = "{1, -1}";
type = Corner;
name = _corner.rightSerif;
options = 1;
},
{
type = Corner;
name = _corner.rightSerif;
},
{
type = Corner;
name = _corner.leftSerif;
},
{
scale = "{1, -1}";
type = Corner;
name = _corner.rightSerif;
options = 1;
},
{
scale = "{1, -1}";
type = Corner;
name = _corner.rightSerif;
options = 1;
},
{
type = Corner;
name = _corner.leftSerif;
},
{
scale = "{1, -1}";
type = Corner;
name = _corner.rightSerif;
options = 1;
},
{
type = Corner;
name = _corner.rightSerif;
},
{
type = Corner;
name = _corner.leftSerif;
},
{
scale = "{1, -1}";
type = Corner;
name = _corner.rightSerif;
options = 1;
},
{
scale = "{1, -1}";
type = Corner;
name = _corner.rightSerif;
options = 1;
},
{
type = Corner;
name = _corner.leftSerif;
},
{
scale = "{1, -1}";
type = Corner;
name = _corner.rightSerif;
options = 1;
},
{
type = Corner;
name = _corner.rightSerif;
},
{
type = Corner;
name = _corner.leftSerif;
},
{
scale = "{1, -1}";
type = Corner;
name = _corner.rightSerif;
options = 1;
},
{
scale = "{1, -1}";
type = Corner;
name = _corner.rightSerif;
options = 1;
},
{
type = Corner;
name = _corner.leftSerif;
},
{
scale = "{1, -1}";
type = Corner;
name = _corner.rightSerif;
options = 1;
},
{
type = Corner;
name = _corner.rightSerif;
},
{
type = Corner;
name = _corner.leftSerif;
},
{
scale = "{1, -1}";
type = Corner;
name = _corner.rightSerif;
options = 1;
},
{
scale = "{1, -1}";
type = Corner;
name = _corner.rightSerif;
options = 1;
},
{
type = Corner;
name = _corner.leftSerif;
},
{
scale = "{1, -1}";
type = Corner;
name = _corner.rightSerif;
options = 1;
},
{
type = Corner;
name = _corner.rightSerif;
},
{
type = Corner;
name = _corner.leftSerif;
},
{
scale = "{1, -1}";
type = Corner;
name = _corner.rightSerif;
options = 1;
},
{
scale = "{1, -1}";
type = Corner;
name = _corner.rightSerif;
options = 1;
},
{
type = Corner;
name = _corner.leftSerif;
},
{
scale = "{1, -1}";
type = Corner;
name = _corner.rightSerif;
options = 1;
},
{
type = Corner;
name = _corner.rightSerif;
},
{
type = Corner;
name = _corner.leftSerif;
},
{
scale = "{1, -1}";
type = Corner;
name = _corner.rightSerif;
options = 1;
},
{
scale = "{1, -1}";
type = Corner;
name = _corner.rightSerif;
options = 1;
},
{
type = Corner;
name = _corner.leftSerif;
},
{
scale = "{1, -1}";
type = Corner;
name = _corner.rightSerif;
options = 1;
},
{
type = Corner;
name = _corner.rightSerif;
},
{
type = Corner;
name = _corner.leftSerif;
},
{
scale = "{1, -1}";
type = Corner;
name = _corner.rightSerif;
options = 1;
},
{
type = Corner;
name = _corner.leftSerif;
},
{
scale = "{1, -1}";
type = Corner;
name = _corner.rightSerif;
options = 1;
},
{
type = Corner;
name = _corner.rightSerif;
},
{
type = Corner;
name = _corner.leftSerif;
},
{
scale = "{1, -1}";
type = Corner;
name = _corner.rightSerif;
options = 1;
},
{
type = Corner;
name = _corner.leftSerif;
},
{
scale = "{1, -1}";
type = Corner;
name = _corner.rightSerif;
options = 1;
},
{
type = Corner;
name = _corner.rightSerif;
},
{
type = Corner;
name = _corner.leftSerif;
},
{
scale = "{1, -1}";
type = Corner;
name = _corner.rightSerif;
options = 1;
},
{
type = Corner;
name = _corner.leftSerif;
},
{
scale = "{1, -1}";
type = Corner;
name = _corner.rightSerif;
options = 1;
},
{
type = Corner;
name = _corner.rightSerif;
},
{
type = Corner;
name = _corner.leftSerif;
},
{
scale = "{1, -1}";
type = Corner;
name = _corner.rightSerif;
options = 1;
},
{
type = Corner;
name = _corner.leftSerif;
},
{
scale = "{1, -1}";
type = Corner;
name = _corner.rightSerif;
options = 1;
},
{
type = Corner;
name = _corner.rightSerif;
},
{
type = Corner;
name = _corner.leftSerif;
},
{
scale = "{1, -1}";
type = Corner;
name = _corner.rightSerif;
options = 1;
},
{
type = Corner;
name = _corner.leftSerif;
},
{
scale = "{1, -1}";
type = Corner;
name = _corner.rightSerif;
options = 1;
},
{
type = Corner;
name = _corner.rightSerif;
},
{
type = Corner;
name = _corner.leftSerif;
},
{
scale = "{1, -1}";
type = Corner;
name = _corner.rightSerif;
options = 1;
},
{
type = Corner;
name = _corner.leftSerif;
},
{
scale = "{1, -1}";
type = Corner;
name = _corner.rightSerif;
options = 1;
},
{
type = Corner;
name = _corner.rightSerif;
},
{
type = Corner;
name = _corner.leftSerif;
},
{
scale = "{1, -1}";
type = Corner;
name = _corner.rightSerif;
options = 1;
},
{
type = Corner;
name = _corner.leftSerif;
},
{
scale = "{1, -1}";
type = Corner;
name = _corner.rightSerif;
options = 1;
},
{
type = Corner;
name = _corner.rightSerif;
},
{
type = Corner;
name = _corner.leftSerif;
},
{
scale = "{1, -1}";
type = Corner;
name = _corner.rightSerif;
options = 1;
},
{
type = Corner;
name = _corner.leftSerif;
},
{
scale = "{1, -1}";
type = Corner;
name = _corner.rightSerif;
options = 1;
},
{
type = Corner;
name = _corner.rightSerif;
},
{
type = Corner;
name = _corner.leftSerif;
},
{
type = Corner;
name = _corner.leftSerif;
},
{
scale = "{1, -1}";
type = Corner;
name = _corner.rightSerif;
options = 1;
},
{
type = Corner;
name = _corner.leftSerif;
},
{
scale = "{1, -1}";
type = Corner;
name = _corner.rightSerif;
options = 1;
},
{
type = Corner;
name = _corner.rightSerif;
},
{
type = Corner;
name = _corner.leftSerif;
},
{
scale = "{1, -1}";
type = Corner;
name = _corner.rightSerif;
options = 1;
},
{
type = Corner;
name = _corner.leftSerif;
},
{
scale = "{1, -1}";
type = Corner;
name = _corner.rightSerif;
options = 1;
},
{
type = Corner;
name = _corner.rightSerif;
},
{
type = Corner;
name = _corner.leftSerif;
},
{
scale = "{1, -1}";
type = Corner;
name = _corner.rightSerif;
options = 1;
},
{
type = Corner;
name = _corner.rightSerif;
},
{
scale = "{1, -1}";
type = Corner;
name = _corner.rightSerif;
options = 1;
},
{
type = Corner;
name = _corner.leftSerif;
},
{
type = Corner;
name = _corner.leftSerif;
},
{
scale = "{1, -1}";
type = Corner;
name = _corner.rightSerif;
options = 1;
},
{
type = Corner;
name = _corner.rightSerif;
},
{
scale = "{1, -1}";
type = Corner;
name = _corner.rightSerif;
options = 1;
},
{
type = Corner;
name = _corner.leftSerif;
},
{
type = Corner;
name = _corner.leftSerif;
},
{
scale = "{1, -1}";
type = Corner;
name = _corner.rightSerif;
options = 1;
},
{
type = Corner;
name = _corner.rightSerif;
},
{
scale = "{1, -1}";
type = Corner;
name = _corner.rightSerif;
options = 1;
},
{
type = Corner;
name = _corner.leftSerif;
},
{
type = Corner;
name = _corner.leftSerif;
},
{
scale = "{1, -1}";
type = Corner;
name = _corner.rightSerif;
options = 1;
},
{
type = Corner;
name = _corner.rightSerif;
},
{
scale = "{1, -1}";
type = Corner;
name = _corner.rightSerif;
options = 1;
},
{
type = Corner;
name = _corner.leftSerif;
},
{
type = Corner;
name = _corner.leftSerif;
},
{
scale = "{1, -1}";
type = Corner;
name = _corner.rightSerif;
options = 1;
},
{
type = Corner;
name = _corner.rightSerif;
},
{
scale = "{1, -1}";
type = Corner;
name = _corner.rightSerif;
options = 1;
},
{
type = Corner;
name = _corner.leftSerif;
},
{
type = Corner;
name = _corner.leftSerif;
},
{
scale = "{1, -1}";
type = Corner;
name = _corner.rightSerif;
options = 1;
},
{
type = Corner;
name = _corner.rightSerif;
},
{
scale = "{1, -1}";
type = Corner;
name = _corner.rightSerif;
options = 1;
},
{
type = Corner;
name = _corner.leftSerif;
},
{
type = Corner;
name = _corner.leftSerif;
},
{
scale = "{1, -1}";
type = Corner;
name = _corner.rightSerif;
options = 1;
},
{
type = Corner;
name = _corner.rightSerif;
},
{
scale = "{1, -1}";
type = Corner;
name = _corner.rightSerif;
options = 1;
},
{
type = Corner;
name = _corner.leftSerif;
},
{
type = Corner;
name = _corner.leftSerif;
},
{
scale = "{1, -1}";
type = Corner;
name = _corner.rightSerif;
options = 1;
},
{
type = Corner;
name = _corner.rightSerif;
},
{
scale = "{1, -1}";
type = Corner;
name = _corner.rightSerif;
options = 1;
},
{
type = Corner;
name = _corner.leftSerif;
},
{
type = Corner;
name = _corner.rightSerif;
},
{
scale = "{1, -1}";
type = Corner;
name = _corner.leftSerif;
options = 1;
},
{
type = Corner;
name = _corner.leftSerif;
},
{
scale = "{1, -1}";
type = Corner;
name = _corner.rightSerif;
options = 1;
},
{
type = Corner;
name = _corner.leftSerif;
},
{
type = Corner;
name = _corner.rightSerif;
},
{
scale = "{1, -1}";
type = Corner;
name = _corner.leftSerif;
options = 1;
},
{
type = Corner;
name = _corner.leftSerif;
},
{
scale = "{1, -1}";
type = Corner;
name = _corner.rightSerif;
options = 1;
},
{
type = Corner;
name = _corner.leftSerif;
},
{
type = Corner;
name = _corner.rightSerif;
},
{
scale = "{1, -1}";
type = Corner;
name = _corner.leftSerif;
options = 1;
},
{
type = Corner;
name = _corner.leftSerif;
},
{
scale = "{1, -1}";
type = Corner;
name = _corner.rightSerif;
options = 1;
},
{
type = Corner;
name = _corner.leftSerif;
},
{
type = Corner;
name = _corner.rightSerif;
},
{
scale = "{1, -1}";
type = Corner;
name = _corner.leftSerif;
options = 1;
},
{
type = Corner;
name = _corner.leftSerif;
},
{
scale = "{1, -1}";
type = Corner;
name = _corner.rightSerif;
options = 1;
},
{
type = Corner;
name = _corner.leftSerif;
},
{
type = Corner;
name = _corner.rightSerif;
},
{
scale = "{1, -1}";
type = Corner;
name = _corner.leftSerif;
options = 1;
},
{
type = Corner;
name = _corner.leftSerif;
},
{
scale = "{1, -1}";
type = Corner;
name = _corner.rightSerif;
options = 1;
},
{
type = Corner;
name = _corner.leftSerif;
},
{
type = Corner;
name = _corner.rightSerif;
},
{
scale = "{1, -1}";
type = Corner;
name = _corner.leftSerif;
options = 1;
},
{
type = Corner;
name = _corner.leftSerif;
},
{
scale = "{1, -1}";
type = Corner;
name = _corner.rightSerif;
options = 1;
},
{
type = Corner;
name = _corner.leftSerif;
},
{
type = Corner;
name = _corner.rightSerif;
},
{
scale = "{1, -1}";
type = Corner;
name = _corner.leftSerif;
options = 1;
},
{
type = Corner;
name = _corner.leftSerif;
},
{
scale = "{1, -1}";
type = Corner;
name = _corner.rightSerif;
options = 1;
},
{
type = Corner;
name = _corner.leftSerif;
},
{
type = Corner;
name = _corner.rightSerif;
},
{
scale = "{1, -1}";
type = Corner;
name = _corner.leftSerif;
options = 1;
},
{
type = Corner;
name = _corner.leftSerif;
},
{
scale = "{1, -1}";
type = Corner;
name = _corner.rightSerif;
options = 1;
},
{
type = Corner;
name = _corner.leftSerif;
},
{
type = Corner;
name = _corner.rightSerif;
},
{
scale = "{1, -1}";
type = Corner;
name = _corner.leftSerif;
options = 1;
},
{
type = Corner;
name = _corner.leftSerif;
},
{
scale = "{1, -1}";
type = Corner;
name = _corner.rightSerif;
options = 1;
},
{
type = Corner;
name = _corner.leftSerif;
},
{
type = Corner;
name = _corner.rightSerif;
},
{
scale = "{1, -1}";
type = Corner;
name = _corner.leftSerif;
options = 1;
},
{
type = Corner;
name = _corner.leftSerif;
},
{
scale = "{1, -1}";
type = Corner;
name = _corner.rightSerif;
options = 1;
},
{
type = Corner;
name = _corner.leftSerif;
},
{
type = Corner;
name = _corner.rightSerif;
},
{
scale = "{1, -1}";
type = Corner;
name = _corner.leftSerif;
options = 1;
},
{
type = Corner;
name = _corner.leftSerif;
},
{
scale = "{1, -1}";
type = Corner;
name = _corner.rightSerif;
options = 1;
},
{
type = Corner;
name = _corner.leftSerif;
},
{
type = Corner;
name = _corner.rightSerif;
},
{
scale = "{1, -1}";
type = Corner;
name = _corner.leftSerif;
options = 1;
},
{
type = Corner;
name = _corner.leftSerif;
},
{
scale = "{1, -1}";
type = Corner;
name = _corner.rightSerif;
options = 1;
},
{
type = Corner;
name = _corner.leftSerif;
},
{
type = Corner;
name = _corner.rightSerif;
},
{
scale = "{1, -1}";
type = Corner;
name = _corner.leftSerif;
options = 1;
},
{
type = Corner;
name = _corner.leftSerif;
},
{
scale = "{1, -1}";
type = Corner;
name = _corner.rightSerif;
options = 1;
},
{
type = Corner;
name = _corner.leftSerif;
},
{
type = Corner;
name = _corner.rightSerif;
},
{
scale = "{1, -1}";
type = Corner;
name = _corner.leftSerif;
options = 1;
},
{
type = Corner;
name = _corner.leftSerif;
},
{
scale = "{1, -1}";
type = Corner;
name = _corner.rightSerif;
options = 1;
},
{
type = Corner;
name = _corner.leftSerif;
},
{
type = Corner;
name = _corner.rightSerif;
},
{
scale = "{1, -1}";
type = Corner;
name = _corner.leftSerif;
options = 1;
},
{
type = Corner;
name = _corner.leftSerif;
},
{
scale = "{1, -1}";
type = Corner;
name = _corner.rightSerif;
options = 1;
},
{
type = Corner;
name = _corner.leftSerif;
},
{
type = Corner;
name = _corner.rightSerif;
},
{
scale = "{1, -1}";
type = Corner;
name = _corner.leftSerif;
options = 1;
},
{
type = Corner;
name = _corner.leftSerif;
},
{
scale = "{1, -1}";
type = Corner;
name = _corner.rightSerif;
options = 1;
},
{
type = Corner;
name = _corner.leftSerif;
},
{
origin = "{0, 3}";
type = Corner;
name = _corner.rightSerif;
},
{
origin = "{0, 4}";
scale = "{1, -1}";
type = Corner;
name = _corner.leftSerif;
options = 1;
},
{
origin = "{0, 5}";
type = Corner;
name = _corner.leftSerif;
},
{
origin = "{1, 0}";
scale = "{1, -1}";
type = Corner;
name = _corner.rightSerif;
options = 1;
},
{
origin = "{1, 3}";
type = Corner;
name = _corner.leftSerif;
}
);
paths = (
{
closed = 1;
nodes = (
"287 -8 LINE",
"459 634 LINE",
"455 634 LINE",
"455 0 LINE",
"509 0 LINE",
"509 700 LINE",
"462 700 LINE",
"296 81 LINE",
"308 84 LINE",
"136 700 LINE",
"14 700 LINE",
"14 697 LINE",
"66 691 OFFCURVE",
"87 680 OFFCURVE",
"104 620 CURVE SMOOTH",
"283 -8 LINE"
);
},
{
closed = 1;
nodes = (
"109 0 LINE",
"109 666 LINE",
"95 666 LINE",
"95 0 LINE"
);
}
);
};
hints = (
{
origin = "{1, 0}";
scale = "{1, -1}";
type = Corner;
name = _corner.rightSerif;
options = 1;
},
{
origin = "{1, 3}";
type = Corner;
name = _corner.leftSerif;
},
{
origin = "{0, 4}";
scale = "{1, -1}";
type = Corner;
name = _corner.leftSerif;
options = 1;
},
{
origin = "{0, 3}";
type = Corner;
name = _corner.rightSerif;
},
{
origin = "{0, 5}";
type = Corner;
name = _corner.leftSerif;
}
);
layerId = "11FB3604-FD70-4670-A6A6-DB9438128FDF";
paths = (
{
closed = 1;
nodes = (
"287 -8 LINE",
"459 634 LINE",
"455 634 LINE",
"455 0 LINE",
"509 0 LINE",
"509 700 LINE",
"462 700 LINE",
"296 81 LINE",
"308 84 LINE",
"136 700 LINE",
"14 700 LINE",
"14 697 LINE",
"66 691 OFFCURVE",
"87 680 OFFCURVE",
"104 620 CURVE SMOOTH",
"283 -8 LINE"
);
},
{
closed = 1;
nodes = (
"109 0 LINE",
"109 666 LINE",
"95 666 LINE",
"95 0 LINE"
);
}
);
width = 604;
}
);
leftKerningGroup = H;
rightKerningGroup = H;
rightMetricsKey = H;
unicode = 004D;
},
{
glyphname = N;
lastChange = "2025-04-05 11:24:18 +0000";
layers = (
{
anchors = (
{
name = bottom;
position = "{249, 0}";
},
{
name = top;
position = "{249, 700}";
}
);
background = {
anchors = (
{
name = bottom;
position = "{249, 0}";
},
{
name = top;
position = "{249, 700}";
}
);
hints = (
{
scale = "{1, -1}";
type = Corner;
name = _corner.rightSerif;
options = 1;
},
{
scale = "{1, -1}";
type = Corner;
name = _corner.rightSerif;
options = 1;
},
{
type = Corner;
name = _corner.leftSerif;
},
{
scale = "{1, -1}";
type = Corner;
name = _corner.rightSerif;
options = 1;
},
{
type = Corner;
name = _corner.leftSerif;
},
{
scale = "{1, -1}";
type = Corner;
name = _corner.rightSerif;
options = 1;
},
{
scale = "{1, -1}";
type = Corner;
name = _corner.rightSerif;
options = 1;
},
{
type = Corner;
name = _corner.leftSerif;
},
{
scale = "{1, -1}";
type = Corner;
name = _corner.rightSerif;
options = 1;
},
{
type = Corner;
name = _corner.leftSerif;
},
{
scale = "{1, -1}";
type = Corner;
name = _corner.rightSerif;
options = 1;
},
{
scale = "{1, -1}";
type = Corner;
name = _corner.rightSerif;
options = 1;
},
{
type = Corner;
name = _corner.leftSerif;
},
{
scale = "{1, -1}";
type = Corner;
name = _corner.rightSerif;
options = 1;
},
{
type = Corner;
name = _corner.leftSerif;
},
{
scale = "{1, -1}";
type = Corner;
name = _corner.rightSerif;
options = 1;
},
{
scale = "{1, -1}";
type = Corner;
name = _corner.rightSerif;
options = 1;
},
{
type = Corner;
name = _corner.leftSerif;
},
{
type = Corner;
name = _corner.leftSerif;
},
{
scale = "{1, -1}";
type = Corner;
name = _corner.rightSerif;
options = 1;
},
{
scale = "{1, -1}";
type = Corner;
name = _corner.rightSerif;
options = 1;
},
{
scale = "{1, -1}";
type = Corner;
name = _corner.rightSerif;
options = 1;
},
{
type = Corner;
name = _corner.leftSerif;
},
{
type = Corner;
name = _corner.leftSerif;
},
{
scale = "{1, -1}";
type = Corner;
name = _corner.rightSerif;
options = 1;
},
{
scale = "{1, -1}";
type = Corner;
name = _corner.rightSerif;
options = 1;
},
{
scale = "{1, -1}";
type = Corner;
name = _corner.rightSerif;
options = 1;
},
{
type = Corner;
name = _corner.leftSerif;
},
{
type = Corner;
name = _corner.leftSerif;
},
{
scale = "{1, -1}";
type = Corner;
name = _corner.rightSerif;
options = 1;
},
{
scale = "{1, -1}";
type = Corner;
name = _corner.rightSerif;
options = 1;
},
{
scale = "{1, -1}";
type = Corner;
name = _corner.rightSerif;
options = 1;
},
{
type = Corner;
name = _corner.leftSerif;
},
{
type = Corner;
name = _corner.leftSerif;
},
{
scale = "{1, -1}";
type = Corner;
name = _corner.rightSerif;
options = 1;
},
{
scale = "{1, -1}";
type = Corner;
name = _corner.rightSerif;
options = 1;
},
{
type = Corner;
name = _corner.leftSerif;
},
{
type = Corner;
name = _corner.leftSerif;
},
{
scale = "{1, -1}";
type = Corner;
name = _corner.rightSerif;
options = 1;
},
{
scale = "{1, -1}";
type = Corner;
name = _corner.rightSerif;
options = 1;
},
{
type = Corner;
name = _corner.leftSerif;
},
{
type = Corner;
name = _corner.leftSerif;
},
{
scale = "{1, -1}";
type = Corner;
name = _corner.rightSerif;
options = 1;
},
{
scale = "{1, -1}";
type = Corner;
name = _corner.rightSerif;
options = 1;
},
{
type = Corner;
name = _corner.leftSerif;
},
{
type = Corner;
name = _corner.leftSerif;
},
{
scale = "{1, -1}";
type = Corner;
name = _corner.rightSerif;
options = 1;
},
{
scale = "{1, -1}";
type = Corner;
name = _corner.rightSerif;
options = 1;
},
{
type = Corner;
name = _corner.leftSerif;
},
{
type = Corner;
name = _corner.leftSerif;
},
{
scale = "{1, -1}";
type = Corner;
name = _corner.rightSerif;
options = 1;
},
{
scale = "{1, -1}";
type = Corner;
name = _corner.rightSerif;
options = 1;
},
{
type = Corner;
name = _corner.leftSerif;
},
{
type = Corner;
name = _corner.leftSerif;
},
{
scale = "{1, -1}";
type = Corner;
name = _corner.rightSerif;
options = 1;
},
{
scale = "{1, -1}";
type = Corner;
name = _corner.rightSerif;
options = 1;
},
{
type = Corner;
name = _corner.leftSerif;
},
{
type = Corner;
name = _corner.leftSerif;
},
{
scale = "{1, -1}";
type = Corner;
name = _corner.rightSerif;
options = 1;
},
{
scale = "{1, -1}";
type = Corner;
name = _corner.rightSerif;
options = 1;
},
{
type = Corner;
name = _corner.leftSerif;
},
{
type = Corner;
name = _corner.leftSerif;
},
{
scale = "{1, -1}";
type = Corner;
name = _corner.rightSerif;
options = 1;
},
{
scale = "{1, -1}";
type = Corner;
name = _corner.rightSerif;
options = 1;
},
{
type = Corner;
name = _corner.leftSerif;
},
{
type = Corner;
name = _corner.leftSerif;
},
{
scale = "{1, -1}";
type = Corner;
name = _corner.rightSerif;
options = 1;
},
{
scale = "{1, -1}";
type = Corner;
name = _corner.rightSerif;
options = 1;
},
{
type = Corner;
name = _corner.leftSerif;
},
{
type = Corner;
name = _corner.leftSerif;
},
{
scale = "{1, -1}";
type = Corner;
name = _corner.rightSerif;
options = 1;
},
{
scale = "{1, -1}";
type = Corner;
name = _corner.rightSerif;
options = 1;
},
{
type = Corner;
name = _corner.leftSerif;
},
{
type = Corner;
name = _corner.leftSerif;
},
{
scale = "{1, -1}";
type = Corner;
name = _corner.rightSerif;
options = 1;
},
{
scale = "{1, -1}";
type = Corner;
name = _corner.leftSerif;
options = 1;
},
{
type = Corner;
name = _corner.rightSerif;
},
{
type = Corner;
name = _corner.leftSerif;
},
{
scale = "{1, -1}";
type = Corner;
name = _corner.rightSerif;
options = 1;
},
{
scale = "{1, -1}";
type = Corner;
name = _corner.leftSerif;
options = 1;
},
{
type = Corner;
name = _corner.rightSerif;
},
{
type = Corner;
name = _corner.leftSerif;
},
{
scale = "{1, -1}";
type = Corner;
name = _corner.rightSerif;
options = 1;
},
{
scale = "{1, -1}";
type = Corner;
name = _corner.leftSerif;
options = 1;
},
{
type = Corner;
name = _corner.rightSerif;
},
{
type = Corner;
name = _corner.leftSerif;
},
{
scale = "{1, -1}";
type = Corner;
name = _corner.rightSerif;
options = 1;
},
{
scale = "{1, -1}";
type = Corner;
name = _corner.leftSerif;
options = 1;
},
{
type = Corner;
name = _corner.rightSerif;
},
{
type = Corner;
name = _corner.leftSerif;
},
{
scale = "{1, -1}";
type = Corner;
name = _corner.rightSerif;
options = 1;
},
{
scale = "{1, -1}";
type = Corner;
name = _corner.leftSerif;
options = 1;
},
{
type = Corner;
name = _corner.rightSerif;
},
{
type = Corner;
name = _corner.leftSerif;
},
{
scale = "{1, -1}";
type = Corner;
name = _corner.rightSerif;
options = 1;
},
{
scale = "{1, -1}";
type = Corner;
name = _corner.leftSerif;
options = 1;
},
{
type = Corner;
name = _corner.rightSerif;
},
{
type = Corner;
name = _corner.leftSerif;
},
{
scale = "{1, -1}";
type = Corner;
name = _corner.rightSerif;
options = 1;
},
{
scale = "{1, -1}";
type = Corner;
name = _corner.leftSerif;
options = 1;
},
{
type = Corner;
name = _corner.rightSerif;
},
{
type = Corner;
name = _corner.leftSerif;
},
{
scale = "{1, -1}";
type = Corner;
name = _corner.rightSerif;
options = 1;
},
{
scale = "{1, -1}";
type = Corner;
name = _corner.leftSerif;
options = 1;
},
{
type = Corner;
name = _corner.rightSerif;
},
{
type = Corner;
name = _corner.leftSerif;
},
{
scale = "{1, -1}";
type = Corner;
name = _corner.rightSerif;
options = 1;
},
{
scale = "{1, -1}";
type = Corner;
name = _corner.leftSerif;
options = 1;
},
{
type = Corner;
name = _corner.rightSerif;
},
{
type = Corner;
name = _corner.leftSerif;
},
{
scale = "{1, -1}";
type = Corner;
name = _corner.rightSerif;
options = 1;
},
{
origin = "{1, 0}";
scale = "{1, -1}";
type = Corner;
name = _corner.leftSerif;
options = 1;
},
{
origin = "{1, 3}";
type = Corner;
name = _corner.rightSerif;
},
{
origin = "{2, 1}";
type = Corner;
name = _corner.leftSerif;
},
{
origin = "{2, 2}";
scale = "{1, -1}";
type = Corner;
name = _corner.rightSerif;
options = 1;
}
);
paths = (
{
closed = 1;
nodes = (
"401 114 LINE",
"121 700 LINE",
"5 700 LINE",
"5 697 LINE",
"55 689 OFFCURVE",
"73 674 OFFCURVE",
"98 622 CURVE SMOOTH",
"401 -8 LINE"
);
},
{
closed = 1;
nodes = (
"108 0 LINE",
"108 650 LINE",
"94 650 LINE",
"94 0 LINE"
);
},
{
closed = 1;
nodes = (
"405 -8 LINE",
"405 700 LINE",
"391 700 LINE",
"391 82 LINE",
"401 -8 LINE"
);
}
);
};
hints = (
{
origin = "{1, 0}";
scale = "{1, -1}";
type = Corner;
name = _corner.leftSerif;
options = 1;
},
{
origin = "{1, 3}";
type = Corner;
name = _corner.rightSerif;
},
{
origin = "{2, 1}";
type = Corner;
name = _corner.leftSerif;
},
{
origin = "{2, 2}";
scale = "{1, -1}";
type = Corner;
name = _corner.rightSerif;
options = 1;
}
);
layerId = "11FB3604-FD70-4670-A6A6-DB9438128FDF";
paths = (
{
closed = 1;
nodes = (
"401 114 LINE",
"121 700 LINE",
"5 700 LINE",
"5 697 LINE",
"55 689 OFFCURVE",
"73 674 OFFCURVE",
"98 622 CURVE SMOOTH",
"401 -8 LINE"
);
},
{
closed = 1;
nodes = (
"108 0 LINE",
"108 650 LINE",
"94 650 LINE",
"94 0 LINE"
);
},
{
closed = 1;
nodes = (
"405 -8 LINE",
"405 700 LINE",
"391 700 LINE",
"391 82 LINE",
"401 -8 LINE"
);
}
);
width = 498;
}
);
leftKerningGroup = N;
rightKerningGroup = N;
unicode = 004E;
},
{
glyphname = O;
lastChange = "2025-04-05 11:24:18 +0000";
layers = (
{
anchors = (
{
name = bottom;
position = "{247, 0}";
},
{
name = center;
position = "{247, 350}";
},
{
name = ogonek;
position = "{287, 0}";
},
{
name = top;
position = "{247, 700}";
},
{
name = topleft;
position = "{20, 700}";
},
{
name = topright;
position = "{474, 700}";
}
);
background = {
anchors = (
{
name = bottom;
position = "{247, 0}";
},
{
name = center;
position = "{247, 350}";
},
{
name = ogonek;
position = "{287, 0}";
},
{
name = top;
position = "{247, 700}";
},
{
name = topleft;
position = "{20, 700}";
},
{
name = topright;
position = "{474, 700}";
}
);
paths = (
{
closed = 1;
nodes = (
"360 -6 OFFCURVE",
"448 132 OFFCURVE",
"448 350 CURVE SMOOTH",
"448 568 OFFCURVE",
"360 706 OFFCURVE",
"247 706 CURVE SMOOTH",
"134 706 OFFCURVE",
"46 568 OFFCURVE",
"46 350 CURVE SMOOTH",
"46 132 OFFCURVE",
"134 -6 OFFCURVE",
"247 -6 CURVE SMOOTH"
);
},
{
closed = 1;
nodes = (
"161 6 OFFCURVE",
"106 140 OFFCURVE",
"106 350 CURVE SMOOTH",
"106 560 OFFCURVE",
"161 694 OFFCURVE",
"247 694 CURVE SMOOTH",
"333 694 OFFCURVE",
"388 560 OFFCURVE",
"388 350 CURVE SMOOTH",
"388 140 OFFCURVE",
"333 6 OFFCURVE",
"247 6 CURVE SMOOTH"
);
}
);
};
layerId = "11FB3604-FD70-4670-A6A6-DB9438128FDF";
paths = (
{
closed = 1;
nodes = (
"360 -6 OFFCURVE",
"448 132 OFFCURVE",
"448 350 CURVE SMOOTH",
"448 568 OFFCURVE",
"360 706 OFFCURVE",
"247 706 CURVE SMOOTH",
"134 706 OFFCURVE",
"46 568 OFFCURVE",
"46 350 CURVE SMOOTH",
"46 132 OFFCURVE",
"134 -6 OFFCURVE",
"247 -6 CURVE SMOOTH"
);
},
{
closed = 1;
nodes = (
"161 6 OFFCURVE",
"106 140 OFFCURVE",
"106 350 CURVE SMOOTH",
"106 560 OFFCURVE",
"161 694 OFFCURVE",
"247 694 CURVE SMOOTH",
"333 694 OFFCURVE",
"388 560 OFFCURVE",
"388 350 CURVE SMOOTH",
"388 140 OFFCURVE",
"333 6 OFFCURVE",
"247 6 CURVE SMOOTH"
);
}
);
width = 494;
}
);
leftKerningGroup = O;
rightKerningGroup = O;
unicode = 004F;
},
{
glyphname = P;
lastChange = "2025-04-05 11:24:18 +0000";
layers = (
{
background = {
hints = (
{
scale = "{1, -1}";
type = Corner;
name = _corner.rightSerif;
options = 1;
},
{
scale = "{1, -1}";
type = Corner;
name = _corner.rightSerif;
options = 1;
},
{
type = Corner;
name = _corner.leftSerif;
},
{
scale = "{1, -1}";
type = Corner;
name = _corner.rightSerif;
options = 1;
},
{
scale = "{1, -1}";
type = Corner;
name = _corner.rightSerif;
options = 1;
},
{
type = Corner;
name = _corner.leftSerif;
},
{
scale = "{1, -1}";
type = Corner;
name = _corner.rightSerif;
options = 1;
},
{
scale = "{1, -1}";
type = Corner;
name = _corner.rightSerif;
options = 1;
},
{
type = Corner;
name = _corner.leftSerif;
},
{
scale = "{1, -1}";
type = Corner;
name = _corner.leftSerif;
options = 1;
},
{
scale = "{1, -1}";
type = Corner;
name = _corner.rightSerif;
options = 1;
},
{
type = Corner;
name = _corner.leftSerif;
},
{
scale = "{1, -1}";
type = Corner;
name = _corner.leftSerif;
options = 1;
},
{
scale = "{1, -1}";
type = Corner;
name = _corner.rightSerif;
options = 1;
},
{
type = Corner;
name = _corner.leftSerif;
},
{
scale = "{1, -1}";
type = Corner;
name = _corner.leftSerif;
options = 1;
},
{
scale = "{1, -1}";
type = Corner;
name = _corner.rightSerif;
options = 1;
},
{
type = Corner;
name = _corner.leftSerif;
},
{
scale = "{1, -1}";
type = Corner;
name = _corner.leftSerif;
options = 1;
},
{
scale = "{1, -1}";
type = Corner;
name = _corner.rightSerif;
options = 1;
},
{
type = Corner;
name = _corner.leftSerif;
},
{
scale = "{1, -1}";
type = Corner;
name = _corner.leftSerif;
options = 1;
},
{
scale = "{1, -1}";
type = Corner;
name = _corner.rightSerif;
options = 1;
},
{
type = Corner;
name = _corner.leftSerif;
},
{
scale = "{1, -1}";
type = Corner;
name = _corner.leftSerif;
options = 1;
},
{
scale = "{1, -1}";
type = Corner;
name = _corner.rightSerif;
options = 1;
},
{
type = Corner;
name = _corner.leftSerif;
},
{
scale = "{1, -1}";
type = Corner;
name = _corner.leftSerif;
options = 1;
},
{
scale = "{1, -1}";
type = Corner;
name = _corner.rightSerif;
options = 1;
},
{
type = Corner;
name = _corner.leftSerif;
},
{
scale = "{1, -1}";
type = Corner;
name = _corner.leftSerif;
options = 1;
},
{
scale = "{1, -1}";
type = Corner;
name = _corner.rightSerif;
options = 1;
},
{
type = Corner;
name = _corner.leftSerif;
},
{
scale = "{1, -1}";
type = Corner;
name = _corner.leftSerif;
options = 1;
},
{
scale = "{1, -1}";
type = Corner;
name = _corner.rightSerif;
options = 1;
},
{
type = Corner;
name = _corner.leftSerif;
},
{
scale = "{1, -1}";
type = Corner;
name = _corner.leftSerif;
options = 1;
},
{
scale = "{1, -1}";
type = Corner;
name = _corner.rightSerif;
options = 1;
},
{
type = Corner;
name = _corner.leftSerif;
},
{
scale = "{1, -1}";
type = Corner;
name = _corner.leftSerif;
options = 1;
},
{
scale = "{1, -1}";
type = Corner;
name = _corner.rightSerif;
options = 1;
},
{
type = Corner;
name = _corner.leftSerif;
},
{
scale = "{1, -1}";
type = Corner;
name = _corner.leftSerif;
options = 1;
},
{
scale = "{1, -1}";
type = Corner;
name = _corner.rightSerif;
options = 1;
},
{
type = Corner;
name = _corner.leftSerif;
},
{
scale = "{1, -1}";
type = Corner;
name = _corner.leftSerif;
options = 1;
},
{
scale = "{1, -1}";
type = Corner;
name = _corner.rightSerif;
options = 1;
},
{
type = Corner;
name = _corner.leftSerif;
},
{
scale = "{1, -1}";
type = Corner;
name = _corner.leftSerif;
options = 1;
},
{
scale = "{1, -1}";
type = Corner;
name = _corner.rightSerif;
options = 1;
},
{
type = Corner;
name = _corner.leftSerif;
},
{
scale = "{1, -1}";
type = Corner;
name = _corner.leftSerif;
options = 1;
},
{
scale = "{1, -1}";
type = Corner;
name = _corner.leftSerif;
options = 1;
},
{
type = Corner;
name = _corner.leftSerif;
},
{
scale = "{1, -1}";
type = Corner;
name = _corner.leftSerif;
options = 1;
},
{
scale = "{1, -1}";
type = Corner;
name = _corner.leftSerif;
options = 1;
},
{
type = Corner;
name = _corner.leftSerif;
},
{
scale = "{1, -1}";
type = Corner;
name = _corner.leftSerif;
options = 1;
},
{
scale = "{1, -1}";
type = Corner;
name = _corner.leftSerif;
options = 1;
},
{
type = Corner;
name = _corner.leftSerif;
},
{
scale = "{1, -1}";
type = Corner;
name = _corner.leftSerif;
options = 1;
},
{
scale = "{1, -1}";
type = Corner;
name = _corner.leftSerif;
options = 1;
},
{
type = Corner;
name = _corner.leftSerif;
},
{
scale = "{1, -1}";
type = Corner;
name = _corner.leftSerif;
options = 1;
},
{
scale = "{1, -1}";
type = Corner;
name = _corner.leftSerif;
options = 1;
},
{
type = Corner;
name = _corner.leftSerif;
},
{
scale = "{1, -1}";
type = Corner;
name = _corner.leftSerif;
options = 1;
},
{
scale = "{1, -1}";
type = Corner;
name = _corner.leftSerif;
options = 1;
},
{
type = Corner;
name = _corner.leftSerif;
},
{
scale = "{1, -1}";
type = Corner;
name = _corner.leftSerif;
options = 1;
},
{
scale = "{1, -1}";
type = Corner;
name = _corner.leftSerif;
options = 1;
},
{
type = Corner;
name = _corner.leftSerif;
},
{
scale = "{1, -1}";
type = Corner;
name = _corner.leftSerif;
options = 1;
},
{
scale = "{1, -1}";
type = Corner;
name = _corner.leftSerif;
options = 1;
},
{
type = Corner;
name = _corner.leftSerif;
},
{
scale = "{1, -1}";
type = Corner;
name = _corner.leftSerif;
options = 1;
},
{
scale = "{1, -1}";
type = Corner;
name = _corner.leftSerif;
options = 1;
},
{
type = Corner;
name = _corner.leftSerif;
},
{
scale = "{1, -1}";
type = Corner;
name = _corner.leftSerif;
options = 1;
},
{
scale = "{1, -1}";
type = Corner;
name = _corner.leftSerif;
options = 1;
},
{
type = Corner;
name = _corner.leftSerif;
},
{
scale = "{1, -1}";
type = Corner;
name = _corner.leftSerif;
options = 1;
},
{
scale = "{1, -1}";
type = Corner;
name = _corner.leftSerif;
options = 1;
},
{
type = Corner;
name = _corner.leftSerif;
},
{
scale = "{1, -1}";
type = Corner;
name = _corner.leftSerif;
options = 1;
},
{
scale = "{1, -1}";
type = Corner;
name = _corner.leftSerif;
options = 1;
},
{
type = Corner;
name = _corner.leftSerif;
},
{
scale = "{1, -1}";
type = Corner;
name = _corner.leftSerif;
options = 1;
},
{
scale = "{1, -1}";
type = Corner;
name = _corner.leftSerif;
options = 1;
},
{
type = Corner;
name = _corner.leftSerif;
},
{
scale = "{1, -1}";
type = Corner;
name = _corner.leftSerif;
options = 1;
},
{
scale = "{1, -1}";
type = Corner;
name = _corner.leftSerif;
options = 1;
},
{
type = Corner;
name = _corner.leftSerif;
},
{
scale = "{1, -1}";
type = Corner;
name = _corner.leftSerif;
options = 1;
},
{
type = Corner;
name = _corner.leftSerif;
},
{
scale = "{1, -1}";
type = Corner;
name = _corner.leftSerif;
options = 1;
},
{
type = Corner;
name = _corner.leftSerif;
},
{
scale = "{1, -1}";
type = Corner;
name = _corner.leftSerif;
options = 1;
},
{
type = Corner;
name = _corner.leftSerif;
},
{
scale = "{1, -1}";
type = Corner;
name = _corner.leftSerif;
options = 1;
},
{
type = Corner;
name = _corner.leftSerif;
},
{
scale = "{1, -1}";
type = Corner;
name = _corner.leftSerif;
options = 1;
},
{
type = Corner;
name = _corner.leftSerif;
},
{
scale = "{1, -1}";
type = Corner;
name = _corner.leftSerif;
options = 1;
},
{
type = Corner;
name = _corner.leftSerif;
},
{
scale = "{1, -1}";
type = Corner;
name = _corner.leftSerif;
options = 1;
},
{
type = Corner;
name = _corner.leftSerif;
},
{
origin = "{0, 16}";
scale = "{1, -1}";
type = Corner;
name = _corner.leftSerif;
options = 1;
},
{
origin = "{0, 17}";
type = Corner;
name = _corner.leftSerif;
}
);
paths = (
{
closed = 1;
nodes = (
"258 0 LINE",
"258 3 LINE",
"170 9 OFFCURVE",
"149 31 OFFCURVE",
"149 91 CURVE SMOOTH",
"149 372 LINE",
"133 372 LINE",
"156 341 OFFCURVE",
"198 323 OFFCURVE",
"246 323 CURVE SMOOTH",
"349 323 OFFCURVE",
"424 406 OFFCURVE",
"424 517 CURVE SMOOTH",
"424 629 OFFCURVE",
"349 700 OFFCURVE",
"233 700 CURVE SMOOTH",
"95 700 LINE",
"95 0 LINE"
);
},
{
closed = 1;
nodes = (
"204 335 OFFCURVE",
"165 352 OFFCURVE",
"149 376 CURVE",
"149 618 LINE SMOOTH",
"149 667 OFFCURVE",
"168 689 OFFCURVE",
"214 689 CURVE SMOOTH",
"234 689 LINE SMOOTH",
"319 689 OFFCURVE",
"368 625 OFFCURVE",
"368 513 CURVE SMOOTH",
"368 404 OFFCURVE",
"320 335 OFFCURVE",
"243 335 CURVE SMOOTH"
);
}
);
};
hints = (
{
origin = "{0, 17}";
type = Corner;
name = _corner.leftSerif;
},
{
origin = "{0, 16}";
scale = "{1, -1}";
type = Corner;
name = _corner.leftSerif;
options = 1;
}
);
layerId = "11FB3604-FD70-4670-A6A6-DB9438128FDF";
paths = (
{
closed = 1;
nodes = (
"258 0 LINE",
"258 3 LINE",
"170 9 OFFCURVE",
"149 31 OFFCURVE",
"149 91 CURVE SMOOTH",
"149 372 LINE",
"133 372 LINE",
"156 341 OFFCURVE",
"198 323 OFFCURVE",
"246 323 CURVE SMOOTH",
"349 323 OFFCURVE",
"424 406 OFFCURVE",
"424 517 CURVE SMOOTH",
"424 629 OFFCURVE",
"349 700 OFFCURVE",
"233 700 CURVE SMOOTH",
"95 700 LINE",
"95 0 LINE"
);
},
{
closed = 1;
nodes = (
"204 335 OFFCURVE",
"165 352 OFFCURVE",
"149 376 CURVE",
"149 618 LINE SMOOTH",
"149 667 OFFCURVE",
"168 689 OFFCURVE",
"214 689 CURVE SMOOTH",
"234 689 LINE SMOOTH",
"319 689 OFFCURVE",
"368 625 OFFCURVE",
"368 513 CURVE SMOOTH",
"368 404 OFFCURVE",
"320 335 OFFCURVE",
"243 335 CURVE SMOOTH"
);
}
);
width = 450;
}
);
leftKerningGroup = H;
rightKerningGroup = P;
unicode = 0050;
},
{
glyphname = Q;
lastChange = "2025-04-05 11:24:18 +0000";
layers = (
{
background = {
components = (
{
locked = 1;
name = O;
}
);
paths = (
{
closed = 1;
nodes = (
"437 -121 LINE",
"382 -91 OFFCURVE",
"327 -62 OFFCURVE",
"272 -31 CURVE SMOOTH",
"184 18 LINE",
"176 18 LINE",
"406 -173 LINE"
);
}
);
};
components = (
{
locked = 1;
name = O;
}
);
layerId = "11FB3604-FD70-4670-A6A6-DB9438128FDF";
paths = (
{
closed = 1;
nodes = (
"437 -121 LINE",
"382 -91 OFFCURVE",
"327 -62 OFFCURVE",
"272 -31 CURVE SMOOTH",
"184 18 LINE",
"176 18 LINE",
"406 -173 LINE"
);
}
);
width = 494;
}
);
leftKerningGroup = O;
leftMetricsKey = O;
rightKerningGroup = O;
rightMetricsKey = O;
unicode = 0051;
},
{
glyphname = R;
lastChange = "2025-04-05 11:24:18 +0000";
layers = (
{
anchors = (
{
name = bottom;
position = "{251, 0}";
},
{
name = top;
position = "{239, 700}";
}
);
background = {
anchors = (
{
name = bottom;
position = "{251, 0}";
},
{
name = top;
position = "{239, 700}";
}
);
hints = (
{
scale = "{1, -1}";
type = Corner;
name = _corner.leftSerif;
options = 1;
},
{
scale = "{1, -1}";
type = Corner;
name = _corner.leftSerif;
options = 1;
},
{
type = Corner;
name = _corner.leftSerif;
},
{
scale = "{1, -1}";
type = Corner;
name = _corner.leftSerif;
options = 1;
},
{
scale = "{1, -1}";
type = Corner;
name = _corner.leftSerif;
options = 1;
},
{
type = Corner;
name = _corner.leftSerif;
},
{
scale = "{1, -1}";
type = Corner;
name = _corner.leftSerif;
options = 1;
},
{
scale = "{1, -1}";
type = Corner;
name = _corner.leftSerif;
options = 1;
},
{
type = Corner;
name = _corner.leftSerif;
},
{
origin = "{0, 0}";
scale = "{1, -1}";
type = Corner;
name = _corner.leftSerif;
options = 1;
},
{
origin = "{0, 12}";
scale = "{1, -1}";
type = Corner;
name = _corner.leftSerif;
options = 1;
},
{
origin = "{0, 13}";
type = Corner;
name = _corner.leftSerif;
}
);
paths = (
{
closed = 1;
nodes = (
"149 0 LINE",
"149 382 LINE",
"133 382 LINE",
"155 351 OFFCURVE",
"194 333 OFFCURVE",
"239 333 CURVE SMOOTH",
"340 333 OFFCURVE",
"414 412 OFFCURVE",
"414 519 CURVE SMOOTH",
"414 629 OFFCURVE",
"338 700 OFFCURVE",
"223 700 CURVE SMOOTH",
"95 700 LINE",
"95 0 LINE"
);
},
{
closed = 1;
nodes = (
"452 0 LINE",
"452 4 LINE",
"411 62 OFFCURVE",
"371 119 OFFCURVE",
"332 177 CURVE SMOOTH",
"224 340 LINE",
"209 340 LINE",
"296 163 LINE SMOOTH",
"323 109 OFFCURVE",
"349 54 OFFCURVE",
"376 0 CURVE"
);
},
{
closed = 1;
nodes = (
"200 345 OFFCURVE",
"164 362 OFFCURVE",
"149 386 CURVE",
"149 618 LINE SMOOTH",
"149 667 OFFCURVE",
"168 689 OFFCURVE",
"214 689 CURVE SMOOTH",
"224 689 LINE SMOOTH",
"309 689 OFFCURVE",
"358 625 OFFCURVE",
"358 513 CURVE SMOOTH",
"358 410 OFFCURVE",
"311 345 OFFCURVE",
"236 345 CURVE SMOOTH"
);
}
);
};
hints = (
{
origin = "{0, 12}";
scale = "{1, -1}";
type = Corner;
name = _corner.leftSerif;
options = 1;
},
{
origin = "{0, 13}";
type = Corner;
name = _corner.leftSerif;
},
{
origin = "{0, 0}";
scale = "{1, -1}";
type = Corner;
name = _corner.leftSerif;
options = 1;
}
);
layerId = "11FB3604-FD70-4670-A6A6-DB9438128FDF";
paths = (
{
closed = 1;
nodes = (
"149 0 LINE",
"149 382 LINE",
"133 382 LINE",
"155 351 OFFCURVE",
"194 333 OFFCURVE",
"239 333 CURVE SMOOTH",
"340 333 OFFCURVE",
"414 412 OFFCURVE",
"414 519 CURVE SMOOTH",
"414 629 OFFCURVE",
"338 700 OFFCURVE",
"223 700 CURVE SMOOTH",
"95 700 LINE",
"95 0 LINE"
);
},
{
closed = 1;
nodes = (
"452 0 LINE",
"452 4 LINE",
"411 62 OFFCURVE",
"371 119 OFFCURVE",
"332 177 CURVE SMOOTH",
"224 340 LINE",
"209 340 LINE",
"296 163 LINE SMOOTH",
"323 109 OFFCURVE",
"349 54 OFFCURVE",
"376 0 CURVE"
);
},
{
closed = 1;
nodes = (
"200 345 OFFCURVE",
"164 362 OFFCURVE",
"149 386 CURVE",
"149 618 LINE SMOOTH",
"149 667 OFFCURVE",
"168 689 OFFCURVE",
"214 689 CURVE SMOOTH",
"224 689 LINE SMOOTH",
"309 689 OFFCURVE",
"358 625 OFFCURVE",
"358 513 CURVE SMOOTH",
"358 410 OFFCURVE",
"311 345 OFFCURVE",
"236 345 CURVE SMOOTH"
);
}
);
width = 462;
}
);
leftKerningGroup = H;
leftMetricsKey = H;
unicode = 0052;
},
{
glyphname = S;
lastChange = "2025-04-05 11:24:18 +0000";
layers = (
{
anchors = (
{
name = bottom;
position = "{195, 0}";
},
{
name = top;
position = "{199, 700}";
}
);
background = {
anchors = (
{
name = bottom;
position = "{195, 0}";
},
{
name = top;
position = "{199, 700}";
}
);
hints = (
{
scale = "{1, -1}";
type = Corner;
name = _corner.leftSerif;
options = 1;
},
{
type = Corner;
name = _corner.leftSerif;
}
);
paths = (
{
closed = 1;
nodes = (
"76 -6 LINE",
"81 12 OFFCURVE",
"89 19 OFFCURVE",
"102 19 CURVE SMOOTH",
"127 19 OFFCURVE",
"148 -8 OFFCURVE",
"202 -8 CURVE SMOOTH",
"285 -8 OFFCURVE",
"352 55 OFFCURVE",
"352 175 CURVE SMOOTH",
"352 265 OFFCURVE",
"313 321 OFFCURVE",
"217 389 CURVE SMOOTH",
"126 454 OFFCURVE",
"98 503 OFFCURVE",
"98 563 CURVE SMOOTH",
"98 643 OFFCURVE",
"131 694 OFFCURVE",
"192 694 CURVE SMOOTH",
"250 694 OFFCURVE",
"296 649 OFFCURVE",
"336 488 CURVE",
"339 488 LINE",
"312 708 LINE",
"309 708 LINE",
"304 687 OFFCURVE",
"294 684 OFFCURVE",
"284 684 CURVE SMOOTH",
"256 684 OFFCURVE",
"236 706 OFFCURVE",
"190 706 CURVE SMOOTH",
"109 706 OFFCURVE",
"54 636 OFFCURVE",
"54 543 CURVE SMOOTH",
"54 462 OFFCURVE",
"104 403 OFFCURVE",
"183 346 CURVE SMOOTH",
"264 288 OFFCURVE",
"306 245 OFFCURVE",
"306 160 CURVE SMOOTH",
"306 58 OFFCURVE",
"254 4 OFFCURVE",
"197 4 CURVE SMOOTH",
"139 4 OFFCURVE",
"88 59 OFFCURVE",
"47 231 CURVE",
"44 231 LINE",
"73 -6 LINE"
);
}
);
};
layerId = "11FB3604-FD70-4670-A6A6-DB9438128FDF";
paths = (
{
closed = 1;
nodes = (
"76 -6 LINE",
"81 12 OFFCURVE",
"89 19 OFFCURVE",
"102 19 CURVE SMOOTH",
"127 19 OFFCURVE",
"148 -8 OFFCURVE",
"202 -8 CURVE SMOOTH",
"285 -8 OFFCURVE",
"352 55 OFFCURVE",
"352 175 CURVE SMOOTH",
"352 265 OFFCURVE",
"313 321 OFFCURVE",
"217 389 CURVE SMOOTH",
"126 454 OFFCURVE",
"98 503 OFFCURVE",
"98 563 CURVE SMOOTH",
"98 643 OFFCURVE",
"131 694 OFFCURVE",
"192 694 CURVE SMOOTH",
"250 694 OFFCURVE",
"296 649 OFFCURVE",
"336 488 CURVE",
"339 488 LINE",
"312 708 LINE",
"309 708 LINE",
"304 687 OFFCURVE",
"294 684 OFFCURVE",
"284 684 CURVE SMOOTH",
"256 684 OFFCURVE",
"236 706 OFFCURVE",
"190 706 CURVE SMOOTH",
"109 706 OFFCURVE",
"54 636 OFFCURVE",
"54 543 CURVE SMOOTH",
"54 462 OFFCURVE",
"104 403 OFFCURVE",
"183 346 CURVE SMOOTH",
"264 288 OFFCURVE",
"306 245 OFFCURVE",
"306 160 CURVE SMOOTH",
"306 58 OFFCURVE",
"254 4 OFFCURVE",
"197 4 CURVE SMOOTH",
"139 4 OFFCURVE",
"88 59 OFFCURVE",
"47 231 CURVE",
"44 231 LINE",
"73 -6 LINE"
);
}
);
width = 392;
}
);
leftKerningGroup = S;
rightKerningGroup = S;
unicode = 0053;
},
{
glyphname = T;
lastChange = "2025-04-05 11:24:18 +0000";
layers = (
{
anchors = (
{
name = bottom;
position = "{228, 0}";
},
{
name = center;
position = "{228, 350}";
},
{
name = top;
position = "{228, 700}";
}
);
background = {
anchors = (
{
name = bottom;
position = "{228, 0}";
},
{
name = center;
position = "{228, 350}";
},
{
name = top;
position = "{228, 700}";
}
);
hints = (
{
scale = "{1, -1}";
type = Corner;
name = _corner.leftSerif;
options = 1;
},
{
type = Corner;
name = _corner.leftSerif;
},
{
scale = "{1, -1}";
type = Corner;
name = _corner.leftSerif;
options = 1;
},
{
type = Corner;
name = _corner.leftSerif;
},
{
scale = "{1, -1}";
type = Corner;
name = _corner.leftSerif;
options = 1;
},
{
type = Corner;
name = _corner.leftSerif;
},
{
scale = "{1, -1}";
type = Corner;
name = _corner.leftSerif;
options = 1;
},
{
type = Corner;
name = _corner.leftSerif;
},
{
scale = "{1, -1}";
type = Corner;
name = _corner.leftSerif;
options = 1;
},
{
type = Corner;
name = _corner.leftSerif;
},
{
scale = "{1, -1}";
type = Corner;
name = _corner.leftSerif;
options = 1;
},
{
type = Corner;
name = _corner.leftSerif;
},
{
scale = "{1, -1}";
type = Corner;
name = _corner.leftSerif;
options = 1;
},
{
type = Corner;
name = _corner.leftSerif;
},
{
scale = "{1, -1}";
type = Corner;
name = _corner.leftSerif;
options = 1;
},
{
type = Corner;
name = _corner.leftSerif;
},
{
scale = "{1, -1}";
type = Corner;
name = _corner.leftSerif;
options = 1;
},
{
type = Corner;
name = _corner.leftSerif;
},
{
scale = "{1, -1}";
type = Corner;
name = _corner.leftSerif;
options = 1;
},
{
type = Corner;
name = _corner.leftSerif;
},
{
scale = "{1, -1}";
type = Corner;
name = _corner.leftSerif;
options = 1;
},
{
type = Corner;
name = _corner.leftSerif;
},
{
scale = "{1, -1}";
type = Corner;
name = _corner.leftSerif;
options = 1;
},
{
type = Corner;
name = _corner.leftSerif;
},
{
scale = "{1, -1}";
type = Corner;
name = _corner.leftSerif;
options = 1;
},
{
type = Corner;
name = _corner.leftSerif;
},
{
scale = "{1, -1}";
type = Corner;
name = _corner.leftSerif;
options = 1;
},
{
type = Corner;
name = _corner.leftSerif;
},
{
scale = "{1, -1}";
type = Corner;
name = _corner.leftSerif;
options = 1;
},
{
type = Corner;
name = _corner.leftSerif;
},
{
scale = "{1, -1}";
type = Corner;
name = _corner.leftSerif;
options = 1;
},
{
type = Corner;
name = _corner.leftSerif;
},
{
scale = "{1, -1}";
type = Corner;
name = _corner.leftSerif;
options = 1;
},
{
type = Corner;
name = _corner.leftSerif;
},
{
scale = "{1, -1}";
type = Corner;
name = _corner.leftSerif;
options = 1;
},
{
type = Corner;
name = _corner.leftSerif;
},
{
scale = "{1, -1}";
type = Corner;
name = _corner.leftSerif;
options = 1;
},
{
type = Corner;
name = _corner.leftSerif;
},
{
scale = "{1, -1}";
type = Corner;
name = _corner.leftSerif;
options = 1;
},
{
type = Corner;
name = _corner.leftSerif;
},
{
scale = "{1, -1}";
type = Corner;
name = _corner.leftSerif;
options = 1;
},
{
type = Corner;
name = _corner.leftSerif;
},
{
scale = "{1, -1}";
type = Corner;
name = _corner.leftSerif;
options = 1;
},
{
type = Corner;
name = _corner.leftSerif;
},
{
scale = "{1, -1}";
type = Corner;
name = _corner.leftSerif;
options = 1;
},
{
type = Corner;
name = _corner.leftSerif;
},
{
scale = "{1, -1}";
type = Corner;
name = _corner.leftSerif;
options = 1;
},
{
scale = "{1, -1}";
type = Corner;
name = _corner.leftSerif;
options = 1;
},
{
type = Corner;
name = _corner.leftSerif;
},
{
scale = "{1, -1}";
type = Corner;
name = _corner.leftSerif;
options = 1;
},
{
type = Corner;
name = _corner.leftSerif;
}
);
paths = (
{
closed = 1;
nodes = (
"354 0 LINE",
"354 3 LINE",
"276 9 OFFCURVE",
"255 29 OFFCURVE",
"255 86 CURVE SMOOTH",
"255 634 LINE SMOOTH",
"255 676 OFFCURVE",
"265 689 OFFCURVE",
"302 689 CURVE SMOOTH",
"315 689 LINE SMOOTH",
"371 689 OFFCURVE",
"379 663 OFFCURVE",
"432 493 CURVE",
"435 493 LINE",
"406 725 LINE",
"403 725 LINE",
"395 707 OFFCURVE",
"380 700 OFFCURVE",
"348 700 CURVE SMOOTH",
"108 700 LINE SMOOTH",
"76 700 OFFCURVE",
"61 707 OFFCURVE",
"53 725 CURVE",
"50 725 LINE",
"21 493 LINE",
"24 493 LINE",
"77 663 OFFCURVE",
"85 689 OFFCURVE",
"141 689 CURVE SMOOTH",
"154 689 LINE SMOOTH",
"191 689 OFFCURVE",
"201 676 OFFCURVE",
"201 634 CURVE SMOOTH",
"201 86 LINE SMOOTH",
"201 29 OFFCURVE",
"180 9 OFFCURVE",
"102 3 CURVE",
"102 0 LINE"
);
}
);
};
layerId = "11FB3604-FD70-4670-A6A6-DB9438128FDF";
paths = (
{
closed = 1;
nodes = (
"354 0 LINE",
"354 3 LINE",
"276 9 OFFCURVE",
"255 29 OFFCURVE",
"255 86 CURVE SMOOTH",
"255 634 LINE SMOOTH",
"255 676 OFFCURVE",
"265 689 OFFCURVE",
"302 689 CURVE SMOOTH",
"315 689 LINE SMOOTH",
"371 689 OFFCURVE",
"379 663 OFFCURVE",
"432 493 CURVE",
"435 493 LINE",
"406 725 LINE",
"403 725 LINE",
"395 707 OFFCURVE",
"380 700 OFFCURVE",
"348 700 CURVE SMOOTH",
"108 700 LINE SMOOTH",
"76 700 OFFCURVE",
"61 707 OFFCURVE",
"53 725 CURVE",
"50 725 LINE",
"21 493 LINE",
"24 493 LINE",
"77 663 OFFCURVE",
"85 689 OFFCURVE",
"141 689 CURVE SMOOTH",
"154 689 LINE SMOOTH",
"191 689 OFFCURVE",
"201 676 OFFCURVE",
"201 634 CURVE SMOOTH",
"201 86 LINE SMOOTH",
"201 29 OFFCURVE",
"180 9 OFFCURVE",
"102 3 CURVE",
"102 0 LINE"
);
}
);
width = 456;
}
);
leftKerningGroup = T;
rightKerningGroup = T;
rightMetricsKey = "=|";
unicode = 0054;
},
{
glyphname = U;
lastChange = "2025-04-05 11:24:18 +0000";
layers = (
{
anchors = (
{
name = bottom;
position = "{258, 0}";
},
{
name = ogonek;
position = "{299, 0}";
},
{
name = top;
position = "{262, 700}";
},
{
name = topright;
position = "{466, 700}";
}
);
background = {
anchors = (
{
name = bottom;
position = "{258, 0}";
},
{
name = ogonek;
position = "{299, 0}";
},
{
name = top;
position = "{262, 700}";
},
{
name = topright;
position = "{466, 700}";
}
);
hints = (
{
type = Corner;
name = _corner.leftSerif;
},
{
scale = "{1, -1}";
type = Corner;
name = _corner.rightSerif;
options = 1;
},
{
type = Corner;
name = _corner.leftSerif;
},
{
scale = "{1, -1}";
type = Corner;
name = _corner.rightSerif;
options = 1;
},
{
type = Corner;
name = _corner.leftSerif;
},
{
scale = "{1, -1}";
type = Corner;
name = _corner.rightSerif;
options = 1;
},
{
type = Corner;
name = _corner.leftSerif;
},
{
scale = "{1, -1}";
type = Corner;
name = _corner.rightSerif;
options = 1;
},
{
type = Corner;
name = _corner.leftSerif;
},
{
scale = "{1, -1}";
type = Corner;
name = _corner.rightSerif;
options = 1;
},
{
type = Corner;
name = _corner.leftSerif;
},
{
scale = "{1, -1}";
type = Corner;
name = _corner.rightSerif;
options = 1;
},
{
type = Corner;
name = _corner.leftSerif;
},
{
scale = "{1, -1}";
type = Corner;
name = _corner.rightSerif;
options = 1;
},
{
type = Corner;
name = _corner.leftSerif;
},
{
scale = "{1, -1}";
type = Corner;
name = _corner.rightSerif;
options = 1;
},
{
type = Corner;
name = _corner.leftSerif;
},
{
scale = "{1, -1}";
type = Corner;
name = _corner.rightSerif;
options = 1;
},
{
type = Corner;
name = _corner.leftSerif;
},
{
scale = "{1, -1}";
type = Corner;
name = _corner.rightSerif;
options = 1;
},
{
type = Corner;
name = _corner.leftSerif;
},
{
scale = "{1, -1}";
type = Corner;
name = _corner.rightSerif;
options = 1;
},
{
type = Corner;
name = _corner.leftSerif;
},
{
scale = "{1, -1}";
type = Corner;
name = _corner.rightSerif;
options = 1;
},
{
type = Corner;
name = _corner.leftSerif;
},
{
scale = "{1, -1}";
type = Corner;
name = _corner.rightSerif;
options = 1;
},
{
type = Corner;
name = _corner.leftSerif;
},
{
scale = "{1, -1}";
type = Corner;
name = _corner.rightSerif;
options = 1;
},
{
type = Corner;
name = _corner.leftSerif;
},
{
scale = "{1, -1}";
type = Corner;
name = _corner.rightSerif;
options = 1;
},
{
type = Corner;
name = _corner.leftSerif;
},
{
scale = "{1, -1}";
type = Corner;
name = _corner.rightSerif;
options = 1;
},
{
type = Corner;
name = _corner.leftSerif;
},
{
scale = "{1, -1}";
type = Corner;
name = _corner.rightSerif;
options = 1;
},
{
type = Corner;
name = _corner.leftSerif;
},
{
scale = "{1, -1}";
type = Corner;
name = _corner.rightSerif;
options = 1;
},
{
type = Corner;
name = _corner.leftSerif;
},
{
scale = "{1, -1}";
type = Corner;
name = _corner.rightSerif;
options = 1;
},
{
type = Corner;
name = _corner.leftSerif;
},
{
scale = "{1, -1}";
type = Corner;
name = _corner.rightSerif;
options = 1;
},
{
type = Corner;
name = _corner.leftSerif;
},
{
scale = "{1, -1}";
type = Corner;
name = _corner.rightSerif;
options = 1;
},
{
type = Corner;
name = _corner.leftSerif;
},
{
scale = "{1, -1}";
type = Corner;
name = _corner.rightSerif;
options = 1;
},
{
type = Corner;
name = _corner.leftSerif;
},
{
scale = "{1, -1}";
type = Corner;
name = _corner.rightSerif;
options = 1;
},
{
type = Corner;
name = _corner.leftSerif;
},
{
scale = "{1, -1}";
type = Corner;
name = _corner.rightSerif;
options = 1;
},
{
type = Corner;
name = _corner.leftSerif;
},
{
scale = "{1, -1}";
type = Corner;
name = _corner.rightSerif;
options = 1;
},
{
type = Corner;
name = _corner.leftSerif;
},
{
scale = "{1, -1}";
type = Corner;
name = _corner.rightSerif;
options = 1;
},
{
type = Corner;
name = _corner.rightSerif;
},
{
scale = "{1, -1}";
type = Corner;
name = _corner.leftSerif;
options = 1;
},
{
type = Corner;
name = _corner.leftSerif;
},
{
scale = "{1, -1}";
type = Corner;
name = _corner.rightSerif;
options = 1;
},
{
type = Corner;
name = _corner.rightSerif;
},
{
scale = "{1, -1}";
type = Corner;
name = _corner.leftSerif;
options = 1;
},
{
type = Corner;
name = _corner.leftSerif;
},
{
scale = "{1, -1}";
type = Corner;
name = _corner.rightSerif;
options = 1;
},
{
type = Corner;
name = _corner.rightSerif;
},
{
scale = "{1, -1}";
type = Corner;
name = _corner.leftSerif;
options = 1;
},
{
type = Corner;
name = _corner.leftSerif;
},
{
scale = "{1, -1}";
type = Corner;
name = _corner.rightSerif;
options = 1;
},
{
type = Corner;
name = _corner.rightSerif;
},
{
scale = "{1, -1}";
type = Corner;
name = _corner.leftSerif;
options = 1;
},
{
type = Corner;
name = _corner.leftSerif;
},
{
scale = "{1, -1}";
type = Corner;
name = _corner.rightSerif;
options = 1;
},
{
type = Corner;
name = _corner.rightSerif;
},
{
scale = "{1, -1}";
type = Corner;
name = _corner.leftSerif;
options = 1;
},
{
type = Corner;
name = _corner.leftSerif;
},
{
scale = "{1, -1}";
type = Corner;
name = _corner.rightSerif;
options = 1;
},
{
type = Corner;
name = _corner.rightSerif;
},
{
scale = "{1, -1}";
type = Corner;
name = _corner.leftSerif;
options = 1;
},
{
type = Corner;
name = _corner.leftSerif;
},
{
scale = "{1, -1}";
type = Corner;
name = _corner.rightSerif;
options = 1;
},
{
type = Corner;
name = _corner.rightSerif;
},
{
scale = "{1, -1}";
type = Corner;
name = _corner.leftSerif;
options = 1;
},
{
type = Corner;
name = _corner.leftSerif;
},
{
scale = "{1, -1}";
type = Corner;
name = _corner.rightSerif;
options = 1;
},
{
type = Corner;
name = _corner.rightSerif;
},
{
scale = "{1, -1}";
type = Corner;
name = _corner.leftSerif;
options = 1;
},
{
type = Corner;
name = _corner.leftSerif;
},
{
scale = "{1, -1}";
type = Corner;
name = _corner.rightSerif;
options = 1;
},
{
type = Corner;
name = _corner.rightSerif;
},
{
scale = "{1, -1}";
type = Corner;
name = _corner.leftSerif;
options = 1;
},
{
type = Corner;
name = _corner.leftSerif;
},
{
scale = "{1, -1}";
type = Corner;
name = _corner.rightSerif;
options = 1;
},
{
type = Corner;
name = _corner.rightSerif;
},
{
scale = "{1, -1}";
type = Corner;
name = _corner.leftSerif;
options = 1;
},
{
type = Corner;
name = _corner.leftSerif;
},
{
scale = "{1, -1}";
type = Corner;
name = _corner.rightSerif;
options = 1;
},
{
type = Corner;
name = _corner.rightSerif;
},
{
scale = "{1, -1}";
type = Corner;
name = _corner.leftSerif;
options = 1;
},
{
type = Corner;
name = _corner.leftSerif;
},
{
scale = "{1, -1}";
type = Corner;
name = _corner.rightSerif;
options = 1;
},
{
type = Corner;
name = _corner.rightSerif;
},
{
scale = "{1, -1}";
type = Corner;
name = _corner.leftSerif;
options = 1;
},
{
type = Corner;
name = _corner.leftSerif;
},
{
scale = "{1, -1}";
type = Corner;
name = _corner.rightSerif;
options = 1;
},
{
type = Corner;
name = _corner.rightSerif;
},
{
scale = "{1, -1}";
type = Corner;
name = _corner.rightSerif;
options = 1;
},
{
type = Corner;
name = _corner.rightSerif;
},
{
scale = "{1, -1}";
type = Corner;
name = _corner.leftSerif;
options = 1;
},
{
type = Corner;
name = _corner.rightSerif;
},
{
scale = "{1, -1}";
type = Corner;
name = _corner.rightSerif;
options = 1;
},
{
type = Corner;
name = _corner.rightSerif;
},
{
scale = "{1, -1}";
type = Corner;
name = _corner.leftSerif;
options = 1;
},
{
type = Corner;
name = _corner.rightSerif;
},
{
scale = "{1, -1}";
type = Corner;
name = _corner.rightSerif;
options = 1;
},
{
type = Corner;
name = _corner.rightSerif;
},
{
scale = "{1, -1}";
type = Corner;
name = _corner.leftSerif;
options = 1;
},
{
type = Corner;
name = _corner.rightSerif;
},
{
scale = "{1, -1}";
type = Corner;
name = _corner.rightSerif;
options = 1;
},
{
type = Corner;
name = _corner.rightSerif;
},
{
scale = "{1, -1}";
type = Corner;
name = _corner.leftSerif;
options = 1;
},
{
origin = "{0, 3}";
type = Corner;
name = _corner.rightSerif;
},
{
origin = "{0, 4}";
scale = "{1, -1}";
type = Corner;
name = _corner.rightSerif;
options = 1;
},
{
origin = "{0, 12}";
type = Corner;
name = _corner.rightSerif;
},
{
origin = "{0, 13}";
scale = "{1, -1}";
type = Corner;
name = _corner.leftSerif;
options = 1;
}
);
paths = (
{
closed = 1;
nodes = (
"351 -8 OFFCURVE",
"405 79 OFFCURVE",
"405 212 CURVE SMOOTH",
"405 700 LINE",
"391 700 LINE",
"391 212 LINE SMOOTH",
"391 93 OFFCURVE",
"342 14 OFFCURVE",
"266 14 CURVE SMOOTH",
"191 14 OFFCURVE",
"143 89 OFFCURVE",
"143 202 CURVE SMOOTH",
"143 700 LINE",
"89 700 LINE",
"89 202 LINE SMOOTH",
"89 75 OFFCURVE",
"152 -8 OFFCURVE",
"251 -8 CURVE SMOOTH"
);
}
);
};
hints = (
{
origin = "{0, 12}";
type = Corner;
name = _corner.rightSerif;
},
{
origin = "{0, 13}";
scale = "{1, -1}";
type = Corner;
name = _corner.leftSerif;
options = 1;
},
{
origin = "{0, 4}";
scale = "{1, -1}";
type = Corner;
name = _corner.rightSerif;
options = 1;
},
{
origin = "{0, 3}";
type = Corner;
name = _corner.rightSerif;
}
);
layerId = "11FB3604-FD70-4670-A6A6-DB9438128FDF";
paths = (
{
closed = 1;
nodes = (
"351 -8 OFFCURVE",
"405 79 OFFCURVE",
"405 212 CURVE SMOOTH",
"405 700 LINE",
"391 700 LINE",
"391 212 LINE SMOOTH",
"391 93 OFFCURVE",
"342 14 OFFCURVE",
"266 14 CURVE SMOOTH",
"191 14 OFFCURVE",
"143 89 OFFCURVE",
"143 202 CURVE SMOOTH",
"143 700 LINE",
"89 700 LINE",
"89 202 LINE SMOOTH",
"89 75 OFFCURVE",
"152 -8 OFFCURVE",
"251 -8 CURVE SMOOTH"
);
}
);
width = 486;
}
);
leftKerningGroup = U;
rightKerningGroup = U;
unicode = 0055;
},
{
glyphname = V;
lastChange = "2025-04-05 11:24:18 +0000";
layers = (
{
background = {
paths = (
{
closed = 1;
nodes = (
"237 -8 LINE",
"378 601 LINE SMOOTH",
"395 675 OFFCURVE",
"412 693 OFFCURVE",
"474 697 CURVE",
"474 700 LINE",
"305 700 LINE",
"305 697 LINE",
"372 694 OFFCURVE",
"381 679 OFFCURVE",
"363 600 CURVE SMOOTH",
"246 92 LINE",
"258 104 LINE",
"132 602 LINE SMOOTH",
"112 680 OFFCURVE",
"130 695 OFFCURVE",
"197 697 CURVE",
"197 700 LINE",
"-22 700 LINE",
"-22 697 LINE",
"35 693 OFFCURVE",
"58 676 OFFCURVE",
"73 615 CURVE SMOOTH",
"233 -8 LINE"
);
}
);
};
layerId = "11FB3604-FD70-4670-A6A6-DB9438128FDF";
paths = (
{
closed = 1;
nodes = (
"237 -8 LINE",
"378 601 LINE SMOOTH",
"395 675 OFFCURVE",
"412 693 OFFCURVE",
"474 697 CURVE",
"474 700 LINE",
"305 700 LINE",
"305 697 LINE",
"372 694 OFFCURVE",
"381 679 OFFCURVE",
"363 600 CURVE SMOOTH",
"246 92 LINE",
"258 104 LINE",
"132 602 LINE SMOOTH",
"112 680 OFFCURVE",
"130 695 OFFCURVE",
"197 697 CURVE",
"197 700 LINE",
"-22 700 LINE",
"-22 697 LINE",
"35 693 OFFCURVE",
"58 676 OFFCURVE",
"73 615 CURVE SMOOTH",
"233 -8 LINE"
);
}
);
width = 452;
}
);
leftKerningGroup = V;
rightKerningGroup = V;
unicode = 0056;
},
{
glyphname = W;
lastChange = "2025-04-05 11:24:18 +0000";
layers = (
{
anchors = (
{
name = bottom;
position = "{307, 0}";
},
{
name = top;
position = "{327, 700}";
}
);
background = {
anchors = (
{
name = bottom;
position = "{307, 0}";
},
{
name = top;
position = "{327, 700}";
}
);
paths = (
{
closed = 1;
nodes = (
"419 -8 LINE",
"546 618 LINE SMOOTH",
"558 677 OFFCURVE",
"583 692 OFFCURVE",
"640 697 CURVE",
"640 700 LINE",
"192 700 LINE",
"192 697 LINE",
"229 695 OFFCURVE",
"239 680 OFFCURVE",
"249 639 CURVE SMOOTH",
"415 -8 LINE"
);
},
{
closed = 1;
nodes = (
"209 -8 LINE",
"322 416 LINE",
"315 446 LINE",
"224 101 LINE",
"233 101 LINE",
"125 604 LINE SMOOTH",
"108 682 OFFCURVE",
"121 695 OFFCURVE",
"174 697 CURVE",
"174 700 LINE",
"-24 700 LINE",
"-24 697 LINE",
"31 693 OFFCURVE",
"55 677 OFFCURVE",
"71 604 CURVE SMOOTH",
"205 -8 LINE"
);
},
{
closed = 1;
nodes = (
"436 104 LINE",
"304 631 LINE SMOOTH",
"294 672 OFFCURVE",
"305 695 OFFCURVE",
"339 695 CURVE SMOOTH",
"375 695 OFFCURVE",
"387 672 OFFCURVE",
"375 627 CURVE SMOOTH",
"330 462 LINE",
"337 436 LINE",
"389 628 LINE SMOOTH",
"402 675 OFFCURVE",
"409 695 OFFCURVE",
"473 695 CURVE SMOOTH",
"539 695 OFFCURVE",
"541 666 OFFCURVE",
"531 616 CURVE SMOOTH",
"427 102 LINE"
);
}
);
};
layerId = "11FB3604-FD70-4670-A6A6-DB9438128FDF";
paths = (
{
closed = 1;
nodes = (
"419 -8 LINE",
"546 618 LINE SMOOTH",
"558 677 OFFCURVE",
"583 692 OFFCURVE",
"640 697 CURVE",
"640 700 LINE",
"192 700 LINE",
"192 697 LINE",
"229 695 OFFCURVE",
"239 680 OFFCURVE",
"249 639 CURVE SMOOTH",
"415 -8 LINE"
);
},
{
closed = 1;
nodes = (
"209 -8 LINE",
"322 416 LINE",
"315 446 LINE",
"224 101 LINE",
"233 101 LINE",
"125 604 LINE SMOOTH",
"108 682 OFFCURVE",
"121 695 OFFCURVE",
"174 697 CURVE",
"174 700 LINE",
"-24 700 LINE",
"-24 697 LINE",
"31 693 OFFCURVE",
"55 677 OFFCURVE",
"71 604 CURVE SMOOTH",
"205 -8 LINE"
);
},
{
closed = 1;
nodes = (
"436 104 LINE",
"304 631 LINE SMOOTH",
"294 672 OFFCURVE",
"305 695 OFFCURVE",
"339 695 CURVE SMOOTH",
"375 695 OFFCURVE",
"387 672 OFFCURVE",
"375 627 CURVE SMOOTH",
"330 462 LINE",
"337 436 LINE",
"389 628 LINE SMOOTH",
"402 675 OFFCURVE",
"409 695 OFFCURVE",
"473 695 CURVE SMOOTH",
"539 695 OFFCURVE",
"541 666 OFFCURVE",
"531 616 CURVE SMOOTH",
"427 102 LINE"
);
}
);
width = 614;
}
);
leftKerningGroup = W;
rightKerningGroup = W;
unicode = 0057;
},
{
glyphname = X;
lastChange = "2025-04-05 11:24:18 +0000";
layers = (
{
background = {
paths = (
{
closed = 1;
nodes = (
"480 0 LINE",
"480 3 LINE",
"419 7 OFFCURVE",
"398 26 OFFCURVE",
"372 90 CURVE SMOOTH",
"152 624 LINE SMOOTH",
"130 678 OFFCURVE",
"138 695 OFFCURVE",
"198 697 CURVE",
"198 700 LINE",
"0 700 LINE",
"0 697 LINE",
"53 693 OFFCURVE",
"74 672 OFFCURVE",
"100 610 CURVE SMOOTH",
"320 75 LINE SMOOTH",
"342 22 OFFCURVE",
"334 5 OFFCURVE",
"270 3 CURVE",
"270 0 LINE"
);
},
{
closed = 1;
nodes = (
"151 0 LINE",
"151 3 LINE",
"85 6 OFFCURVE",
"75 16 OFFCURVE",
"103 80 CURVE SMOOTH",
"230 366 LINE",
"221 380 LINE",
"87 78 LINE SMOOTH",
"61 20 OFFCURVE",
"40 7 OFFCURVE",
"-22 3 CURVE",
"-22 0 LINE"
);
},
{
closed = 1;
nodes = (
"349 623 LINE SMOOTH",
"375 683 OFFCURVE",
"392 693 OFFCURVE",
"448 697 CURVE",
"448 700 LINE",
"285 700 LINE",
"285 697 LINE",
"352 694 OFFCURVE",
"360 682 OFFCURVE",
"332 618 CURVE SMOOTH",
"237 397 LINE",
"246 384 LINE"
);
}
);
};
layerId = "11FB3604-FD70-4670-A6A6-DB9438128FDF";
paths = (
{
closed = 1;
nodes = (
"480 0 LINE",
"480 3 LINE",
"419 7 OFFCURVE",
"398 26 OFFCURVE",
"372 90 CURVE SMOOTH",
"152 624 LINE SMOOTH",
"130 678 OFFCURVE",
"138 695 OFFCURVE",
"198 697 CURVE",
"198 700 LINE",
"0 700 LINE",
"0 697 LINE",
"53 693 OFFCURVE",
"74 672 OFFCURVE",
"100 610 CURVE SMOOTH",
"320 75 LINE SMOOTH",
"342 22 OFFCURVE",
"334 5 OFFCURVE",
"270 3 CURVE",
"270 0 LINE"
);
},
{
closed = 1;
nodes = (
"151 0 LINE",
"151 3 LINE",
"85 6 OFFCURVE",
"75 16 OFFCURVE",
"103 80 CURVE SMOOTH",
"230 366 LINE",
"221 380 LINE",
"87 78 LINE SMOOTH",
"61 20 OFFCURVE",
"40 7 OFFCURVE",
"-22 3 CURVE",
"-22 0 LINE"
);
},
{
closed = 1;
nodes = (
"349 623 LINE SMOOTH",
"375 683 OFFCURVE",
"392 693 OFFCURVE",
"448 697 CURVE",
"448 700 LINE",
"285 700 LINE",
"285 697 LINE",
"352 694 OFFCURVE",
"360 682 OFFCURVE",
"332 618 CURVE SMOOTH",
"237 397 LINE",
"246 384 LINE"
);
}
);
width = 448;
}
);
unicode = 0058;
},
{
glyphname = Y;
lastChange = "2025-04-05 11:24:18 +0000";
layers = (
{
anchors = (
{
name = bottom;
position = "{214, 0}";
},
{
name = top;
position = "{231, 700}";
},
{
name = topleft;
position = "{22, 700}";
}
);
background = {
anchors = (
{
name = bottom;
position = "{214, 0}";
},
{
name = top;
position = "{231, 700}";
},
{
name = topleft;
position = "{22, 700}";
}
);
hints = (
{
type = Corner;
name = _corner.leftSerif;
},
{
scale = "{1, -1}";
type = Corner;
name = _corner.leftSerif;
options = 1;
},
{
type = Corner;
name = _corner.leftSerif;
},
{
scale = "{1, -1}";
type = Corner;
name = _corner.leftSerif;
options = 1;
},
{
type = Corner;
name = _corner.leftSerif;
},
{
scale = "{1, -1}";
type = Corner;
name = _corner.leftSerif;
options = 1;
},
{
type = Corner;
name = _corner.leftSerif;
},
{
scale = "{1, -1}";
type = Corner;
name = _corner.leftSerif;
options = 1;
},
{
type = Corner;
name = _corner.leftSerif;
},
{
scale = "{1, -1}";
type = Corner;
name = _corner.leftSerif;
options = 1;
},
{
type = Corner;
name = _corner.leftSerif;
},
{
scale = "{1, -1}";
type = Corner;
name = _corner.leftSerif;
options = 1;
},
{
type = Corner;
name = _corner.leftSerif;
},
{
scale = "{1, -1}";
type = Corner;
name = _corner.leftSerif;
options = 1;
},
{
type = Corner;
name = _corner.leftSerif;
},
{
scale = "{1, -1}";
type = Corner;
name = _corner.leftSerif;
options = 1;
},
{
type = Corner;
name = _corner.leftSerif;
},
{
scale = "{1, -1}";
type = Corner;
name = _corner.leftSerif;
options = 1;
},
{
type = Corner;
name = _corner.leftSerif;
},
{
scale = "{1, -1}";
type = Corner;
name = _corner.leftSerif;
options = 1;
},
{
type = Corner;
name = _corner.leftSerif;
},
{
scale = "{1, -1}";
type = Corner;
name = _corner.leftSerif;
options = 1;
},
{
scale = "{1, -1}";
type = Corner;
name = _corner.leftSerif;
options = 1;
},
{
type = Corner;
name = _corner.leftSerif;
},
{
scale = "{1, -1}";
type = Corner;
name = _corner.rightSerif;
options = 1;
},
{
type = Corner;
name = _corner.rightSerif;
},
{
scale = "{1, -1}";
type = Corner;
name = _corner.rightSerif;
options = 1;
},
{
type = Corner;
name = _corner.rightSerif;
},
{
scale = "{1, -1}";
type = Corner;
name = _corner.leftSerif;
options = 1;
},
{
type = Corner;
name = _corner.leftSerif;
}
);
paths = (
{
closed = 1;
nodes = (
"347 0 LINE",
"347 3 LINE",
"269 9 OFFCURVE",
"248 29 OFFCURVE",
"248 86 CURVE SMOOTH",
"248 341 LINE",
"357 615 LINE SMOOTH",
"382 677 OFFCURVE",
"389 694 OFFCURVE",
"450 697 CURVE",
"450 700 LINE",
"292 700 LINE",
"292 697 LINE",
"357 694 OFFCURVE",
"368 682 OFFCURVE",
"341 614 CURVE SMOOTH",
"232 337 LINE",
"247 337 LINE",
"130 622 LINE SMOOTH",
"107 677 OFFCURVE",
"119 695 OFFCURVE",
"183 697 CURVE",
"183 700 LINE",
"-22 700 LINE",
"-22 697 LINE",
"34 692 OFFCURVE",
"50 674 OFFCURVE",
"67 632 CURVE SMOOTH",
"194 328 LINE",
"194 86 LINE SMOOTH",
"194 29 OFFCURVE",
"173 9 OFFCURVE",
"95 3 CURVE",
"95 0 LINE"
);
}
);
};
layerId = "11FB3604-FD70-4670-A6A6-DB9438128FDF";
paths = (
{
closed = 1;
nodes = (
"347 0 LINE",
"347 3 LINE",
"269 9 OFFCURVE",
"248 29 OFFCURVE",
"248 86 CURVE SMOOTH",
"248 341 LINE",
"357 615 LINE SMOOTH",
"382 677 OFFCURVE",
"389 694 OFFCURVE",
"450 697 CURVE",
"450 700 LINE",
"292 700 LINE",
"292 697 LINE",
"357 694 OFFCURVE",
"368 682 OFFCURVE",
"341 614 CURVE SMOOTH",
"232 337 LINE",
"247 337 LINE",
"130 622 LINE SMOOTH",
"107 677 OFFCURVE",
"119 695 OFFCURVE",
"183 697 CURVE",
"183 700 LINE",
"-22 700 LINE",
"-22 697 LINE",
"34 692 OFFCURVE",
"50 674 OFFCURVE",
"67 632 CURVE SMOOTH",
"194 328 LINE",
"194 86 LINE SMOOTH",
"194 29 OFFCURVE",
"173 9 OFFCURVE",
"95 3 CURVE",
"95 0 LINE"
);
}
);
width = 428;
}
);
leftKerningGroup = Y;
rightKerningGroup = Y;
unicode = 0059;
},
{
glyphname = Z;
lastChange = "2025-04-05 11:24:18 +0000";
layers = (
{
anchors = (
{
name = bottom;
position = "{211, 0}";
},
{
name = center;
position = "{211, 350}";
},
{
name = top;
position = "{228, 700}";
}
);
background = {
anchors = (
{
name = bottom;
position = "{211, 0}";
},
{
name = center;
position = "{211, 350}";
},
{
name = top;
position = "{228, 700}";
}
);
hints = (
{
scale = "{1, -1}";
type = Corner;
name = _corner.leftSerif;
options = 1;
},
{
type = Corner;
name = _corner.leftSerif;
}
);
paths = (
{
closed = 1;
nodes = (
"353 -29 LINE",
"382 211 LINE",
"379 211 LINE",
"338 45 OFFCURVE",
"316 11 OFFCURVE",
"240 11 CURVE SMOOTH",
"94 11 LINE",
"382 697 LINE",
"382 700 LINE",
"138 700 LINE SMOOTH",
"106 700 OFFCURVE",
"91 708 OFFCURVE",
"83 729 CURVE",
"80 729 LINE",
"50 489 LINE",
"53 489 LINE",
"95 655 OFFCURVE",
"118 689 OFFCURVE",
"183 689 CURVE SMOOTH",
"320 689 LINE",
"32 3 LINE",
"32 0 LINE",
"295 0 LINE SMOOTH",
"327 0 OFFCURVE",
"342 -8 OFFCURVE",
"350 -29 CURVE"
);
}
);
};
layerId = "11FB3604-FD70-4670-A6A6-DB9438128FDF";
paths = (
{
closed = 1;
nodes = (
"353 -29 LINE",
"382 211 LINE",
"379 211 LINE",
"338 45 OFFCURVE",
"316 11 OFFCURVE",
"240 11 CURVE SMOOTH",
"94 11 LINE",
"382 697 LINE",
"382 700 LINE",
"138 700 LINE SMOOTH",
"106 700 OFFCURVE",
"91 708 OFFCURVE",
"83 729 CURVE",
"80 729 LINE",
"50 489 LINE",
"53 489 LINE",
"95 655 OFFCURVE",
"118 689 OFFCURVE",
"183 689 CURVE SMOOTH",
"320 689 LINE",
"32 3 LINE",
"32 0 LINE",
"295 0 LINE SMOOTH",
"327 0 OFFCURVE",
"342 -8 OFFCURVE",
"350 -29 CURVE"
);
}
);
width = 420;
}
);
leftKerningGroup = Z;
rightKerningGroup = Z;
unicode = 005A;
},
{
glyphname = a;
lastChange = "2025-04-05 11:24:18 +0000";
layers = (
{
anchors = (
{
name = bottom;
position = "{188, 0}";
},
{
name = ogonek;
position = "{306, 14}";
},
{
name = top;
position = "{188, 500}";
}
);
background = {
anchors = (
{
name = bottom;
position = "{188, 0}";
},
{
name = ogonek;
position = "{306, 14}";
},
{
name = top;
position = "{188, 500}";
}
);
hints = (
{
scale = "{1, -1}";
type = Corner;
name = _corner.leftSerif.001;
options = 1;
},
{
scale = "{1, -1}";
type = Corner;
name = _corner.leftSerif.001;
options = 1;
},
{
scale = "{1, -1}";
type = Corner;
name = _corner.leftSerif.001;
options = 1;
},
{
scale = "{1, -1}";
type = Corner;
name = _corner.leftSerif.001;
options = 1;
},
{
scale = "{1, -1}";
type = Corner;
name = _corner.leftSerif.001;
options = 1;
},
{
scale = "{1, -1}";
type = Corner;
name = _corner.leftSerif.001;
options = 1;
},
{
scale = "{1, -1}";
type = Corner;
name = _corner.leftSerif.001;
options = 1;
}
);
paths = (
{
closed = 1;
nodes = (
"185 -8 OFFCURVE",
"229 22 OFFCURVE",
"256 80 CURVE",
"256 -6 LINE",
"260 -6 LINE",
"372 41 LINE",
"372 44 LINE",
"320 34 OFFCURVE",
"304 41 OFFCURVE",
"304 75 CURVE SMOOTH",
"304 388 LINE SMOOTH",
"304 459 OFFCURVE",
"254 508 OFFCURVE",
"185 508 CURVE SMOOTH",
"150 508 OFFCURVE",
"112 495 OFFCURVE",
"75 471 CURVE",
"56 316 LINE",
"59 316 LINE",
"88 437 OFFCURVE",
"130 498 OFFCURVE",
"187 498 CURVE SMOOTH",
"228 498 OFFCURVE",
"254 465 OFFCURVE",
"254 400 CURVE SMOOTH",
"254 276 LINE",
"131 224 OFFCURVE",
"41 168 OFFCURVE",
"41 83 CURVE SMOOTH",
"41 23 OFFCURVE",
"83 -8 OFFCURVE",
"134 -8 CURVE SMOOTH"
);
},
{
closed = 1;
nodes = (
"114 12 OFFCURVE",
"90 40 OFFCURVE",
"90 93 CURVE SMOOTH",
"90 160 OFFCURVE",
"132 209 OFFCURVE",
"254 262 CURVE",
"254 101 LINE",
"235 50 OFFCURVE",
"192 12 OFFCURVE",
"150 12 CURVE SMOOTH"
);
}
);
};
layerId = "11FB3604-FD70-4670-A6A6-DB9438128FDF";
paths = (
{
closed = 1;
nodes = (
"185 -8 OFFCURVE",
"229 22 OFFCURVE",
"256 80 CURVE",
"256 -6 LINE",
"260 -6 LINE",
"372 41 LINE",
"372 44 LINE",
"320 34 OFFCURVE",
"304 41 OFFCURVE",
"304 75 CURVE SMOOTH",
"304 388 LINE SMOOTH",
"304 459 OFFCURVE",
"254 508 OFFCURVE",
"185 508 CURVE SMOOTH",
"150 508 OFFCURVE",
"112 495 OFFCURVE",
"75 471 CURVE",
"56 316 LINE",
"59 316 LINE",
"88 437 OFFCURVE",
"130 498 OFFCURVE",
"187 498 CURVE SMOOTH",
"228 498 OFFCURVE",
"254 465 OFFCURVE",
"254 400 CURVE SMOOTH",
"254 276 LINE",
"131 224 OFFCURVE",
"41 168 OFFCURVE",
"41 83 CURVE SMOOTH",
"41 23 OFFCURVE",
"83 -8 OFFCURVE",
"134 -8 CURVE SMOOTH"
);
},
{
closed = 1;
nodes = (
"114 12 OFFCURVE",
"90 40 OFFCURVE",
"90 93 CURVE SMOOTH",
"90 160 OFFCURVE",
"132 209 OFFCURVE",
"254 262 CURVE",
"254 101 LINE",
"235 50 OFFCURVE",
"192 12 OFFCURVE",
"150 12 CURVE SMOOTH"
);
}
);
width = 377;
}
);
leftKerningGroup = a;
rightKerningGroup = a;
unicode = 0061;
},
{
glyphname = b;
lastChange = "2025-04-05 11:24:18 +0000";
layers = (
{
background = {
paths = (
{
closed = 1;
nodes = (
"303 -8 OFFCURVE",
"366 103 OFFCURVE",
"366 262 CURVE SMOOTH",
"366 408 OFFCURVE",
"306 508 OFFCURVE",
"218 508 CURVE SMOOTH",
"181 508 OFFCURVE",
"149 491 OFFCURVE",
"125 459 CURVE",
"125 725 LINE",
"122 725 LINE",
"97 695 OFFCURVE",
"58 679 OFFCURVE",
"6 675 CURVE",
"6 672 LINE",
"61 670 OFFCURVE",
"75 656 OFFCURVE",
"75 610 CURVE SMOOTH",
"75 -6 LINE",
"79 -6 LINE",
"113 52 LINE",
"137 11 OFFCURVE",
"171 -8 OFFCURVE",
"212 -8 CURVE SMOOTH"
);
},
{
closed = 1;
nodes = (
"156 3 OFFCURVE",
"125 58 OFFCURVE",
"125 145 CURVE SMOOTH",
"125 440 LINE",
"144 473 OFFCURVE",
"174 494 OFFCURVE",
"204 494 CURVE SMOOTH",
"269 494 OFFCURVE",
"313 396 OFFCURVE",
"313 251 CURVE SMOOTH",
"313 104 OFFCURVE",
"269 3 OFFCURVE",
"204 3 CURVE SMOOTH"
);
}
);
};
layerId = "11FB3604-FD70-4670-A6A6-DB9438128FDF";
paths = (
{
closed = 1;
nodes = (
"303 -8 OFFCURVE",
"366 103 OFFCURVE",
"366 262 CURVE SMOOTH",
"366 408 OFFCURVE",
"306 508 OFFCURVE",
"218 508 CURVE SMOOTH",
"181 508 OFFCURVE",
"149 491 OFFCURVE",
"125 459 CURVE",
"125 725 LINE",
"122 725 LINE",
"97 695 OFFCURVE",
"58 679 OFFCURVE",
"6 675 CURVE",
"6 672 LINE",
"61 670 OFFCURVE",
"75 656 OFFCURVE",
"75 610 CURVE SMOOTH",
"75 -6 LINE",
"79 -6 LINE",
"113 52 LINE",
"137 11 OFFCURVE",
"171 -8 OFFCURVE",
"212 -8 CURVE SMOOTH"
);
},
{
closed = 1;
nodes = (
"156 3 OFFCURVE",
"125 58 OFFCURVE",
"125 145 CURVE SMOOTH",
"125 440 LINE",
"144 473 OFFCURVE",
"174 494 OFFCURVE",
"204 494 CURVE SMOOTH",
"269 494 OFFCURVE",
"313 396 OFFCURVE",
"313 251 CURVE SMOOTH",
"313 104 OFFCURVE",
"269 3 OFFCURVE",
"204 3 CURVE SMOOTH"
);
}
);
width = 406;
}
);
rightKerningGroup = b;
unicode = 0062;
},
{
glyphname = c;
lastChange = "2025-04-05 11:24:18 +0000";
layers = (
{
anchors = (
{
name = bottom;
position = "{175, 0}";
},
{
name = top;
position = "{193, 500}";
}
);
background = {
anchors = (
{
name = bottom;
position = "{175, 0}";
},
{
name = top;
position = "{193, 500}";
}
);
paths = (
{
closed = 1;
nodes = (
"250 -8 OFFCURVE",
"287 37 OFFCURVE",
"310 131 CURVE",
"303 133 LINE",
"278 46 OFFCURVE",
"247 14 OFFCURVE",
"206 14 CURVE SMOOTH",
"137 14 OFFCURVE",
"94 109 OFFCURVE",
"94 264 CURVE SMOOTH",
"94 412 OFFCURVE",
"131 497 OFFCURVE",
"196 497 CURVE SMOOTH",
"244 497 OFFCURVE",
"266 454 OFFCURVE",
"298 311 CURVE",
"301 311 LINE",
"284 482 LINE",
"261 495 OFFCURVE",
"234 508 OFFCURVE",
"201 508 CURVE SMOOTH",
"104 508 OFFCURVE",
"40 404 OFFCURVE",
"40 249 CURVE SMOOTH",
"40 99 OFFCURVE",
"103 -8 OFFCURVE",
"190 -8 CURVE SMOOTH"
);
}
);
};
layerId = "11FB3604-FD70-4670-A6A6-DB9438128FDF";
paths = (
{
closed = 1;
nodes = (
"250 -8 OFFCURVE",
"287 37 OFFCURVE",
"310 131 CURVE",
"303 133 LINE",
"278 46 OFFCURVE",
"247 14 OFFCURVE",
"206 14 CURVE SMOOTH",
"137 14 OFFCURVE",
"94 109 OFFCURVE",
"94 264 CURVE SMOOTH",
"94 412 OFFCURVE",
"131 497 OFFCURVE",
"196 497 CURVE SMOOTH",
"244 497 OFFCURVE",
"266 454 OFFCURVE",
"298 311 CURVE",
"301 311 LINE",
"284 482 LINE",
"261 495 OFFCURVE",
"234 508 OFFCURVE",
"201 508 CURVE SMOOTH",
"104 508 OFFCURVE",
"40 404 OFFCURVE",
"40 249 CURVE SMOOTH",
"40 99 OFFCURVE",
"103 -8 OFFCURVE",
"190 -8 CURVE SMOOTH"
);
}
);
width = 340;
}
);
leftKerningGroup = o;
leftMetricsKey = o;
rightKerningGroup = c;
unicode = 0063;
},
{
glyphname = d;
lastChange = "2025-04-05 11:24:18 +0000";
layers = (
{
background = {
hints = (
{
scale = "{1, -1}";
type = Corner;
name = _corner.leftSerif.001;
options = 1;
},
{
scale = "{1, -1}";
type = Corner;
name = _corner.leftSerif.001;
options = 1;
},
{
scale = "{1, -1}";
type = Corner;
name = _corner.leftSerif.001;
options = 1;
},
{
scale = "{1, -1}";
type = Corner;
name = _corner.leftSerif.001;
options = 1;
},
{
scale = "{1, -1}";
type = Corner;
name = _corner.leftSerif.001;
options = 1;
},
{
scale = "{1, -1}";
type = Corner;
name = _corner.leftSerif.001;
options = 1;
},
{
scale = "{1, -1}";
type = Corner;
name = _corner.leftSerif.001;
options = 1;
},
{
scale = "{1, -1}";
type = Corner;
name = _corner.leftSerif.001;
options = 1;
},
{
scale = "{1, -1}";
type = Corner;
name = _corner.leftSerif.001;
options = 1;
},
{
scale = "{1, -1}";
type = Corner;
name = _corner.leftSerif.001;
options = 1;
},
{
scale = "{1, -1}";
type = Corner;
name = _corner.leftSerif.001;
options = 1;
},
{
scale = "{1, -1}";
type = Corner;
name = _corner.leftSerif.001;
options = 1;
},
{
scale = "{1, -1}";
type = Corner;
name = _corner.leftSerif.001;
options = 1;
},
{
scale = "{1, -1}";
type = Corner;
name = _corner.leftSerif.001;
options = 1;
},
{
scale = "{1, -1}";
type = Corner;
name = _corner.leftSerif.001;
options = 1;
},
{
scale = "{1, -1}";
type = Corner;
name = _corner.leftSerif.001;
options = 1;
},
{
scale = "{1, -1}";
type = Corner;
name = _corner.leftSerif.001;
options = 1;
},
{
scale = "{1, -1}";
type = Corner;
name = _corner.leftSerif.001;
options = 1;
}
);
paths = (
{
closed = 1;
nodes = (
"228 -8 OFFCURVE",
"275 33 OFFCURVE",
"293 128 CURVE",
"281 128 LINE",
"281 -6 LINE",
"285 -6 LINE",
"397 41 LINE",
"397 44 LINE",
"345 34 OFFCURVE",
"329 41 OFFCURVE",
"329 75 CURVE SMOOTH",
"329 725 LINE",
"326 725 LINE",
"301 695 OFFCURVE",
"262 679 OFFCURVE",
"210 675 CURVE",
"210 672 LINE",
"265 670 OFFCURVE",
"279 656 OFFCURVE",
"279 610 CURVE SMOOTH",
"279 481 LINE",
"259 498 OFFCURVE",
"233 508 OFFCURVE",
"206 508 CURVE SMOOTH",
"112 508 OFFCURVE",
"40 395 OFFCURVE",
"40 234 CURVE SMOOTH",
"40 98 OFFCURVE",
"92 -8 OFFCURVE",
"175 -8 CURVE SMOOTH"
);
},
{
closed = 1;
nodes = (
"129 8 OFFCURVE",
"93 96 OFFCURVE",
"93 234 CURVE SMOOTH",
"93 393 OFFCURVE",
"140 497 OFFCURVE",
"211 497 CURVE SMOOTH",
"242 497 OFFCURVE",
"266 476 OFFCURVE",
"279 445 CURVE",
"279 111 LINE",
"259 42 OFFCURVE",
"228 8 OFFCURVE",
"190 8 CURVE SMOOTH"
);
}
);
};
layerId = "11FB3604-FD70-4670-A6A6-DB9438128FDF";
paths = (
{
closed = 1;
nodes = (
"228 -8 OFFCURVE",
"275 33 OFFCURVE",
"293 128 CURVE",
"281 128 LINE",
"281 -6 LINE",
"285 -6 LINE",
"397 41 LINE",
"397 44 LINE",
"345 34 OFFCURVE",
"329 41 OFFCURVE",
"329 75 CURVE SMOOTH",
"329 725 LINE",
"326 725 LINE",
"301 695 OFFCURVE",
"262 679 OFFCURVE",
"210 675 CURVE",
"210 672 LINE",
"265 670 OFFCURVE",
"279 656 OFFCURVE",
"279 610 CURVE SMOOTH",
"279 481 LINE",
"259 498 OFFCURVE",
"233 508 OFFCURVE",
"206 508 CURVE SMOOTH",
"112 508 OFFCURVE",
"40 395 OFFCURVE",
"40 234 CURVE SMOOTH",
"40 98 OFFCURVE",
"92 -8 OFFCURVE",
"175 -8 CURVE SMOOTH"
);
},
{
closed = 1;
nodes = (
"129 8 OFFCURVE",
"93 96 OFFCURVE",
"93 234 CURVE SMOOTH",
"93 393 OFFCURVE",
"140 497 OFFCURVE",
"211 497 CURVE SMOOTH",
"242 497 OFFCURVE",
"266 476 OFFCURVE",
"279 445 CURVE",
"279 111 LINE",
"259 42 OFFCURVE",
"228 8 OFFCURVE",
"190 8 CURVE SMOOTH"
);
}
);
width = 404;
}
);
leftKerningGroup = d;
rightKerningGroup = u;
unicode = 0064;
},
{
glyphname = e;
lastChange = "2025-04-05 11:24:18 +0000";
layers = (
{
anchors = (
{
name = bottom;
position = "{194, 0}";
},
{
name = ogonek;
position = "{255, 10}";
},
{
name = top;
position = "{191, 500}";
}
);
background = {
anchors = (
{
name = bottom;
position = "{194, 0}";
},
{
name = ogonek;
position = "{255, 10}";
},
{
name = top;
position = "{191, 500}";
}
);
paths = (
{
closed = 1;
nodes = (
"257 -8 OFFCURVE",
"302 37 OFFCURVE",
"326 132 CURVE",
"318 134 LINE",
"292 46 OFFCURVE",
"254 14 OFFCURVE",
"211 14 CURVE SMOOTH",
"138 14 OFFCURVE",
"94 106 OFFCURVE",
"94 262 CURVE SMOOTH",
"94 396 OFFCURVE",
"127 497 OFFCURVE",
"192 497 CURVE SMOOTH",
"234 497 OFFCURVE",
"264 454 OFFCURVE",
"264 405 CURVE SMOOTH",
"264 376 OFFCURVE",
"252 361 OFFCURVE",
"227 361 CURVE SMOOTH",
"58 361 LINE",
"58 350 LINE",
"318 350 LINE",
"318 467 OFFCURVE",
"260 508 OFFCURVE",
"203 508 CURVE SMOOTH",
"113 508 OFFCURVE",
"40 410 OFFCURVE",
"40 248 CURVE SMOOTH",
"40 98 OFFCURVE",
"103 -8 OFFCURVE",
"196 -8 CURVE SMOOTH"
);
}
);
};
layerId = "11FB3604-FD70-4670-A6A6-DB9438128FDF";
paths = (
{
closed = 1;
nodes = (
"257 -8 OFFCURVE",
"302 37 OFFCURVE",
"326 132 CURVE",
"318 134 LINE",
"292 46 OFFCURVE",
"254 14 OFFCURVE",
"211 14 CURVE SMOOTH",
"138 14 OFFCURVE",
"94 106 OFFCURVE",
"94 262 CURVE SMOOTH",
"94 396 OFFCURVE",
"127 497 OFFCURVE",
"192 497 CURVE SMOOTH",
"234 497 OFFCURVE",
"264 454 OFFCURVE",
"264 405 CURVE SMOOTH",
"264 376 OFFCURVE",
"252 361 OFFCURVE",
"227 361 CURVE SMOOTH",
"58 361 LINE",
"58 350 LINE",
"318 350 LINE",
"318 467 OFFCURVE",
"260 508 OFFCURVE",
"203 508 CURVE SMOOTH",
"113 508 OFFCURVE",
"40 410 OFFCURVE",
"40 248 CURVE SMOOTH",
"40 98 OFFCURVE",
"103 -8 OFFCURVE",
"196 -8 CURVE SMOOTH"
);
}
);
width = 360;
}
);
leftKerningGroup = o;
leftMetricsKey = o;
rightKerningGroup = e;
unicode = 0065;
},
{
glyphname = f;
lastChange = "2025-04-05 11:24:18 +0000";
layers = (
{
background = {
hints = (
{
type = Corner;
name = _corner.leftSerif.001;
},
{
scale = "{1, -1}";
type = Corner;
name = _corner.leftSerif.001;
options = 1;
},
{
scale = "{1, -1}";
type = Corner;
name = _corner.leftSerif.001;
options = 1;
},
{
type = Corner;
name = _corner.leftSerif.001;
},
{
scale = "{1, -1}";
type = Corner;
name = _corner.leftSerif.001;
options = 1;
},
{
type = Corner;
name = _corner.leftSerif.001;
},
{
scale = "{1, -1}";
type = Corner;
name = _corner.leftSerif.001;
options = 1;
},
{
type = Corner;
name = _corner.leftSerif.001;
},
{
scale = "{1, -1}";
type = Corner;
name = _corner.leftSerif.001;
options = 1;
},
{
type = Corner;
name = _corner.leftSerif.001;
},
{
scale = "{1, -1}";
type = Corner;
name = _corner.leftSerif.001;
options = 1;
},
{
type = Corner;
name = _corner.leftSerif.001;
},
{
scale = "{1, -1}";
type = Corner;
name = _corner.leftSerif.001;
options = 1;
},
{
type = Corner;
name = _corner.leftSerif.001;
},
{
scale = "{1, -1}";
type = Corner;
name = _corner.leftSerif.001;
options = 1;
},
{
type = Corner;
name = _corner.leftSerif.001;
},
{
scale = "{1, -1}";
type = Corner;
name = _corner.leftSerif.001;
options = 1;
},
{
type = Corner;
name = _corner.leftSerif.001;
},
{
scale = "{1, -1}";
type = Corner;
name = _corner.leftSerif.001;
options = 1;
},
{
type = Corner;
name = _corner.leftSerif.001;
},
{
scale = "{1, -1}";
type = Corner;
name = _corner.leftSerif.001;
options = 1;
},
{
type = Corner;
name = _corner.leftSerif.001;
},
{
scale = "{1, -1}";
type = Corner;
name = _corner.leftSerif.001;
options = 1;
},
{
type = Corner;
name = _corner.leftSerif.001;
},
{
scale = "{1, -1}";
type = Corner;
name = _corner.leftSerif.001;
options = 1;
},
{
type = Corner;
name = _corner.leftSerif.001;
},
{
scale = "{1, -1}";
type = Corner;
name = _corner.leftSerif.001;
options = 1;
},
{
type = Corner;
name = _corner.leftSerif.001;
},
{
scale = "{1, -1}";
type = Corner;
name = _corner.leftSerif.001;
options = 1;
},
{
type = Corner;
name = _corner.leftSerif.001;
},
{
scale = "{1, -1}";
type = Corner;
name = _corner.leftSerif.001;
options = 1;
},
{
type = Corner;
name = _corner.leftSerif.001;
},
{
scale = "{1, -1}";
type = Corner;
name = _corner.leftSerif.001;
options = 1;
},
{
type = Corner;
name = _corner.leftSerif.001;
},
{
scale = "{1, -1}";
type = Corner;
name = _corner.leftSerif.001;
options = 1;
},
{
type = Corner;
name = _corner.leftSerif.001;
},
{
scale = "{1, -1}";
type = Corner;
name = _corner.leftSerif.001;
options = 1;
},
{
type = Corner;
name = _corner.leftSerif.001;
},
{
type = Corner;
name = _corner.leftSerif.001;
},
{
scale = "{1, -1}";
type = Corner;
name = _corner.leftSerif.001;
options = 1;
},
{
type = Corner;
name = _corner.leftSerif.001;
},
{
scale = "{1, -1}";
type = Corner;
name = _corner.leftSerif.001;
options = 1;
},
{
type = Corner;
name = _corner.leftSerif.001;
},
{
scale = "{1, -1}";
type = Corner;
name = _corner.leftSerif.001;
options = 1;
},
{
type = Corner;
name = _corner.leftSerif.001;
},
{
scale = "{1, -1}";
type = Corner;
name = _corner.leftSerif.001;
options = 1;
},
{
type = Corner;
name = _corner.leftSerif.001;
},
{
scale = "{1, -1}";
type = Corner;
name = _corner.leftSerif.001;
options = 1;
},
{
type = Corner;
name = _corner.leftSerif.001;
},
{
scale = "{1, -1}";
type = Corner;
name = _corner.leftSerif.001;
options = 1;
},
{
type = Corner;
name = _corner.leftSerif.001;
},
{
scale = "{1, -1}";
type = Corner;
name = _corner.leftSerif.001;
options = 1;
},
{
type = Corner;
name = _corner.leftSerif.001;
},
{
scale = "{1, -1}";
type = Corner;
name = _corner.leftSerif.001;
options = 1;
},
{
type = Corner;
name = _corner.leftSerif.001;
},
{
scale = "{1, -1}";
type = Corner;
name = _corner.leftSerif.001;
options = 1;
},
{
type = Corner;
name = _corner.leftSerif.001;
},
{
scale = "{1, -1}";
type = Corner;
name = _corner.leftSerif.001;
options = 1;
},
{
type = Corner;
name = _corner.leftSerif.001;
},
{
scale = "{1, -1}";
type = Corner;
name = _corner.leftSerif.001;
options = 1;
},
{
type = Corner;
name = _corner.leftSerif.001;
},
{
scale = "{1, -1}";
type = Corner;
name = _corner.leftSerif.001;
options = 1;
},
{
type = Corner;
name = _corner.leftSerif.001;
},
{
scale = "{1, -1}";
type = Corner;
name = _corner.leftSerif.001;
options = 1;
},
{
type = Corner;
name = _corner.leftSerif.001;
},
{
scale = "{1, -1}";
type = Corner;
name = _corner.leftSerif.001;
options = 1;
},
{
type = Corner;
name = _corner.leftSerif.001;
},
{
scale = "{1, -1}";
type = Corner;
name = _corner.leftSerif.001;
options = 1;
},
{
type = Corner;
name = _corner.rightSerif.001;
},
{
scale = "{1, -1}";
type = Corner;
name = _corner.rightSerif.001;
options = 1;
},
{
type = Corner;
name = _corner.leftSerif.001;
},
{
scale = "{1, -1}";
type = Corner;
name = _corner.leftSerif.001;
options = 1;
},
{
type = Corner;
name = _corner.leftSerif.001;
},
{
scale = "{1, -1}";
type = Corner;
name = _corner.leftSerif.001;
options = 1;
},
{
type = Corner;
name = _corner.leftSerif.001;
},
{
scale = "{1, -1}";
type = Corner;
name = _corner.leftSerif.001;
options = 1;
},
{
type = Corner;
name = _corner.leftSerif.001;
},
{
scale = "{1, -1}";
type = Corner;
name = _corner.leftSerif.001;
options = 1;
},
{
type = Corner;
name = _corner.leftSerif.001;
},
{
scale = "{1, -1}";
type = Corner;
name = _corner.leftSerif.001;
options = 1;
},
{
type = Corner;
name = _corner.leftSerif.001;
},
{
type = Corner;
name = _corner.leftSerif.001;
},
{
type = Corner;
name = _corner.leftSerif.001;
},
{
type = Corner;
name = _corner.leftSerif.001;
},
{
type = Corner;
name = _corner.leftSerif.001;
},
{
type = Corner;
name = _corner.leftSerif.001;
},
{
type = Corner;
name = _corner.leftSerif.001;
},
{
origin = "{0, 28}";
type = Corner;
name = _corner.leftSerif.001;
}
);
paths = (
{
closed = 1;
nodes = (
"215 0 LINE",
"215 3 LINE",
"155 6 OFFCURVE",
"137 21 OFFCURVE",
"137 70 CURVE SMOOTH",
"137 489 LINE",
"247 489 LINE",
"247 500 LINE",
"137 500 LINE",
"137 613 LINE SMOOTH",
"137 684 OFFCURVE",
"157 718 OFFCURVE",
"194 718 CURVE SMOOTH",
"229 718 OFFCURVE",
"257 685 OFFCURVE",
"289 585 CURVE",
"292 585 LINE",
"274 708 LINE",
"253 722 OFFCURVE",
"220 729 OFFCURVE",
"196 729 CURVE SMOOTH",
"127 729 OFFCURVE",
"87 676 OFFCURVE",
"87 560 CURVE SMOOTH",
"87 500 LINE",
"11 500 LINE",
"11 489 LINE",
"87 489 LINE",
"87 0 LINE"
);
}
);
};
hints = (
{
origin = "{0, 28}";
type = Corner;
name = _corner.leftSerif.001;
}
);
layerId = "11FB3604-FD70-4670-A6A6-DB9438128FDF";
paths = (
{
closed = 1;
nodes = (
"215 0 LINE",
"215 3 LINE",
"155 6 OFFCURVE",
"137 21 OFFCURVE",
"137 70 CURVE SMOOTH",
"137 489 LINE",
"247 489 LINE",
"247 500 LINE",
"137 500 LINE",
"137 613 LINE SMOOTH",
"137 684 OFFCURVE",
"157 718 OFFCURVE",
"194 718 CURVE SMOOTH",
"229 718 OFFCURVE",
"257 685 OFFCURVE",
"289 585 CURVE",
"292 585 LINE",
"274 708 LINE",
"253 722 OFFCURVE",
"220 729 OFFCURVE",
"196 729 CURVE SMOOTH",
"127 729 OFFCURVE",
"87 676 OFFCURVE",
"87 560 CURVE SMOOTH",
"87 500 LINE",
"11 500 LINE",
"11 489 LINE",
"87 489 LINE",
"87 0 LINE"
);
}
);
width = 270;
}
);
leftKerningGroup = f;
rightKerningGroup = f;
unicode = 0066;
},
{
glyphname = g;
lastChange = "2025-04-05 11:24:18 +0000";
layers = (
{
background = {
paths = (
{
closed = 1;
nodes = (
"280 -194 OFFCURVE",
"360 -116 OFFCURVE",
"360 -25 CURVE SMOOTH",
"360 47 OFFCURVE",
"310 95 OFFCURVE",
"232 95 CURVE SMOOTH",
"196 95 OFFCURVE",
"150 84 OFFCURVE",
"122 84 CURVE SMOOTH",
"91 84 OFFCURVE",
"66 98 OFFCURVE",
"66 130 CURVE SMOOTH",
"66 161 OFFCURVE",
"91 187 OFFCURVE",
"141 197 CURVE",
"135 206 LINE",
"79 192 OFFCURVE",
"43 163 OFFCURVE",
"43 113 CURVE SMOOTH",
"43 59 OFFCURVE",
"85 34 OFFCURVE",
"126 34 CURVE SMOOTH",
"154 34 OFFCURVE",
"201 45 OFFCURVE",
"233 45 CURVE SMOOTH",
"289 45 OFFCURVE",
"326 13 OFFCURVE",
"326 -44 CURVE SMOOTH",
"326 -118 OFFCURVE",
"263 -183 OFFCURVE",
"180 -183 CURVE SMOOTH",
"115 -183 OFFCURVE",
"75 -142 OFFCURVE",
"75 -78 CURVE SMOOTH",
"75 -29 OFFCURVE",
"97 18 OFFCURVE",
"146 35 CURVE",
"146 44 LINE",
"67 20 OFFCURVE",
"32 -38 OFFCURVE",
"32 -90 CURVE SMOOTH",
"32 -159 OFFCURVE",
"93 -194 OFFCURVE",
"167 -194 CURVE SMOOTH"
);
},
{
closed = 1;
nodes = (
"264 186 OFFCURVE",
"323 257 OFFCURVE",
"323 347 CURVE SMOOTH",
"323 437 OFFCURVE",
"264 508 OFFCURVE",
"185 508 CURVE SMOOTH",
"106 508 OFFCURVE",
"47 437 OFFCURVE",
"47 347 CURVE SMOOTH",
"47 257 OFFCURVE",
"106 186 OFFCURVE",
"185 186 CURVE SMOOTH"
);
},
{
closed = 1;
nodes = (
"132 197 OFFCURVE",
"97 258 OFFCURVE",
"97 347 CURVE SMOOTH",
"97 436 OFFCURVE",
"132 497 OFFCURVE",
"185 497 CURVE SMOOTH",
"238 497 OFFCURVE",
"273 436 OFFCURVE",
"273 347 CURVE SMOOTH",
"273 258 OFFCURVE",
"238 197 OFFCURVE",
"185 197 CURVE SMOOTH"
);
},
{
closed = 1;
nodes = (
"250 531 OFFCURVE",
"294 582 OFFCURVE",
"327 649 CURVE",
"280 669 LINE",
"254 586 OFFCURVE",
"227 536 OFFCURVE",
"188 508 CURVE",
"188 501 LINE"
);
}
);
};
layerId = "11FB3604-FD70-4670-A6A6-DB9438128FDF";
paths = (
{
closed = 1;
nodes = (
"280 -194 OFFCURVE",
"360 -116 OFFCURVE",
"360 -25 CURVE SMOOTH",
"360 47 OFFCURVE",
"310 95 OFFCURVE",
"232 95 CURVE SMOOTH",
"196 95 OFFCURVE",
"150 84 OFFCURVE",
"122 84 CURVE SMOOTH",
"91 84 OFFCURVE",
"66 98 OFFCURVE",
"66 130 CURVE SMOOTH",
"66 161 OFFCURVE",
"91 187 OFFCURVE",
"141 197 CURVE",
"135 206 LINE",
"79 192 OFFCURVE",
"43 163 OFFCURVE",
"43 113 CURVE SMOOTH",
"43 59 OFFCURVE",
"85 34 OFFCURVE",
"126 34 CURVE SMOOTH",
"154 34 OFFCURVE",
"201 45 OFFCURVE",
"233 45 CURVE SMOOTH",
"289 45 OFFCURVE",
"326 13 OFFCURVE",
"326 -44 CURVE SMOOTH",
"326 -118 OFFCURVE",
"263 -183 OFFCURVE",
"180 -183 CURVE SMOOTH",
"115 -183 OFFCURVE",
"75 -142 OFFCURVE",
"75 -78 CURVE SMOOTH",
"75 -29 OFFCURVE",
"97 18 OFFCURVE",
"146 35 CURVE",
"146 44 LINE",
"67 20 OFFCURVE",
"32 -38 OFFCURVE",
"32 -90 CURVE SMOOTH",
"32 -159 OFFCURVE",
"93 -194 OFFCURVE",
"167 -194 CURVE SMOOTH"
);
},
{
closed = 1;
nodes = (
"264 186 OFFCURVE",
"323 257 OFFCURVE",
"323 347 CURVE SMOOTH",
"323 437 OFFCURVE",
"264 508 OFFCURVE",
"185 508 CURVE SMOOTH",
"106 508 OFFCURVE",
"47 437 OFFCURVE",
"47 347 CURVE SMOOTH",
"47 257 OFFCURVE",
"106 186 OFFCURVE",
"185 186 CURVE SMOOTH"
);
},
{
closed = 1;
nodes = (
"132 197 OFFCURVE",
"97 258 OFFCURVE",
"97 347 CURVE SMOOTH",
"97 436 OFFCURVE",
"132 497 OFFCURVE",
"185 497 CURVE SMOOTH",
"238 497 OFFCURVE",
"273 436 OFFCURVE",
"273 347 CURVE SMOOTH",
"273 258 OFFCURVE",
"238 197 OFFCURVE",
"185 197 CURVE SMOOTH"
);
},
{
closed = 1;
nodes = (
"250 531 OFFCURVE",
"294 582 OFFCURVE",
"327 649 CURVE",
"280 669 LINE",
"254 586 OFFCURVE",
"227 536 OFFCURVE",
"188 508 CURVE",
"188 501 LINE"
);
}
);
width = 375;
}
);
unicode = 0067;
},
{
glyphname = h;
lastChange = "2025-04-05 11:24:18 +0000";
layers = (
{
anchors = (
{
name = bottom;
position = "{211, 0}";
},
{
name = center;
position = "{106, 640}";
},
{
name = top;
position = "{211, 700}";
}
);
background = {
anchors = (
{
name = bottom;
position = "{211, 0}";
},
{
name = center;
position = "{106, 640}";
},
{
name = top;
position = "{211, 700}";
}
);
hints = (
{
scale = "{1, -1}";
type = Corner;
name = _corner.leftSerif.001;
options = 1;
},
{
type = Corner;
name = _corner.rightSerif.001;
},
{
scale = "{1, -1}";
type = Corner;
name = _corner.rightSerif.001;
options = 1;
},
{
type = Corner;
name = _corner.leftSerif.001;
},
{
scale = "{1, -1}";
type = Corner;
name = _corner.leftSerif.001;
options = 1;
},
{
type = Corner;
name = _corner.rightSerif.001;
},
{
scale = "{1, -1}";
type = Corner;
name = _corner.rightSerif.001;
options = 1;
},
{
type = Corner;
name = _corner.leftSerif.001;
},
{
scale = "{1, -1}";
type = Corner;
name = _corner.leftSerif.001;
options = 1;
},
{
type = Corner;
name = _corner.rightSerif.001;
},
{
scale = "{1, -1}";
type = Corner;
name = _corner.rightSerif.001;
options = 1;
},
{
type = Corner;
name = _corner.leftSerif.001;
},
{
scale = "{1, -1}";
type = Corner;
name = _corner.leftSerif.001;
options = 1;
},
{
type = Corner;
name = _corner.rightSerif.001;
},
{
scale = "{1, -1}";
type = Corner;
name = _corner.rightSerif.001;
options = 1;
},
{
type = Corner;
name = _corner.leftSerif.001;
},
{
scale = "{1, -1}";
type = Corner;
name = _corner.leftSerif.001;
options = 1;
},
{
type = Corner;
name = _corner.rightSerif.001;
},
{
scale = "{1, -1}";
type = Corner;
name = _corner.rightSerif.001;
options = 1;
},
{
type = Corner;
name = _corner.leftSerif.001;
},
{
scale = "{1, -1}";
type = Corner;
name = _corner.leftSerif.001;
options = 1;
},
{
type = Corner;
name = _corner.rightSerif.001;
},
{
scale = "{1, -1}";
type = Corner;
name = _corner.rightSerif.001;
options = 1;
},
{
type = Corner;
name = _corner.leftSerif.001;
},
{
scale = "{1, -1}";
type = Corner;
name = _corner.leftSerif.001;
options = 1;
},
{
type = Corner;
name = _corner.rightSerif.001;
},
{
scale = "{1, -1}";
type = Corner;
name = _corner.rightSerif.001;
options = 1;
},
{
type = Corner;
name = _corner.leftSerif.001;
},
{
scale = "{1, -1}";
type = Corner;
name = _corner.leftSerif.001;
options = 1;
},
{
type = Corner;
name = _corner.rightSerif.001;
},
{
scale = "{1, -1}";
type = Corner;
name = _corner.rightSerif.001;
options = 1;
},
{
type = Corner;
name = _corner.leftSerif.001;
},
{
scale = "{1, -1}";
type = Corner;
name = _corner.leftSerif.001;
options = 1;
},
{
type = Corner;
name = _corner.rightSerif.001;
},
{
scale = "{1, -1}";
type = Corner;
name = _corner.rightSerif.001;
options = 1;
},
{
type = Corner;
name = _corner.leftSerif.001;
},
{
origin = "{0, 0}";
scale = "{1, -1}";
type = Corner;
name = _corner.leftSerif.001;
options = 1;
},
{
origin = "{0, 15}";
type = Corner;
name = _corner.rightSerif.001;
},
{
origin = "{1, 0}";
scale = "{1, -1}";
type = Corner;
name = _corner.rightSerif.001;
options = 1;
},
{
origin = "{1, 10}";
type = Corner;
name = _corner.leftSerif.001;
}
);
paths = (
{
closed = 1;
nodes = (
"351 0 LINE",
"351 395 LINE SMOOTH",
"351 462 OFFCURVE",
"312 505 OFFCURVE",
"252 505 CURVE SMOOTH",
"194 505 OFFCURVE",
"145 465 OFFCURVE",
"115 381 CURVE",
"125 378 LINE",
"149 448 OFFCURVE",
"192 485 OFFCURVE",
"236 485 CURVE SMOOTH",
"276 485 OFFCURVE",
"301 454 OFFCURVE",
"301 405 CURVE SMOOTH",
"301 0 LINE"
);
},
{
closed = 1;
nodes = (
"125 0 LINE",
"125 725 LINE",
"122 725 LINE",
"97 695 OFFCURVE",
"58 679 OFFCURVE",
"6 675 CURVE",
"6 672 LINE",
"61 670 OFFCURVE",
"75 656 OFFCURVE",
"75 610 CURVE SMOOTH",
"75 0 LINE"
);
}
);
};
hints = (
{
origin = "{0, 0}";
scale = "{1, -1}";
type = Corner;
name = _corner.leftSerif.001;
options = 1;
},
{
origin = "{0, 15}";
type = Corner;
name = _corner.rightSerif.001;
},
{
origin = "{1, 0}";
scale = "{1, -1}";
type = Corner;
name = _corner.rightSerif.001;
options = 1;
},
{
origin = "{1, 10}";
type = Corner;
name = _corner.leftSerif.001;
}
);
layerId = "11FB3604-FD70-4670-A6A6-DB9438128FDF";
paths = (
{
closed = 1;
nodes = (
"351 0 LINE",
"351 395 LINE SMOOTH",
"351 462 OFFCURVE",
"312 505 OFFCURVE",
"252 505 CURVE SMOOTH",
"194 505 OFFCURVE",
"145 465 OFFCURVE",
"115 381 CURVE",
"125 378 LINE",
"149 448 OFFCURVE",
"192 485 OFFCURVE",
"236 485 CURVE SMOOTH",
"276 485 OFFCURVE",
"301 454 OFFCURVE",
"301 405 CURVE SMOOTH",
"301 0 LINE"
);
},
{
closed = 1;
nodes = (
"125 0 LINE",
"125 725 LINE",
"122 725 LINE",
"97 695 OFFCURVE",
"58 679 OFFCURVE",
"6 675 CURVE",
"6 672 LINE",
"61 670 OFFCURVE",
"75 656 OFFCURVE",
"75 610 CURVE SMOOTH",
"75 0 LINE"
);
}
);
width = 422;
}
);
leftKerningGroup = h;
rightKerningGroup = n;
rightMetricsKey = n;
unicode = 0068;
},
{
glyphname = i;
lastChange = "2025-04-05 11:24:18 +0000";
layers = (
{
anchors = (
{
name = bottom;
position = "{102, 0}";
},
{
name = ogonek;
position = "{137, 0}";
}
);
background = {
anchors = (
{
name = bottom;
position = "{102, 0}";
},
{
name = ogonek;
position = "{137, 0}";
}
);
hints = (
{
scale = "{1, -1}";
type = Corner;
name = _corner.rightSerif.001;
options = 1;
},
{
type = Corner;
name = _corner.leftSerif.001;
},
{
scale = "{1, -1}";
type = Corner;
name = _corner.rightSerif.001;
options = 1;
},
{
type = Corner;
name = _corner.leftSerif.001;
},
{
scale = "{1, -1}";
type = Corner;
name = _corner.rightSerif.001;
options = 1;
},
{
type = Corner;
name = _corner.leftSerif.001;
},
{
scale = "{1, -1}";
type = Corner;
name = _corner.rightSerif.001;
options = 1;
},
{
type = Corner;
name = _corner.leftSerif.001;
},
{
scale = "{1, -1}";
type = Corner;
name = _corner.rightSerif.001;
options = 1;
},
{
type = Corner;
name = _corner.leftSerif.001;
},
{
scale = "{1, -1}";
type = Corner;
name = _corner.rightSerif.001;
options = 1;
},
{
type = Corner;
name = _corner.leftSerif.001;
},
{
scale = "{1, -1}";
type = Corner;
name = _corner.rightSerif.001;
options = 1;
},
{
type = Corner;
name = _corner.leftSerif.001;
},
{
scale = "{1, -1}";
type = Corner;
name = _corner.rightSerif.001;
options = 1;
},
{
type = Corner;
name = _corner.leftSerif.001;
},
{
scale = "{1, -1}";
type = Corner;
name = _corner.rightSerif.001;
options = 1;
},
{
type = Corner;
name = _corner.leftSerif.001;
},
{
scale = "{1, -1}";
type = Corner;
name = _corner.rightSerif.001;
options = 1;
},
{
type = Corner;
name = _corner.leftSerif.001;
},
{
origin = "{0, 0}";
scale = "{1, -1}";
type = Corner;
name = _corner.rightSerif.001;
options = 1;
},
{
origin = "{0, 10}";
type = Corner;
name = _corner.leftSerif.001;
}
);
paths = (
{
closed = 1;
nodes = (
"127 0 LINE",
"127 508 LINE",
"124 508 LINE",
"99 480 OFFCURVE",
"60 466 OFFCURVE",
"8 462 CURVE",
"8 459 LINE",
"63 457 OFFCURVE",
"77 442 OFFCURVE",
"77 393 CURVE SMOOTH",
"77 0 LINE"
);
},
{
closed = 1;
nodes = (
"121 596 OFFCURVE",
"137 612 OFFCURVE",
"137 637 CURVE SMOOTH",
"137 662 OFFCURVE",
"121 678 OFFCURVE",
"100 678 CURVE SMOOTH",
"79 678 OFFCURVE",
"63 662 OFFCURVE",
"63 637 CURVE SMOOTH",
"63 612 OFFCURVE",
"79 596 OFFCURVE",
"100 596 CURVE SMOOTH"
);
}
);
};
hints = (
{
origin = "{0, 0}";
scale = "{1, -1}";
type = Corner;
name = _corner.rightSerif.001;
options = 1;
},
{
origin = "{0, 10}";
type = Corner;
name = _corner.leftSerif.001;
}
);
layerId = "11FB3604-FD70-4670-A6A6-DB9438128FDF";
paths = (
{
closed = 1;
nodes = (
"127 0 LINE",
"127 508 LINE",
"124 508 LINE",
"99 480 OFFCURVE",
"60 466 OFFCURVE",
"8 462 CURVE",
"8 459 LINE",
"63 457 OFFCURVE",
"77 442 OFFCURVE",
"77 393 CURVE SMOOTH",
"77 0 LINE"
);
},
{
closed = 1;
nodes = (
"121 596 OFFCURVE",
"137 612 OFFCURVE",
"137 637 CURVE SMOOTH",
"137 662 OFFCURVE",
"121 678 OFFCURVE",
"100 678 CURVE SMOOTH",
"79 678 OFFCURVE",
"63 662 OFFCURVE",
"63 637 CURVE SMOOTH",
"63 612 OFFCURVE",
"79 596 OFFCURVE",
"100 596 CURVE SMOOTH"
);
}
);
width = 202;
}
);
leftKerningGroup = i;
leftMetricsKey = n;
rightKerningGroup = i;
unicode = 0069;
},
{
glyphname = j;
lastChange = "2025-04-05 11:24:18 +0000";
layers = (
{
background = {
paths = (
{
closed = 1;
nodes = (
"94 -120 OFFCURVE",
"131 -53 OFFCURVE",
"131 40 CURVE SMOOTH",
"131 508 LINE",
"128 508 LINE",
"103 480 OFFCURVE",
"64 466 OFFCURVE",
"12 462 CURVE",
"12 459 LINE",
"67 457 OFFCURVE",
"81 442 OFFCURVE",
"81 393 CURVE SMOOTH",
"81 51 LINE SMOOTH",
"81 -71 OFFCURVE",
"63 -120 OFFCURVE",
"-2 -184 CURVE",
"3 -190 LINE"
);
},
{
closed = 1;
nodes = (
"125 596 OFFCURVE",
"141 612 OFFCURVE",
"141 637 CURVE SMOOTH",
"141 662 OFFCURVE",
"125 678 OFFCURVE",
"104 678 CURVE SMOOTH",
"83 678 OFFCURVE",
"67 662 OFFCURVE",
"67 637 CURVE SMOOTH",
"67 612 OFFCURVE",
"83 596 OFFCURVE",
"104 596 CURVE SMOOTH"
);
}
);
};
layerId = "11FB3604-FD70-4670-A6A6-DB9438128FDF";
paths = (
{
closed = 1;
nodes = (
"94 -120 OFFCURVE",
"131 -53 OFFCURVE",
"131 40 CURVE SMOOTH",
"131 508 LINE",
"128 508 LINE",
"103 480 OFFCURVE",
"64 466 OFFCURVE",
"12 462 CURVE",
"12 459 LINE",
"67 457 OFFCURVE",
"81 442 OFFCURVE",
"81 393 CURVE SMOOTH",
"81 51 LINE SMOOTH",
"81 -71 OFFCURVE",
"63 -120 OFFCURVE",
"-2 -184 CURVE",
"3 -190 LINE"
);
},
{
closed = 1;
nodes = (
"125 596 OFFCURVE",
"141 612 OFFCURVE",
"141 637 CURVE SMOOTH",
"141 662 OFFCURVE",
"125 678 OFFCURVE",
"104 678 CURVE SMOOTH",
"83 678 OFFCURVE",
"67 662 OFFCURVE",
"67 637 CURVE SMOOTH",
"67 612 OFFCURVE",
"83 596 OFFCURVE",
"104 596 CURVE SMOOTH"
);
}
);
width = 206;
}
);
leftKerningGroup = i;
rightKerningGroup = i;
unicode = 006A;
},
